M48
; DRILL file {KiCad (6.0.8)} date Tue Nov  8 16:17:15 2022
; FORMAT={-:-/ absolute / metric / decimal}
; #@! TF.CreationDate,2022-11-08T16:17:15+09:00
; #@! TF.GenerationSoftware,Kicad,Pcbnew,(6.0.8)
; #@! TF.FileFunction,Plated,1,2,PTH
FMAT,2
METRIC
; #@! TA.AperFunction,Plated,PTH,ViaDrill
T1C0.600
; #@! TA.AperFunction,Plated,PTH,ViaDrill
T2C0.700
; #@! TA.AperFunction,Plated,PTH,ComponentDrill
T3C1.000
; #@! TA.AperFunction,Plated,PTH,ComponentDrill
T4C1.300
%
G90
G05
T1
X99.0Y-146.0
X100.0Y-133.0
X101.0Y-172.0
X113.0Y-130.0
X115.0Y-130.0
X124.0Y-116.0
X129.0Y-116.0
X169.97Y-122.97
X170.0Y-131.0
X179.0Y-121.0
X193.0Y-123.0
X211.0Y-91.0
X215.0Y-87.0
T2
X105.0Y-172.0
X110.0Y-172.0
X122.0Y-119.0
X123.0Y-113.0
X125.065Y-118.935
X136.0Y-168.0
X141.0Y-140.0
X142.0Y-130.0
X142.0Y-136.0
X147.0Y-114.0
X162.0Y-146.0
X199.0Y-101.0
X215.0Y-93.0
T3
X103.805Y-112.91
X103.805Y-115.45
X103.805Y-117.99
X103.805Y-120.53
X103.805Y-123.07
X103.805Y-125.61
X103.805Y-128.15
X103.805Y-130.69
X103.805Y-133.23
X103.805Y-135.77
X103.805Y-138.31
X103.805Y-140.85
X103.805Y-143.39
X103.805Y-145.93
X103.805Y-148.47
X103.805Y-151.01
X103.805Y-153.55
X103.805Y-156.09
X103.805Y-158.63
X103.805Y-161.17
X119.025Y-112.9
X119.025Y-115.44
X119.025Y-117.98
X119.025Y-120.52
X119.025Y-123.06
X119.025Y-125.6
X119.025Y-128.14
X119.025Y-130.68
X119.025Y-133.22
X119.025Y-135.76
X119.025Y-138.3
X119.025Y-140.84
X119.025Y-143.38
X119.025Y-145.92
X119.025Y-148.46
X119.025Y-151.0
X119.025Y-153.54
X119.025Y-156.08
X119.025Y-158.62
X119.025Y-161.16
X125.87Y-96.73
X125.87Y-99.27
X128.0Y-160.0
X128.41Y-96.73
X128.41Y-99.27
X130.38Y-109.0
X130.54Y-160.0
X130.95Y-96.73
X130.95Y-99.27
X132.92Y-109.0
X133.08Y-160.0
X133.49Y-96.73
X133.49Y-99.27
X135.46Y-109.0
X135.62Y-160.0
X136.03Y-96.73
X136.03Y-99.27
X138.0Y-109.0
X138.16Y-160.0
X138.57Y-96.73
X138.57Y-99.27
X139.0Y-120.0
X139.0Y-122.54
X139.0Y-125.08
X139.0Y-127.62
X139.0Y-130.16
X139.0Y-132.7
X139.0Y-135.24
X139.0Y-137.78
X140.7Y-160.0
X141.11Y-96.73
X141.11Y-99.27
X143.65Y-96.73
X143.65Y-99.27
X146.19Y-96.73
X146.19Y-99.27
X148.73Y-96.73
X148.73Y-99.27
X149.0Y-147.0
X149.0Y-149.54
X149.0Y-152.08
X149.0Y-154.62
X149.0Y-157.16
X149.0Y-159.7
X151.27Y-96.73
X151.27Y-99.27
X153.81Y-96.73
X153.81Y-99.27
X156.35Y-96.73
X156.35Y-99.27
X158.89Y-96.73
X158.89Y-99.27
X161.43Y-96.73
X161.43Y-99.27
X163.97Y-96.73
X163.97Y-99.27
X166.51Y-96.73
X166.51Y-99.27
X169.05Y-96.73
X169.05Y-99.27
X171.59Y-96.73
X171.59Y-99.27
X174.13Y-96.73
X174.13Y-99.27
X193.0Y-93.0
X193.0Y-95.54
X193.0Y-98.08
X206.975Y-92.92
X206.975Y-95.46
X206.975Y-98.0
X219.0Y-93.0
X219.0Y-95.54
X219.0Y-98.08
X228.925Y-92.955
X228.925Y-95.495
X228.925Y-98.035
X240.475Y-57.095
X240.475Y-59.635
X240.475Y-62.175
X240.475Y-64.715
X240.475Y-67.255
X240.475Y-69.795
X240.475Y-72.335
X240.475Y-74.875
T4
X224.0Y-119.54
X224.0Y-124.54
X224.0Y-136.54
X224.0Y-141.54
X224.0Y-152.54
X224.0Y-157.54
X224.0Y-169.54
X224.0Y-174.54
X238.0Y-112.08
X238.0Y-117.08
X238.0Y-126.08
X238.0Y-131.08
X238.0Y-141.08
X238.0Y-146.08
X238.0Y-155.08
X238.0Y-160.08
X238.0Y-169.54
X238.0Y-174.54
T0
M30
