G04 #@! TF.GenerationSoftware,KiCad,Pcbnew,(6.0.8)*
G04 #@! TF.CreationDate,2022-11-08T16:17:13+09:00*
G04 #@! TF.ProjectId,Aquarium,41717561-7269-4756-9d2e-6b696361645f,1.0*
G04 #@! TF.SameCoordinates,Original*
G04 #@! TF.FileFunction,Legend,Top*
G04 #@! TF.FilePolarity,Positive*
%FSLAX46Y46*%
G04 Gerber Fmt 4.6, Leading zero omitted, Abs format (unit mm)*
G04 Created by KiCad (PCBNEW (6.0.8)) date 2022-11-08 16:17:13*
%MOMM*%
%LPD*%
G01*
G04 APERTURE LIST*
%ADD10C,0.100000*%
%ADD11C,0.150000*%
%ADD12C,0.120000*%
%ADD13R,2.600000X2.600000*%
%ADD14C,2.600000*%
%ADD15R,1.700000X1.700000*%
%ADD16O,1.700000X1.700000*%
%ADD17C,3.200000*%
%ADD18C,2.700000*%
G04 APERTURE END LIST*
D10*
X117500000Y-98500000D02*
G75*
G03*
X120500000Y-101500000I3000000J0D01*
G01*
X117500000Y-48500000D02*
X117500000Y-98500000D01*
X182500000Y-98500000D02*
X182500000Y-82500000D01*
X182500000Y-82500000D02*
X182500000Y-64500000D01*
X182500000Y-48500000D02*
G75*
G03*
X179500000Y-45500000I-3000000J0D01*
G01*
X179500000Y-45500000D02*
X120500000Y-45500000D01*
X120500000Y-45500000D02*
G75*
G03*
X117500000Y-48500000I0J-3000000D01*
G01*
X179500000Y-101500000D02*
G75*
G03*
X182500000Y-98500000I0J3000000D01*
G01*
X182500000Y-64500000D02*
X182500000Y-48500000D01*
X120500000Y-101500000D02*
X179500000Y-101500000D01*
D11*
X222547619Y-93809523D02*
X222547619Y-93333333D01*
X222071428Y-93285714D01*
X222119047Y-93333333D01*
X222166666Y-93428571D01*
X222166666Y-93666666D01*
X222119047Y-93761904D01*
X222071428Y-93809523D01*
X221976190Y-93857142D01*
X221738095Y-93857142D01*
X221642857Y-93809523D01*
X221595238Y-93761904D01*
X221547619Y-93666666D01*
X221547619Y-93428571D01*
X221595238Y-93333333D01*
X221642857Y-93285714D01*
X222547619Y-94142857D02*
X221547619Y-94476190D01*
X222547619Y-94809523D01*
X221547619Y-95142857D02*
X222547619Y-95142857D01*
X222547619Y-95380952D01*
X222500000Y-95523809D01*
X222404761Y-95619047D01*
X222309523Y-95666666D01*
X222119047Y-95714285D01*
X221976190Y-95714285D01*
X221785714Y-95666666D01*
X221690476Y-95619047D01*
X221595238Y-95523809D01*
X221547619Y-95380952D01*
X221547619Y-95142857D01*
X221642857Y-96714285D02*
X221595238Y-96666666D01*
X221547619Y-96523809D01*
X221547619Y-96428571D01*
X221595238Y-96285714D01*
X221690476Y-96190476D01*
X221785714Y-96142857D01*
X221976190Y-96095238D01*
X222119047Y-96095238D01*
X222309523Y-96142857D01*
X222404761Y-96190476D01*
X222500000Y-96285714D01*
X222547619Y-96428571D01*
X222547619Y-96523809D01*
X222500000Y-96666666D01*
X222452380Y-96714285D01*
X135261904Y-105500000D02*
X135166666Y-105452380D01*
X135023809Y-105452380D01*
X134880952Y-105500000D01*
X134785714Y-105595238D01*
X134738095Y-105690476D01*
X134690476Y-105880952D01*
X134690476Y-106023809D01*
X134738095Y-106214285D01*
X134785714Y-106309523D01*
X134880952Y-106404761D01*
X135023809Y-106452380D01*
X135119047Y-106452380D01*
X135261904Y-106404761D01*
X135309523Y-106357142D01*
X135309523Y-106023809D01*
X135119047Y-106023809D01*
X195927380Y-95977380D02*
X195927380Y-94977380D01*
X197117857Y-94929761D02*
X196260714Y-96215476D01*
X197641666Y-94977380D02*
X197832142Y-94977380D01*
X197927380Y-95025000D01*
X198022619Y-95120238D01*
X198070238Y-95310714D01*
X198070238Y-95644047D01*
X198022619Y-95834523D01*
X197927380Y-95929761D01*
X197832142Y-95977380D01*
X197641666Y-95977380D01*
X197546428Y-95929761D01*
X197451190Y-95834523D01*
X197403571Y-95644047D01*
X197403571Y-95310714D01*
X197451190Y-95120238D01*
X197546428Y-95025000D01*
X197641666Y-94977380D01*
X234809523Y-72452380D02*
X234333333Y-72452380D01*
X234285714Y-72928571D01*
X234333333Y-72880952D01*
X234428571Y-72833333D01*
X234666666Y-72833333D01*
X234761904Y-72880952D01*
X234809523Y-72928571D01*
X234857142Y-73023809D01*
X234857142Y-73261904D01*
X234809523Y-73357142D01*
X234761904Y-73404761D01*
X234666666Y-73452380D01*
X234428571Y-73452380D01*
X234333333Y-73404761D01*
X234285714Y-73357142D01*
X235142857Y-72452380D02*
X235476190Y-73452380D01*
X235809523Y-72452380D01*
X236142857Y-73452380D02*
X236142857Y-72452380D01*
X236380952Y-72452380D01*
X236523809Y-72500000D01*
X236619047Y-72595238D01*
X236666666Y-72690476D01*
X236714285Y-72880952D01*
X236714285Y-73023809D01*
X236666666Y-73214285D01*
X236619047Y-73309523D01*
X236523809Y-73404761D01*
X236380952Y-73452380D01*
X236142857Y-73452380D01*
X237714285Y-73357142D02*
X237666666Y-73404761D01*
X237523809Y-73452380D01*
X237428571Y-73452380D01*
X237285714Y-73404761D01*
X237190476Y-73309523D01*
X237142857Y-73214285D01*
X237095238Y-73023809D01*
X237095238Y-72880952D01*
X237142857Y-72690476D01*
X237190476Y-72595238D01*
X237285714Y-72500000D01*
X237428571Y-72452380D01*
X237523809Y-72452380D01*
X237666666Y-72500000D01*
X237714285Y-72547619D01*
X209547619Y-93952380D02*
X210547619Y-93952380D01*
X210595238Y-95142857D02*
X209309523Y-94285714D01*
X210547619Y-95666666D02*
X210547619Y-95857142D01*
X210500000Y-95952380D01*
X210404761Y-96047619D01*
X210214285Y-96095238D01*
X209880952Y-96095238D01*
X209690476Y-96047619D01*
X209595238Y-95952380D01*
X209547619Y-95857142D01*
X209547619Y-95666666D01*
X209595238Y-95571428D01*
X209690476Y-95476190D01*
X209880952Y-95428571D01*
X210214285Y-95428571D01*
X210404761Y-95476190D01*
X210500000Y-95571428D01*
X210547619Y-95666666D01*
X132238095Y-105452380D02*
X132809523Y-105452380D01*
X132523809Y-106452380D02*
X132523809Y-105452380D01*
X133047619Y-105452380D02*
X133714285Y-106452380D01*
X133714285Y-105452380D02*
X133047619Y-106452380D01*
X196236904Y-98025000D02*
X196141666Y-97977380D01*
X195998809Y-97977380D01*
X195855952Y-98025000D01*
X195760714Y-98120238D01*
X195713095Y-98215476D01*
X195665476Y-98405952D01*
X195665476Y-98548809D01*
X195713095Y-98739285D01*
X195760714Y-98834523D01*
X195855952Y-98929761D01*
X195998809Y-98977380D01*
X196094047Y-98977380D01*
X196236904Y-98929761D01*
X196284523Y-98882142D01*
X196284523Y-98548809D01*
X196094047Y-98548809D01*
X210500000Y-92261904D02*
X210547619Y-92166666D01*
X210547619Y-92023809D01*
X210500000Y-91880952D01*
X210404761Y-91785714D01*
X210309523Y-91738095D01*
X210119047Y-91690476D01*
X209976190Y-91690476D01*
X209785714Y-91738095D01*
X209690476Y-91785714D01*
X209595238Y-91880952D01*
X209547619Y-92023809D01*
X209547619Y-92119047D01*
X209595238Y-92261904D01*
X209642857Y-92309523D01*
X209976190Y-92309523D01*
X209976190Y-92119047D01*
X222500000Y-92261904D02*
X222547619Y-92166666D01*
X222547619Y-92023809D01*
X222500000Y-91880952D01*
X222404761Y-91785714D01*
X222309523Y-91738095D01*
X222119047Y-91690476D01*
X221976190Y-91690476D01*
X221785714Y-91738095D01*
X221690476Y-91785714D01*
X221595238Y-91880952D01*
X221547619Y-92023809D01*
X221547619Y-92119047D01*
X221595238Y-92261904D01*
X221642857Y-92309523D01*
X221976190Y-92309523D01*
X221976190Y-92119047D01*
X195498809Y-92452380D02*
X196117857Y-92452380D01*
X195784523Y-92833333D01*
X195927380Y-92833333D01*
X196022619Y-92880952D01*
X196070238Y-92928571D01*
X196117857Y-93023809D01*
X196117857Y-93261904D01*
X196070238Y-93357142D01*
X196022619Y-93404761D01*
X195927380Y-93452380D01*
X195641666Y-93452380D01*
X195546428Y-93404761D01*
X195498809Y-93357142D01*
X196546428Y-93357142D02*
X196594047Y-93404761D01*
X196546428Y-93452380D01*
X196498809Y-93404761D01*
X196546428Y-93357142D01*
X196546428Y-93452380D01*
X196927380Y-92452380D02*
X197546428Y-92452380D01*
X197213095Y-92833333D01*
X197355952Y-92833333D01*
X197451190Y-92880952D01*
X197498809Y-92928571D01*
X197546428Y-93023809D01*
X197546428Y-93261904D01*
X197498809Y-93357142D01*
X197451190Y-93404761D01*
X197355952Y-93452380D01*
X197070238Y-93452380D01*
X196975000Y-93404761D01*
X196927380Y-93357142D01*
X197832142Y-92452380D02*
X198165476Y-93452380D01*
X198498809Y-92452380D01*
X198832142Y-93452380D02*
X198832142Y-92452380D01*
X199070238Y-92452380D01*
X199213095Y-92500000D01*
X199308333Y-92595238D01*
X199355952Y-92690476D01*
X199403571Y-92880952D01*
X199403571Y-93023809D01*
X199355952Y-93214285D01*
X199308333Y-93309523D01*
X199213095Y-93404761D01*
X199070238Y-93452380D01*
X198832142Y-93452380D01*
X200403571Y-93357142D02*
X200355952Y-93404761D01*
X200213095Y-93452380D01*
X200117857Y-93452380D01*
X199975000Y-93404761D01*
X199879761Y-93309523D01*
X199832142Y-93214285D01*
X199784523Y-93023809D01*
X199784523Y-92880952D01*
X199832142Y-92690476D01*
X199879761Y-92595238D01*
X199975000Y-92500000D01*
X200117857Y-92452380D01*
X200213095Y-92452380D01*
X200355952Y-92500000D01*
X200403571Y-92547619D01*
X221547619Y-97952380D02*
X222547619Y-97952380D01*
X222595238Y-99142857D02*
X221309523Y-98285714D01*
X222547619Y-99666666D02*
X222547619Y-99857142D01*
X222500000Y-99952380D01*
X222404761Y-100047619D01*
X222214285Y-100095238D01*
X221880952Y-100095238D01*
X221690476Y-100047619D01*
X221595238Y-99952380D01*
X221547619Y-99857142D01*
X221547619Y-99666666D01*
X221595238Y-99571428D01*
X221690476Y-99476190D01*
X221880952Y-99428571D01*
X222214285Y-99428571D01*
X222404761Y-99476190D01*
X222500000Y-99571428D01*
X222547619Y-99666666D01*
X137809523Y-105452380D02*
X137333333Y-105452380D01*
X137285714Y-105928571D01*
X137333333Y-105880952D01*
X137428571Y-105833333D01*
X137666666Y-105833333D01*
X137761904Y-105880952D01*
X137809523Y-105928571D01*
X137857142Y-106023809D01*
X137857142Y-106261904D01*
X137809523Y-106357142D01*
X137761904Y-106404761D01*
X137666666Y-106452380D01*
X137428571Y-106452380D01*
X137333333Y-106404761D01*
X137285714Y-106357142D01*
X138142857Y-105452380D02*
X138476190Y-106452380D01*
X138809523Y-105452380D01*
X139142857Y-106452380D02*
X139142857Y-105452380D01*
X139380952Y-105452380D01*
X139523809Y-105500000D01*
X139619047Y-105595238D01*
X139666666Y-105690476D01*
X139714285Y-105880952D01*
X139714285Y-106023809D01*
X139666666Y-106214285D01*
X139619047Y-106309523D01*
X139523809Y-106404761D01*
X139380952Y-106452380D01*
X139142857Y-106452380D01*
X140714285Y-106357142D02*
X140666666Y-106404761D01*
X140523809Y-106452380D01*
X140428571Y-106452380D01*
X140285714Y-106404761D01*
X140190476Y-106309523D01*
X140142857Y-106214285D01*
X140095238Y-106023809D01*
X140095238Y-105880952D01*
X140142857Y-105690476D01*
X140190476Y-105595238D01*
X140285714Y-105500000D01*
X140428571Y-105452380D01*
X140523809Y-105452380D01*
X140666666Y-105500000D01*
X140714285Y-105547619D01*
X129833333Y-106452380D02*
X129500000Y-105976190D01*
X129261904Y-106452380D02*
X129261904Y-105452380D01*
X129642857Y-105452380D01*
X129738095Y-105500000D01*
X129785714Y-105547619D01*
X129833333Y-105642857D01*
X129833333Y-105785714D01*
X129785714Y-105880952D01*
X129738095Y-105928571D01*
X129642857Y-105976190D01*
X129261904Y-105976190D01*
X130166666Y-105452380D02*
X130833333Y-106452380D01*
X130833333Y-105452380D02*
X130166666Y-106452380D01*
X231952380Y-95452380D02*
X231952380Y-94452380D01*
X233142857Y-94404761D02*
X232285714Y-95690476D01*
X233666666Y-94452380D02*
X233857142Y-94452380D01*
X233952380Y-94500000D01*
X234047619Y-94595238D01*
X234095238Y-94785714D01*
X234095238Y-95119047D01*
X234047619Y-95309523D01*
X233952380Y-95404761D01*
X233857142Y-95452380D01*
X233666666Y-95452380D01*
X233571428Y-95404761D01*
X233476190Y-95309523D01*
X233428571Y-95119047D01*
X233428571Y-94785714D01*
X233476190Y-94595238D01*
X233571428Y-94500000D01*
X233666666Y-94452380D01*
X231809523Y-97452380D02*
X231333333Y-97452380D01*
X231285714Y-97928571D01*
X231333333Y-97880952D01*
X231428571Y-97833333D01*
X231666666Y-97833333D01*
X231761904Y-97880952D01*
X231809523Y-97928571D01*
X231857142Y-98023809D01*
X231857142Y-98261904D01*
X231809523Y-98357142D01*
X231761904Y-98404761D01*
X231666666Y-98452380D01*
X231428571Y-98452380D01*
X231333333Y-98404761D01*
X231285714Y-98357142D01*
X232142857Y-97452380D02*
X232476190Y-98452380D01*
X232809523Y-97452380D01*
X233142857Y-98452380D02*
X233142857Y-97452380D01*
X233380952Y-97452380D01*
X233523809Y-97500000D01*
X233619047Y-97595238D01*
X233666666Y-97690476D01*
X233714285Y-97880952D01*
X233714285Y-98023809D01*
X233666666Y-98214285D01*
X233619047Y-98309523D01*
X233523809Y-98404761D01*
X233380952Y-98452380D01*
X233142857Y-98452380D01*
X234714285Y-98357142D02*
X234666666Y-98404761D01*
X234523809Y-98452380D01*
X234428571Y-98452380D01*
X234285714Y-98404761D01*
X234190476Y-98309523D01*
X234142857Y-98214285D01*
X234095238Y-98023809D01*
X234095238Y-97880952D01*
X234142857Y-97690476D01*
X234190476Y-97595238D01*
X234285714Y-97500000D01*
X234428571Y-97452380D01*
X234523809Y-97452380D01*
X234666666Y-97500000D01*
X234714285Y-97547619D01*
X232261904Y-91500000D02*
X232166666Y-91452380D01*
X232023809Y-91452380D01*
X231880952Y-91500000D01*
X231785714Y-91595238D01*
X231738095Y-91690476D01*
X231690476Y-91880952D01*
X231690476Y-92023809D01*
X231738095Y-92214285D01*
X231785714Y-92309523D01*
X231880952Y-92404761D01*
X232023809Y-92452380D01*
X232119047Y-92452380D01*
X232261904Y-92404761D01*
X232309523Y-92357142D01*
X232309523Y-92023809D01*
X232119047Y-92023809D01*
X151523809Y-119912380D02*
X152142857Y-119912380D01*
X151809523Y-120293333D01*
X151952380Y-120293333D01*
X152047619Y-120340952D01*
X152095238Y-120388571D01*
X152142857Y-120483809D01*
X152142857Y-120721904D01*
X152095238Y-120817142D01*
X152047619Y-120864761D01*
X151952380Y-120912380D01*
X151666666Y-120912380D01*
X151571428Y-120864761D01*
X151523809Y-120817142D01*
X152571428Y-120817142D02*
X152619047Y-120864761D01*
X152571428Y-120912380D01*
X152523809Y-120864761D01*
X152571428Y-120817142D01*
X152571428Y-120912380D01*
X152952380Y-119912380D02*
X153571428Y-119912380D01*
X153238095Y-120293333D01*
X153380952Y-120293333D01*
X153476190Y-120340952D01*
X153523809Y-120388571D01*
X153571428Y-120483809D01*
X153571428Y-120721904D01*
X153523809Y-120817142D01*
X153476190Y-120864761D01*
X153380952Y-120912380D01*
X153095238Y-120912380D01*
X153000000Y-120864761D01*
X152952380Y-120817142D01*
X153857142Y-119912380D02*
X154190476Y-120912380D01*
X154523809Y-119912380D01*
X154857142Y-120912380D02*
X154857142Y-119912380D01*
X155095238Y-119912380D01*
X155238095Y-119960000D01*
X155333333Y-120055238D01*
X155380952Y-120150476D01*
X155428571Y-120340952D01*
X155428571Y-120483809D01*
X155380952Y-120674285D01*
X155333333Y-120769523D01*
X155238095Y-120864761D01*
X155095238Y-120912380D01*
X154857142Y-120912380D01*
X156428571Y-120817142D02*
X156380952Y-120864761D01*
X156238095Y-120912380D01*
X156142857Y-120912380D01*
X156000000Y-120864761D01*
X155904761Y-120769523D01*
X155857142Y-120674285D01*
X155809523Y-120483809D01*
X155809523Y-120340952D01*
X155857142Y-120150476D01*
X155904761Y-120055238D01*
X156000000Y-119960000D01*
X156142857Y-119912380D01*
X156238095Y-119912380D01*
X156380952Y-119960000D01*
X156428571Y-120007619D01*
X210547619Y-97809523D02*
X210547619Y-97333333D01*
X210071428Y-97285714D01*
X210119047Y-97333333D01*
X210166666Y-97428571D01*
X210166666Y-97666666D01*
X210119047Y-97761904D01*
X210071428Y-97809523D01*
X209976190Y-97857142D01*
X209738095Y-97857142D01*
X209642857Y-97809523D01*
X209595238Y-97761904D01*
X209547619Y-97666666D01*
X209547619Y-97428571D01*
X209595238Y-97333333D01*
X209642857Y-97285714D01*
X210547619Y-98142857D02*
X209547619Y-98476190D01*
X210547619Y-98809523D01*
X209547619Y-99142857D02*
X210547619Y-99142857D01*
X210547619Y-99380952D01*
X210500000Y-99523809D01*
X210404761Y-99619047D01*
X210309523Y-99666666D01*
X210119047Y-99714285D01*
X209976190Y-99714285D01*
X209785714Y-99666666D01*
X209690476Y-99619047D01*
X209595238Y-99523809D01*
X209547619Y-99380952D01*
X209547619Y-99142857D01*
X209642857Y-100714285D02*
X209595238Y-100666666D01*
X209547619Y-100523809D01*
X209547619Y-100428571D01*
X209595238Y-100285714D01*
X209690476Y-100190476D01*
X209785714Y-100142857D01*
X209976190Y-100095238D01*
X210119047Y-100095238D01*
X210309523Y-100142857D01*
X210404761Y-100190476D01*
X210500000Y-100285714D01*
X210547619Y-100428571D01*
X210547619Y-100523809D01*
X210500000Y-100666666D01*
X210452380Y-100714285D01*
X217192380Y-172849523D02*
X217906666Y-172849523D01*
X218049523Y-172897142D01*
X218144761Y-172992380D01*
X218192380Y-173135238D01*
X218192380Y-173230476D01*
X217287619Y-172420952D02*
X217240000Y-172373333D01*
X217192380Y-172278095D01*
X217192380Y-172040000D01*
X217240000Y-171944761D01*
X217287619Y-171897142D01*
X217382857Y-171849523D01*
X217478095Y-171849523D01*
X217620952Y-171897142D01*
X218192380Y-172468571D01*
X218192380Y-171849523D01*
X217192380Y-171230476D02*
X217192380Y-171135238D01*
X217240000Y-171040000D01*
X217287619Y-170992380D01*
X217382857Y-170944761D01*
X217573333Y-170897142D01*
X217811428Y-170897142D01*
X218001904Y-170944761D01*
X218097142Y-170992380D01*
X218144761Y-171040000D01*
X218192380Y-171135238D01*
X218192380Y-171230476D01*
X218144761Y-171325714D01*
X218097142Y-171373333D01*
X218001904Y-171420952D01*
X217811428Y-171468571D01*
X217573333Y-171468571D01*
X217382857Y-171420952D01*
X217287619Y-171373333D01*
X217240000Y-171325714D01*
X217192380Y-171230476D01*
X230112380Y-173730476D02*
X229636190Y-174063809D01*
X230112380Y-174301904D02*
X229112380Y-174301904D01*
X229112380Y-173920952D01*
X229160000Y-173825714D01*
X229207619Y-173778095D01*
X229302857Y-173730476D01*
X229445714Y-173730476D01*
X229540952Y-173778095D01*
X229588571Y-173825714D01*
X229636190Y-173920952D01*
X229636190Y-174301904D01*
X230064761Y-172920952D02*
X230112380Y-173016190D01*
X230112380Y-173206666D01*
X230064761Y-173301904D01*
X229969523Y-173349523D01*
X229588571Y-173349523D01*
X229493333Y-173301904D01*
X229445714Y-173206666D01*
X229445714Y-173016190D01*
X229493333Y-172920952D01*
X229588571Y-172873333D01*
X229683809Y-172873333D01*
X229779047Y-173349523D01*
X230112380Y-172301904D02*
X230064761Y-172397142D01*
X229969523Y-172444761D01*
X229112380Y-172444761D01*
X230112380Y-171492380D02*
X229588571Y-171492380D01*
X229493333Y-171540000D01*
X229445714Y-171635238D01*
X229445714Y-171825714D01*
X229493333Y-171920952D01*
X230064761Y-171492380D02*
X230112380Y-171587619D01*
X230112380Y-171825714D01*
X230064761Y-171920952D01*
X229969523Y-171968571D01*
X229874285Y-171968571D01*
X229779047Y-171920952D01*
X229731428Y-171825714D01*
X229731428Y-171587619D01*
X229683809Y-171492380D01*
X229445714Y-171111428D02*
X230112380Y-170873333D01*
X229445714Y-170635238D02*
X230112380Y-170873333D01*
X230350476Y-170968571D01*
X230398095Y-171016190D01*
X230445714Y-171111428D01*
X229445714Y-169825714D02*
X230112380Y-169825714D01*
X229064761Y-170063809D02*
X229779047Y-170301904D01*
X229779047Y-169682857D01*
X217192380Y-139849523D02*
X217906666Y-139849523D01*
X218049523Y-139897142D01*
X218144761Y-139992380D01*
X218192380Y-140135238D01*
X218192380Y-140230476D01*
X218192380Y-138849523D02*
X218192380Y-139420952D01*
X218192380Y-139135238D02*
X217192380Y-139135238D01*
X217335238Y-139230476D01*
X217430476Y-139325714D01*
X217478095Y-139420952D01*
X218192380Y-138373333D02*
X218192380Y-138182857D01*
X218144761Y-138087619D01*
X218097142Y-138040000D01*
X217954285Y-137944761D01*
X217763809Y-137897142D01*
X217382857Y-137897142D01*
X217287619Y-137944761D01*
X217240000Y-137992380D01*
X217192380Y-138087619D01*
X217192380Y-138278095D01*
X217240000Y-138373333D01*
X217287619Y-138420952D01*
X217382857Y-138468571D01*
X217620952Y-138468571D01*
X217716190Y-138420952D01*
X217763809Y-138373333D01*
X217811428Y-138278095D01*
X217811428Y-138087619D01*
X217763809Y-137992380D01*
X217716190Y-137944761D01*
X217620952Y-137897142D01*
X230112380Y-140730476D02*
X229636190Y-141063809D01*
X230112380Y-141301904D02*
X229112380Y-141301904D01*
X229112380Y-140920952D01*
X229160000Y-140825714D01*
X229207619Y-140778095D01*
X229302857Y-140730476D01*
X229445714Y-140730476D01*
X229540952Y-140778095D01*
X229588571Y-140825714D01*
X229636190Y-140920952D01*
X229636190Y-141301904D01*
X230064761Y-139920952D02*
X230112380Y-140016190D01*
X230112380Y-140206666D01*
X230064761Y-140301904D01*
X229969523Y-140349523D01*
X229588571Y-140349523D01*
X229493333Y-140301904D01*
X229445714Y-140206666D01*
X229445714Y-140016190D01*
X229493333Y-139920952D01*
X229588571Y-139873333D01*
X229683809Y-139873333D01*
X229779047Y-140349523D01*
X230112380Y-139301904D02*
X230064761Y-139397142D01*
X229969523Y-139444761D01*
X229112380Y-139444761D01*
X230112380Y-138492380D02*
X229588571Y-138492380D01*
X229493333Y-138540000D01*
X229445714Y-138635238D01*
X229445714Y-138825714D01*
X229493333Y-138920952D01*
X230064761Y-138492380D02*
X230112380Y-138587619D01*
X230112380Y-138825714D01*
X230064761Y-138920952D01*
X229969523Y-138968571D01*
X229874285Y-138968571D01*
X229779047Y-138920952D01*
X229731428Y-138825714D01*
X229731428Y-138587619D01*
X229683809Y-138492380D01*
X229445714Y-138111428D02*
X230112380Y-137873333D01*
X229445714Y-137635238D02*
X230112380Y-137873333D01*
X230350476Y-137968571D01*
X230398095Y-138016190D01*
X230445714Y-138111428D01*
X229207619Y-137301904D02*
X229160000Y-137254285D01*
X229112380Y-137159047D01*
X229112380Y-136920952D01*
X229160000Y-136825714D01*
X229207619Y-136778095D01*
X229302857Y-136730476D01*
X229398095Y-136730476D01*
X229540952Y-136778095D01*
X230112380Y-137349523D01*
X230112380Y-136730476D01*
X217192380Y-155849523D02*
X217906666Y-155849523D01*
X218049523Y-155897142D01*
X218144761Y-155992380D01*
X218192380Y-156135238D01*
X218192380Y-156230476D01*
X218192380Y-154849523D02*
X218192380Y-155420952D01*
X218192380Y-155135238D02*
X217192380Y-155135238D01*
X217335238Y-155230476D01*
X217430476Y-155325714D01*
X217478095Y-155420952D01*
X217620952Y-154278095D02*
X217573333Y-154373333D01*
X217525714Y-154420952D01*
X217430476Y-154468571D01*
X217382857Y-154468571D01*
X217287619Y-154420952D01*
X217240000Y-154373333D01*
X217192380Y-154278095D01*
X217192380Y-154087619D01*
X217240000Y-153992380D01*
X217287619Y-153944761D01*
X217382857Y-153897142D01*
X217430476Y-153897142D01*
X217525714Y-153944761D01*
X217573333Y-153992380D01*
X217620952Y-154087619D01*
X217620952Y-154278095D01*
X217668571Y-154373333D01*
X217716190Y-154420952D01*
X217811428Y-154468571D01*
X218001904Y-154468571D01*
X218097142Y-154420952D01*
X218144761Y-154373333D01*
X218192380Y-154278095D01*
X218192380Y-154087619D01*
X218144761Y-153992380D01*
X218097142Y-153944761D01*
X218001904Y-153897142D01*
X217811428Y-153897142D01*
X217716190Y-153944761D01*
X217668571Y-153992380D01*
X217620952Y-154087619D01*
X230112380Y-156730476D02*
X229636190Y-157063809D01*
X230112380Y-157301904D02*
X229112380Y-157301904D01*
X229112380Y-156920952D01*
X229160000Y-156825714D01*
X229207619Y-156778095D01*
X229302857Y-156730476D01*
X229445714Y-156730476D01*
X229540952Y-156778095D01*
X229588571Y-156825714D01*
X229636190Y-156920952D01*
X229636190Y-157301904D01*
X230064761Y-155920952D02*
X230112380Y-156016190D01*
X230112380Y-156206666D01*
X230064761Y-156301904D01*
X229969523Y-156349523D01*
X229588571Y-156349523D01*
X229493333Y-156301904D01*
X229445714Y-156206666D01*
X229445714Y-156016190D01*
X229493333Y-155920952D01*
X229588571Y-155873333D01*
X229683809Y-155873333D01*
X229779047Y-156349523D01*
X230112380Y-155301904D02*
X230064761Y-155397142D01*
X229969523Y-155444761D01*
X229112380Y-155444761D01*
X230112380Y-154492380D02*
X229588571Y-154492380D01*
X229493333Y-154540000D01*
X229445714Y-154635238D01*
X229445714Y-154825714D01*
X229493333Y-154920952D01*
X230064761Y-154492380D02*
X230112380Y-154587619D01*
X230112380Y-154825714D01*
X230064761Y-154920952D01*
X229969523Y-154968571D01*
X229874285Y-154968571D01*
X229779047Y-154920952D01*
X229731428Y-154825714D01*
X229731428Y-154587619D01*
X229683809Y-154492380D01*
X229445714Y-154111428D02*
X230112380Y-153873333D01*
X229445714Y-153635238D02*
X230112380Y-153873333D01*
X230350476Y-153968571D01*
X230398095Y-154016190D01*
X230445714Y-154111428D01*
X229112380Y-153349523D02*
X229112380Y-152730476D01*
X229493333Y-153063809D01*
X229493333Y-152920952D01*
X229540952Y-152825714D01*
X229588571Y-152778095D01*
X229683809Y-152730476D01*
X229921904Y-152730476D01*
X230017142Y-152778095D01*
X230064761Y-152825714D01*
X230112380Y-152920952D01*
X230112380Y-153206666D01*
X230064761Y-153301904D01*
X230017142Y-153349523D01*
X217192380Y-122849523D02*
X217906666Y-122849523D01*
X218049523Y-122897142D01*
X218144761Y-122992380D01*
X218192380Y-123135238D01*
X218192380Y-123230476D01*
X218192380Y-121849523D02*
X218192380Y-122420952D01*
X218192380Y-122135238D02*
X217192380Y-122135238D01*
X217335238Y-122230476D01*
X217430476Y-122325714D01*
X217478095Y-122420952D01*
X217192380Y-121516190D02*
X217192380Y-120849523D01*
X218192380Y-121278095D01*
X230112380Y-123730476D02*
X229636190Y-124063809D01*
X230112380Y-124301904D02*
X229112380Y-124301904D01*
X229112380Y-123920952D01*
X229160000Y-123825714D01*
X229207619Y-123778095D01*
X229302857Y-123730476D01*
X229445714Y-123730476D01*
X229540952Y-123778095D01*
X229588571Y-123825714D01*
X229636190Y-123920952D01*
X229636190Y-124301904D01*
X230064761Y-122920952D02*
X230112380Y-123016190D01*
X230112380Y-123206666D01*
X230064761Y-123301904D01*
X229969523Y-123349523D01*
X229588571Y-123349523D01*
X229493333Y-123301904D01*
X229445714Y-123206666D01*
X229445714Y-123016190D01*
X229493333Y-122920952D01*
X229588571Y-122873333D01*
X229683809Y-122873333D01*
X229779047Y-123349523D01*
X230112380Y-122301904D02*
X230064761Y-122397142D01*
X229969523Y-122444761D01*
X229112380Y-122444761D01*
X230112380Y-121492380D02*
X229588571Y-121492380D01*
X229493333Y-121540000D01*
X229445714Y-121635238D01*
X229445714Y-121825714D01*
X229493333Y-121920952D01*
X230064761Y-121492380D02*
X230112380Y-121587619D01*
X230112380Y-121825714D01*
X230064761Y-121920952D01*
X229969523Y-121968571D01*
X229874285Y-121968571D01*
X229779047Y-121920952D01*
X229731428Y-121825714D01*
X229731428Y-121587619D01*
X229683809Y-121492380D01*
X229445714Y-121111428D02*
X230112380Y-120873333D01*
X229445714Y-120635238D02*
X230112380Y-120873333D01*
X230350476Y-120968571D01*
X230398095Y-121016190D01*
X230445714Y-121111428D01*
X230112380Y-119730476D02*
X230112380Y-120301904D01*
X230112380Y-120016190D02*
X229112380Y-120016190D01*
X229255238Y-120111428D01*
X229350476Y-120206666D01*
X229398095Y-120301904D01*
X231192380Y-172849523D02*
X231906666Y-172849523D01*
X232049523Y-172897142D01*
X232144761Y-172992380D01*
X232192380Y-173135238D01*
X232192380Y-173230476D01*
X232192380Y-171849523D02*
X232192380Y-172420952D01*
X232192380Y-172135238D02*
X231192380Y-172135238D01*
X231335238Y-172230476D01*
X231430476Y-172325714D01*
X231478095Y-172420952D01*
X231192380Y-170992380D02*
X231192380Y-171182857D01*
X231240000Y-171278095D01*
X231287619Y-171325714D01*
X231430476Y-171420952D01*
X231620952Y-171468571D01*
X232001904Y-171468571D01*
X232097142Y-171420952D01*
X232144761Y-171373333D01*
X232192380Y-171278095D01*
X232192380Y-171087619D01*
X232144761Y-170992380D01*
X232097142Y-170944761D01*
X232001904Y-170897142D01*
X231763809Y-170897142D01*
X231668571Y-170944761D01*
X231620952Y-170992380D01*
X231573333Y-171087619D01*
X231573333Y-171278095D01*
X231620952Y-171373333D01*
X231668571Y-171420952D01*
X231763809Y-171468571D01*
X243207619Y-174635238D02*
X243160000Y-174587619D01*
X243112380Y-174492380D01*
X243112380Y-174254285D01*
X243160000Y-174159047D01*
X243207619Y-174111428D01*
X243302857Y-174063809D01*
X243398095Y-174063809D01*
X243540952Y-174111428D01*
X244112380Y-174682857D01*
X244112380Y-174063809D01*
X243207619Y-173682857D02*
X243160000Y-173635238D01*
X243112380Y-173540000D01*
X243112380Y-173301904D01*
X243160000Y-173206666D01*
X243207619Y-173159047D01*
X243302857Y-173111428D01*
X243398095Y-173111428D01*
X243540952Y-173159047D01*
X244112380Y-173730476D01*
X244112380Y-173111428D01*
X243112380Y-172492380D02*
X243112380Y-172397142D01*
X243160000Y-172301904D01*
X243207619Y-172254285D01*
X243302857Y-172206666D01*
X243493333Y-172159047D01*
X243731428Y-172159047D01*
X243921904Y-172206666D01*
X244017142Y-172254285D01*
X244064761Y-172301904D01*
X244112380Y-172397142D01*
X244112380Y-172492380D01*
X244064761Y-172587619D01*
X244017142Y-172635238D01*
X243921904Y-172682857D01*
X243731428Y-172730476D01*
X243493333Y-172730476D01*
X243302857Y-172682857D01*
X243207619Y-172635238D01*
X243160000Y-172587619D01*
X243112380Y-172492380D01*
X243112380Y-171873333D02*
X244112380Y-171540000D01*
X243112380Y-171206666D01*
X243826666Y-170920952D02*
X243826666Y-170444761D01*
X244112380Y-171016190D02*
X243112380Y-170682857D01*
X244112380Y-170349523D01*
X244017142Y-169444761D02*
X244064761Y-169492380D01*
X244112380Y-169635238D01*
X244112380Y-169730476D01*
X244064761Y-169873333D01*
X243969523Y-169968571D01*
X243874285Y-170016190D01*
X243683809Y-170063809D01*
X243540952Y-170063809D01*
X243350476Y-170016190D01*
X243255238Y-169968571D01*
X243160000Y-169873333D01*
X243112380Y-169730476D01*
X243112380Y-169635238D01*
X243160000Y-169492380D01*
X243207619Y-169444761D01*
X231192380Y-158389523D02*
X231906666Y-158389523D01*
X232049523Y-158437142D01*
X232144761Y-158532380D01*
X232192380Y-158675238D01*
X232192380Y-158770476D01*
X232192380Y-157389523D02*
X232192380Y-157960952D01*
X232192380Y-157675238D02*
X231192380Y-157675238D01*
X231335238Y-157770476D01*
X231430476Y-157865714D01*
X231478095Y-157960952D01*
X231192380Y-156484761D02*
X231192380Y-156960952D01*
X231668571Y-157008571D01*
X231620952Y-156960952D01*
X231573333Y-156865714D01*
X231573333Y-156627619D01*
X231620952Y-156532380D01*
X231668571Y-156484761D01*
X231763809Y-156437142D01*
X232001904Y-156437142D01*
X232097142Y-156484761D01*
X232144761Y-156532380D01*
X232192380Y-156627619D01*
X232192380Y-156865714D01*
X232144761Y-156960952D01*
X232097142Y-157008571D01*
X244112380Y-161080000D02*
X243636190Y-161413333D01*
X244112380Y-161651428D02*
X243112380Y-161651428D01*
X243112380Y-161270476D01*
X243160000Y-161175238D01*
X243207619Y-161127619D01*
X243302857Y-161080000D01*
X243445714Y-161080000D01*
X243540952Y-161127619D01*
X243588571Y-161175238D01*
X243636190Y-161270476D01*
X243636190Y-161651428D01*
X244064761Y-160270476D02*
X244112380Y-160365714D01*
X244112380Y-160556190D01*
X244064761Y-160651428D01*
X243969523Y-160699047D01*
X243588571Y-160699047D01*
X243493333Y-160651428D01*
X243445714Y-160556190D01*
X243445714Y-160365714D01*
X243493333Y-160270476D01*
X243588571Y-160222857D01*
X243683809Y-160222857D01*
X243779047Y-160699047D01*
X244112380Y-159651428D02*
X244064761Y-159746666D01*
X243969523Y-159794285D01*
X243112380Y-159794285D01*
X244112380Y-158841904D02*
X243588571Y-158841904D01*
X243493333Y-158889523D01*
X243445714Y-158984761D01*
X243445714Y-159175238D01*
X243493333Y-159270476D01*
X244064761Y-158841904D02*
X244112380Y-158937142D01*
X244112380Y-159175238D01*
X244064761Y-159270476D01*
X243969523Y-159318095D01*
X243874285Y-159318095D01*
X243779047Y-159270476D01*
X243731428Y-159175238D01*
X243731428Y-158937142D01*
X243683809Y-158841904D01*
X243445714Y-158460952D02*
X244112380Y-158222857D01*
X243445714Y-157984761D02*
X244112380Y-158222857D01*
X244350476Y-158318095D01*
X244398095Y-158365714D01*
X244445714Y-158460952D01*
X243445714Y-157175238D02*
X244112380Y-157175238D01*
X243064761Y-157413333D02*
X243779047Y-157651428D01*
X243779047Y-157032380D01*
X244207619Y-156889523D02*
X244207619Y-156127619D01*
X243112380Y-155699047D02*
X243112380Y-155508571D01*
X243160000Y-155413333D01*
X243255238Y-155318095D01*
X243445714Y-155270476D01*
X243779047Y-155270476D01*
X243969523Y-155318095D01*
X244064761Y-155413333D01*
X244112380Y-155508571D01*
X244112380Y-155699047D01*
X244064761Y-155794285D01*
X243969523Y-155889523D01*
X243779047Y-155937142D01*
X243445714Y-155937142D01*
X243255238Y-155889523D01*
X243160000Y-155794285D01*
X243112380Y-155699047D01*
X243112380Y-154841904D02*
X243921904Y-154841904D01*
X244017142Y-154794285D01*
X244064761Y-154746666D01*
X244112380Y-154651428D01*
X244112380Y-154460952D01*
X244064761Y-154365714D01*
X244017142Y-154318095D01*
X243921904Y-154270476D01*
X243112380Y-154270476D01*
X243112380Y-153937142D02*
X243112380Y-153365714D01*
X244112380Y-153651428D02*
X243112380Y-153651428D01*
X231192380Y-144389523D02*
X231906666Y-144389523D01*
X232049523Y-144437142D01*
X232144761Y-144532380D01*
X232192380Y-144675238D01*
X232192380Y-144770476D01*
X232192380Y-143389523D02*
X232192380Y-143960952D01*
X232192380Y-143675238D02*
X231192380Y-143675238D01*
X231335238Y-143770476D01*
X231430476Y-143865714D01*
X231478095Y-143960952D01*
X231525714Y-142532380D02*
X232192380Y-142532380D01*
X231144761Y-142770476D02*
X231859047Y-143008571D01*
X231859047Y-142389523D01*
X244112380Y-147080000D02*
X243636190Y-147413333D01*
X244112380Y-147651428D02*
X243112380Y-147651428D01*
X243112380Y-147270476D01*
X243160000Y-147175238D01*
X243207619Y-147127619D01*
X243302857Y-147080000D01*
X243445714Y-147080000D01*
X243540952Y-147127619D01*
X243588571Y-147175238D01*
X243636190Y-147270476D01*
X243636190Y-147651428D01*
X244064761Y-146270476D02*
X244112380Y-146365714D01*
X244112380Y-146556190D01*
X244064761Y-146651428D01*
X243969523Y-146699047D01*
X243588571Y-146699047D01*
X243493333Y-146651428D01*
X243445714Y-146556190D01*
X243445714Y-146365714D01*
X243493333Y-146270476D01*
X243588571Y-146222857D01*
X243683809Y-146222857D01*
X243779047Y-146699047D01*
X244112380Y-145651428D02*
X244064761Y-145746666D01*
X243969523Y-145794285D01*
X243112380Y-145794285D01*
X244112380Y-144841904D02*
X243588571Y-144841904D01*
X243493333Y-144889523D01*
X243445714Y-144984761D01*
X243445714Y-145175238D01*
X243493333Y-145270476D01*
X244064761Y-144841904D02*
X244112380Y-144937142D01*
X244112380Y-145175238D01*
X244064761Y-145270476D01*
X243969523Y-145318095D01*
X243874285Y-145318095D01*
X243779047Y-145270476D01*
X243731428Y-145175238D01*
X243731428Y-144937142D01*
X243683809Y-144841904D01*
X243445714Y-144460952D02*
X244112380Y-144222857D01*
X243445714Y-143984761D02*
X244112380Y-144222857D01*
X244350476Y-144318095D01*
X244398095Y-144365714D01*
X244445714Y-144460952D01*
X243112380Y-143699047D02*
X243112380Y-143080000D01*
X243493333Y-143413333D01*
X243493333Y-143270476D01*
X243540952Y-143175238D01*
X243588571Y-143127619D01*
X243683809Y-143080000D01*
X243921904Y-143080000D01*
X244017142Y-143127619D01*
X244064761Y-143175238D01*
X244112380Y-143270476D01*
X244112380Y-143556190D01*
X244064761Y-143651428D01*
X244017142Y-143699047D01*
X244207619Y-142889523D02*
X244207619Y-142127619D01*
X243112380Y-141699047D02*
X243112380Y-141508571D01*
X243160000Y-141413333D01*
X243255238Y-141318095D01*
X243445714Y-141270476D01*
X243779047Y-141270476D01*
X243969523Y-141318095D01*
X244064761Y-141413333D01*
X244112380Y-141508571D01*
X244112380Y-141699047D01*
X244064761Y-141794285D01*
X243969523Y-141889523D01*
X243779047Y-141937142D01*
X243445714Y-141937142D01*
X243255238Y-141889523D01*
X243160000Y-141794285D01*
X243112380Y-141699047D01*
X243112380Y-140841904D02*
X243921904Y-140841904D01*
X244017142Y-140794285D01*
X244064761Y-140746666D01*
X244112380Y-140651428D01*
X244112380Y-140460952D01*
X244064761Y-140365714D01*
X244017142Y-140318095D01*
X243921904Y-140270476D01*
X243112380Y-140270476D01*
X243112380Y-139937142D02*
X243112380Y-139365714D01*
X244112380Y-139651428D02*
X243112380Y-139651428D01*
X231192380Y-129389523D02*
X231906666Y-129389523D01*
X232049523Y-129437142D01*
X232144761Y-129532380D01*
X232192380Y-129675238D01*
X232192380Y-129770476D01*
X232192380Y-128389523D02*
X232192380Y-128960952D01*
X232192380Y-128675238D02*
X231192380Y-128675238D01*
X231335238Y-128770476D01*
X231430476Y-128865714D01*
X231478095Y-128960952D01*
X231192380Y-128056190D02*
X231192380Y-127437142D01*
X231573333Y-127770476D01*
X231573333Y-127627619D01*
X231620952Y-127532380D01*
X231668571Y-127484761D01*
X231763809Y-127437142D01*
X232001904Y-127437142D01*
X232097142Y-127484761D01*
X232144761Y-127532380D01*
X232192380Y-127627619D01*
X232192380Y-127913333D01*
X232144761Y-128008571D01*
X232097142Y-128056190D01*
X244112380Y-132080000D02*
X243636190Y-132413333D01*
X244112380Y-132651428D02*
X243112380Y-132651428D01*
X243112380Y-132270476D01*
X243160000Y-132175238D01*
X243207619Y-132127619D01*
X243302857Y-132080000D01*
X243445714Y-132080000D01*
X243540952Y-132127619D01*
X243588571Y-132175238D01*
X243636190Y-132270476D01*
X243636190Y-132651428D01*
X244064761Y-131270476D02*
X244112380Y-131365714D01*
X244112380Y-131556190D01*
X244064761Y-131651428D01*
X243969523Y-131699047D01*
X243588571Y-131699047D01*
X243493333Y-131651428D01*
X243445714Y-131556190D01*
X243445714Y-131365714D01*
X243493333Y-131270476D01*
X243588571Y-131222857D01*
X243683809Y-131222857D01*
X243779047Y-131699047D01*
X244112380Y-130651428D02*
X244064761Y-130746666D01*
X243969523Y-130794285D01*
X243112380Y-130794285D01*
X244112380Y-129841904D02*
X243588571Y-129841904D01*
X243493333Y-129889523D01*
X243445714Y-129984761D01*
X243445714Y-130175238D01*
X243493333Y-130270476D01*
X244064761Y-129841904D02*
X244112380Y-129937142D01*
X244112380Y-130175238D01*
X244064761Y-130270476D01*
X243969523Y-130318095D01*
X243874285Y-130318095D01*
X243779047Y-130270476D01*
X243731428Y-130175238D01*
X243731428Y-129937142D01*
X243683809Y-129841904D01*
X243445714Y-129460952D02*
X244112380Y-129222857D01*
X243445714Y-128984761D02*
X244112380Y-129222857D01*
X244350476Y-129318095D01*
X244398095Y-129365714D01*
X244445714Y-129460952D01*
X243207619Y-128651428D02*
X243160000Y-128603809D01*
X243112380Y-128508571D01*
X243112380Y-128270476D01*
X243160000Y-128175238D01*
X243207619Y-128127619D01*
X243302857Y-128080000D01*
X243398095Y-128080000D01*
X243540952Y-128127619D01*
X244112380Y-128699047D01*
X244112380Y-128080000D01*
X244207619Y-127889523D02*
X244207619Y-127127619D01*
X243112380Y-126699047D02*
X243112380Y-126508571D01*
X243160000Y-126413333D01*
X243255238Y-126318095D01*
X243445714Y-126270476D01*
X243779047Y-126270476D01*
X243969523Y-126318095D01*
X244064761Y-126413333D01*
X244112380Y-126508571D01*
X244112380Y-126699047D01*
X244064761Y-126794285D01*
X243969523Y-126889523D01*
X243779047Y-126937142D01*
X243445714Y-126937142D01*
X243255238Y-126889523D01*
X243160000Y-126794285D01*
X243112380Y-126699047D01*
X243112380Y-125841904D02*
X243921904Y-125841904D01*
X244017142Y-125794285D01*
X244064761Y-125746666D01*
X244112380Y-125651428D01*
X244112380Y-125460952D01*
X244064761Y-125365714D01*
X244017142Y-125318095D01*
X243921904Y-125270476D01*
X243112380Y-125270476D01*
X243112380Y-124937142D02*
X243112380Y-124365714D01*
X244112380Y-124651428D02*
X243112380Y-124651428D01*
X231192380Y-115389523D02*
X231906666Y-115389523D01*
X232049523Y-115437142D01*
X232144761Y-115532380D01*
X232192380Y-115675238D01*
X232192380Y-115770476D01*
X232192380Y-114389523D02*
X232192380Y-114960952D01*
X232192380Y-114675238D02*
X231192380Y-114675238D01*
X231335238Y-114770476D01*
X231430476Y-114865714D01*
X231478095Y-114960952D01*
X231287619Y-114008571D02*
X231240000Y-113960952D01*
X231192380Y-113865714D01*
X231192380Y-113627619D01*
X231240000Y-113532380D01*
X231287619Y-113484761D01*
X231382857Y-113437142D01*
X231478095Y-113437142D01*
X231620952Y-113484761D01*
X232192380Y-114056190D01*
X232192380Y-113437142D01*
X244112380Y-118080000D02*
X243636190Y-118413333D01*
X244112380Y-118651428D02*
X243112380Y-118651428D01*
X243112380Y-118270476D01*
X243160000Y-118175238D01*
X243207619Y-118127619D01*
X243302857Y-118080000D01*
X243445714Y-118080000D01*
X243540952Y-118127619D01*
X243588571Y-118175238D01*
X243636190Y-118270476D01*
X243636190Y-118651428D01*
X244064761Y-117270476D02*
X244112380Y-117365714D01*
X244112380Y-117556190D01*
X244064761Y-117651428D01*
X243969523Y-117699047D01*
X243588571Y-117699047D01*
X243493333Y-117651428D01*
X243445714Y-117556190D01*
X243445714Y-117365714D01*
X243493333Y-117270476D01*
X243588571Y-117222857D01*
X243683809Y-117222857D01*
X243779047Y-117699047D01*
X244112380Y-116651428D02*
X244064761Y-116746666D01*
X243969523Y-116794285D01*
X243112380Y-116794285D01*
X244112380Y-115841904D02*
X243588571Y-115841904D01*
X243493333Y-115889523D01*
X243445714Y-115984761D01*
X243445714Y-116175238D01*
X243493333Y-116270476D01*
X244064761Y-115841904D02*
X244112380Y-115937142D01*
X244112380Y-116175238D01*
X244064761Y-116270476D01*
X243969523Y-116318095D01*
X243874285Y-116318095D01*
X243779047Y-116270476D01*
X243731428Y-116175238D01*
X243731428Y-115937142D01*
X243683809Y-115841904D01*
X243445714Y-115460952D02*
X244112380Y-115222857D01*
X243445714Y-114984761D02*
X244112380Y-115222857D01*
X244350476Y-115318095D01*
X244398095Y-115365714D01*
X244445714Y-115460952D01*
X244112380Y-114080000D02*
X244112380Y-114651428D01*
X244112380Y-114365714D02*
X243112380Y-114365714D01*
X243255238Y-114460952D01*
X243350476Y-114556190D01*
X243398095Y-114651428D01*
X244207619Y-113889523D02*
X244207619Y-113127619D01*
X243112380Y-112699047D02*
X243112380Y-112508571D01*
X243160000Y-112413333D01*
X243255238Y-112318095D01*
X243445714Y-112270476D01*
X243779047Y-112270476D01*
X243969523Y-112318095D01*
X244064761Y-112413333D01*
X244112380Y-112508571D01*
X244112380Y-112699047D01*
X244064761Y-112794285D01*
X243969523Y-112889523D01*
X243779047Y-112937142D01*
X243445714Y-112937142D01*
X243255238Y-112889523D01*
X243160000Y-112794285D01*
X243112380Y-112699047D01*
X243112380Y-111841904D02*
X243921904Y-111841904D01*
X244017142Y-111794285D01*
X244064761Y-111746666D01*
X244112380Y-111651428D01*
X244112380Y-111460952D01*
X244064761Y-111365714D01*
X244017142Y-111318095D01*
X243921904Y-111270476D01*
X243112380Y-111270476D01*
X243112380Y-110937142D02*
X243112380Y-110365714D01*
X244112380Y-110651428D02*
X243112380Y-110651428D01*
X173796666Y-93682380D02*
X173796666Y-94396666D01*
X173749047Y-94539523D01*
X173653809Y-94634761D01*
X173510952Y-94682380D01*
X173415714Y-94682380D01*
X174796666Y-94682380D02*
X174225238Y-94682380D01*
X174510952Y-94682380D02*
X174510952Y-93682380D01*
X174415714Y-93825238D01*
X174320476Y-93920476D01*
X174225238Y-93968095D01*
X102238095Y-39452380D02*
X102238095Y-38452380D01*
X102238095Y-38928571D02*
X102809523Y-38928571D01*
X102809523Y-39452380D02*
X102809523Y-38452380D01*
X103761904Y-38452380D02*
X103285714Y-38452380D01*
X103238095Y-38928571D01*
X103285714Y-38880952D01*
X103380952Y-38833333D01*
X103619047Y-38833333D01*
X103714285Y-38880952D01*
X103761904Y-38928571D01*
X103809523Y-39023809D01*
X103809523Y-39261904D01*
X103761904Y-39357142D01*
X103714285Y-39404761D01*
X103619047Y-39452380D01*
X103380952Y-39452380D01*
X103285714Y-39404761D01*
X103238095Y-39357142D01*
X192190476Y-89682380D02*
X192190476Y-90396666D01*
X192142857Y-90539523D01*
X192047619Y-90634761D01*
X191904761Y-90682380D01*
X191809523Y-90682380D01*
X193190476Y-90682380D02*
X192619047Y-90682380D01*
X192904761Y-90682380D02*
X192904761Y-89682380D01*
X192809523Y-89825238D01*
X192714285Y-89920476D01*
X192619047Y-89968095D01*
X194142857Y-90682380D02*
X193571428Y-90682380D01*
X193857142Y-90682380D02*
X193857142Y-89682380D01*
X193761904Y-89825238D01*
X193666666Y-89920476D01*
X193571428Y-89968095D01*
X189260714Y-100977380D02*
X189832142Y-100977380D01*
X189546428Y-101977380D02*
X189546428Y-100977380D01*
X190165476Y-101453571D02*
X190498809Y-101453571D01*
X190641666Y-101977380D02*
X190165476Y-101977380D01*
X190165476Y-100977380D01*
X190641666Y-100977380D01*
X191070238Y-101977380D02*
X191070238Y-100977380D01*
X191403571Y-101691666D01*
X191736904Y-100977380D01*
X191736904Y-101977380D01*
X192213095Y-101977380D02*
X192213095Y-100977380D01*
X192594047Y-100977380D01*
X192689285Y-101025000D01*
X192736904Y-101072619D01*
X192784523Y-101167857D01*
X192784523Y-101310714D01*
X192736904Y-101405952D01*
X192689285Y-101453571D01*
X192594047Y-101501190D01*
X192213095Y-101501190D01*
X193927380Y-101929761D02*
X194070238Y-101977380D01*
X194308333Y-101977380D01*
X194403571Y-101929761D01*
X194451190Y-101882142D01*
X194498809Y-101786904D01*
X194498809Y-101691666D01*
X194451190Y-101596428D01*
X194403571Y-101548809D01*
X194308333Y-101501190D01*
X194117857Y-101453571D01*
X194022619Y-101405952D01*
X193975000Y-101358333D01*
X193927380Y-101263095D01*
X193927380Y-101167857D01*
X193975000Y-101072619D01*
X194022619Y-101025000D01*
X194117857Y-100977380D01*
X194355952Y-100977380D01*
X194498809Y-101025000D01*
X195308333Y-101929761D02*
X195213095Y-101977380D01*
X195022619Y-101977380D01*
X194927380Y-101929761D01*
X194879761Y-101834523D01*
X194879761Y-101453571D01*
X194927380Y-101358333D01*
X195022619Y-101310714D01*
X195213095Y-101310714D01*
X195308333Y-101358333D01*
X195355952Y-101453571D01*
X195355952Y-101548809D01*
X194879761Y-101644047D01*
X195784523Y-101310714D02*
X195784523Y-101977380D01*
X195784523Y-101405952D02*
X195832142Y-101358333D01*
X195927380Y-101310714D01*
X196070238Y-101310714D01*
X196165476Y-101358333D01*
X196213095Y-101453571D01*
X196213095Y-101977380D01*
X196641666Y-101929761D02*
X196736904Y-101977380D01*
X196927380Y-101977380D01*
X197022619Y-101929761D01*
X197070238Y-101834523D01*
X197070238Y-101786904D01*
X197022619Y-101691666D01*
X196927380Y-101644047D01*
X196784523Y-101644047D01*
X196689285Y-101596428D01*
X196641666Y-101501190D01*
X196641666Y-101453571D01*
X196689285Y-101358333D01*
X196784523Y-101310714D01*
X196927380Y-101310714D01*
X197022619Y-101358333D01*
X197641666Y-101977380D02*
X197546428Y-101929761D01*
X197498809Y-101882142D01*
X197451190Y-101786904D01*
X197451190Y-101501190D01*
X197498809Y-101405952D01*
X197546428Y-101358333D01*
X197641666Y-101310714D01*
X197784523Y-101310714D01*
X197879761Y-101358333D01*
X197927380Y-101405952D01*
X197975000Y-101501190D01*
X197975000Y-101786904D01*
X197927380Y-101882142D01*
X197879761Y-101929761D01*
X197784523Y-101977380D01*
X197641666Y-101977380D01*
X198403571Y-101977380D02*
X198403571Y-101310714D01*
X198403571Y-101501190D02*
X198451190Y-101405952D01*
X198498809Y-101358333D01*
X198594047Y-101310714D01*
X198689285Y-101310714D01*
X238761904Y-84452380D02*
X238761904Y-83452380D01*
X238761904Y-83928571D02*
X239333333Y-83928571D01*
X239333333Y-84452380D02*
X239333333Y-83452380D01*
X240333333Y-84452380D02*
X239761904Y-84452380D01*
X240047619Y-84452380D02*
X240047619Y-83452380D01*
X239952380Y-83595238D01*
X239857142Y-83690476D01*
X239761904Y-83738095D01*
X240714285Y-83547619D02*
X240761904Y-83500000D01*
X240857142Y-83452380D01*
X241095238Y-83452380D01*
X241190476Y-83500000D01*
X241238095Y-83547619D01*
X241285714Y-83642857D01*
X241285714Y-83738095D01*
X241238095Y-83880952D01*
X240666666Y-84452380D01*
X241285714Y-84452380D01*
X238761904Y-48252380D02*
X238761904Y-47252380D01*
X238761904Y-47728571D02*
X239333333Y-47728571D01*
X239333333Y-48252380D02*
X239333333Y-47252380D01*
X240333333Y-48252380D02*
X239761904Y-48252380D01*
X240047619Y-48252380D02*
X240047619Y-47252380D01*
X239952380Y-47395238D01*
X239857142Y-47490476D01*
X239761904Y-47538095D01*
X240952380Y-47252380D02*
X241047619Y-47252380D01*
X241142857Y-47300000D01*
X241190476Y-47347619D01*
X241238095Y-47442857D01*
X241285714Y-47633333D01*
X241285714Y-47871428D01*
X241238095Y-48061904D01*
X241190476Y-48157142D01*
X241142857Y-48204761D01*
X241047619Y-48252380D01*
X240952380Y-48252380D01*
X240857142Y-48204761D01*
X240809523Y-48157142D01*
X240761904Y-48061904D01*
X240714285Y-47871428D01*
X240714285Y-47633333D01*
X240761904Y-47442857D01*
X240809523Y-47347619D01*
X240857142Y-47300000D01*
X240952380Y-47252380D01*
X235238095Y-40452380D02*
X235238095Y-39452380D01*
X235238095Y-39928571D02*
X235809523Y-39928571D01*
X235809523Y-40452380D02*
X235809523Y-39452380D01*
X236714285Y-39452380D02*
X236523809Y-39452380D01*
X236428571Y-39500000D01*
X236380952Y-39547619D01*
X236285714Y-39690476D01*
X236238095Y-39880952D01*
X236238095Y-40261904D01*
X236285714Y-40357142D01*
X236333333Y-40404761D01*
X236428571Y-40452380D01*
X236619047Y-40452380D01*
X236714285Y-40404761D01*
X236761904Y-40357142D01*
X236809523Y-40261904D01*
X236809523Y-40023809D01*
X236761904Y-39928571D01*
X236714285Y-39880952D01*
X236619047Y-39833333D01*
X236428571Y-39833333D01*
X236333333Y-39880952D01*
X236285714Y-39928571D01*
X236238095Y-40023809D01*
X148666666Y-143682380D02*
X148666666Y-144396666D01*
X148619047Y-144539523D01*
X148523809Y-144634761D01*
X148380952Y-144682380D01*
X148285714Y-144682380D01*
X149571428Y-143682380D02*
X149380952Y-143682380D01*
X149285714Y-143730000D01*
X149238095Y-143777619D01*
X149142857Y-143920476D01*
X149095238Y-144110952D01*
X149095238Y-144491904D01*
X149142857Y-144587142D01*
X149190476Y-144634761D01*
X149285714Y-144682380D01*
X149476190Y-144682380D01*
X149571428Y-144634761D01*
X149619047Y-144587142D01*
X149666666Y-144491904D01*
X149666666Y-144253809D01*
X149619047Y-144158571D01*
X149571428Y-144110952D01*
X149476190Y-144063333D01*
X149285714Y-144063333D01*
X149190476Y-144110952D01*
X149142857Y-144158571D01*
X149095238Y-144253809D01*
X145238095Y-162922380D02*
X144904761Y-162446190D01*
X144666666Y-162922380D02*
X144666666Y-161922380D01*
X145047619Y-161922380D01*
X145142857Y-161970000D01*
X145190476Y-162017619D01*
X145238095Y-162112857D01*
X145238095Y-162255714D01*
X145190476Y-162350952D01*
X145142857Y-162398571D01*
X145047619Y-162446190D01*
X144666666Y-162446190D01*
X146047619Y-162874761D02*
X145952380Y-162922380D01*
X145761904Y-162922380D01*
X145666666Y-162874761D01*
X145619047Y-162779523D01*
X145619047Y-162398571D01*
X145666666Y-162303333D01*
X145761904Y-162255714D01*
X145952380Y-162255714D01*
X146047619Y-162303333D01*
X146095238Y-162398571D01*
X146095238Y-162493809D01*
X145619047Y-162589047D01*
X146666666Y-162922380D02*
X146571428Y-162874761D01*
X146523809Y-162779523D01*
X146523809Y-161922380D01*
X147476190Y-162922380D02*
X147476190Y-162398571D01*
X147428571Y-162303333D01*
X147333333Y-162255714D01*
X147142857Y-162255714D01*
X147047619Y-162303333D01*
X147476190Y-162874761D02*
X147380952Y-162922380D01*
X147142857Y-162922380D01*
X147047619Y-162874761D01*
X147000000Y-162779523D01*
X147000000Y-162684285D01*
X147047619Y-162589047D01*
X147142857Y-162541428D01*
X147380952Y-162541428D01*
X147476190Y-162493809D01*
X147857142Y-162255714D02*
X148095238Y-162922380D01*
X148333333Y-162255714D02*
X148095238Y-162922380D01*
X148000000Y-163160476D01*
X147952380Y-163208095D01*
X147857142Y-163255714D01*
X149809523Y-162398571D02*
X149952380Y-162446190D01*
X150000000Y-162493809D01*
X150047619Y-162589047D01*
X150047619Y-162731904D01*
X150000000Y-162827142D01*
X149952380Y-162874761D01*
X149857142Y-162922380D01*
X149476190Y-162922380D01*
X149476190Y-161922380D01*
X149809523Y-161922380D01*
X149904761Y-161970000D01*
X149952380Y-162017619D01*
X150000000Y-162112857D01*
X150000000Y-162208095D01*
X149952380Y-162303333D01*
X149904761Y-162350952D01*
X149809523Y-162398571D01*
X149476190Y-162398571D01*
X150619047Y-162922380D02*
X150523809Y-162874761D01*
X150476190Y-162827142D01*
X150428571Y-162731904D01*
X150428571Y-162446190D01*
X150476190Y-162350952D01*
X150523809Y-162303333D01*
X150619047Y-162255714D01*
X150761904Y-162255714D01*
X150857142Y-162303333D01*
X150904761Y-162350952D01*
X150952380Y-162446190D01*
X150952380Y-162731904D01*
X150904761Y-162827142D01*
X150857142Y-162874761D01*
X150761904Y-162922380D01*
X150619047Y-162922380D01*
X151809523Y-162922380D02*
X151809523Y-162398571D01*
X151761904Y-162303333D01*
X151666666Y-162255714D01*
X151476190Y-162255714D01*
X151380952Y-162303333D01*
X151809523Y-162874761D02*
X151714285Y-162922380D01*
X151476190Y-162922380D01*
X151380952Y-162874761D01*
X151333333Y-162779523D01*
X151333333Y-162684285D01*
X151380952Y-162589047D01*
X151476190Y-162541428D01*
X151714285Y-162541428D01*
X151809523Y-162493809D01*
X152285714Y-162922380D02*
X152285714Y-162255714D01*
X152285714Y-162446190D02*
X152333333Y-162350952D01*
X152380952Y-162303333D01*
X152476190Y-162255714D01*
X152571428Y-162255714D01*
X153333333Y-162922380D02*
X153333333Y-161922380D01*
X153333333Y-162874761D02*
X153238095Y-162922380D01*
X153047619Y-162922380D01*
X152952380Y-162874761D01*
X152904761Y-162827142D01*
X152857142Y-162731904D01*
X152857142Y-162446190D01*
X152904761Y-162350952D01*
X152952380Y-162303333D01*
X153047619Y-162255714D01*
X153238095Y-162255714D01*
X153333333Y-162303333D01*
X228591666Y-89452380D02*
X228591666Y-90166666D01*
X228544047Y-90309523D01*
X228448809Y-90404761D01*
X228305952Y-90452380D01*
X228210714Y-90452380D01*
X229020238Y-89547619D02*
X229067857Y-89500000D01*
X229163095Y-89452380D01*
X229401190Y-89452380D01*
X229496428Y-89500000D01*
X229544047Y-89547619D01*
X229591666Y-89642857D01*
X229591666Y-89738095D01*
X229544047Y-89880952D01*
X228972619Y-90452380D01*
X229591666Y-90452380D01*
X226071428Y-101452380D02*
X226071428Y-102261904D01*
X226119047Y-102357142D01*
X226166666Y-102404761D01*
X226261904Y-102452380D01*
X226452380Y-102452380D01*
X226547619Y-102404761D01*
X226595238Y-102357142D01*
X226642857Y-102261904D01*
X226642857Y-101452380D01*
X227261904Y-102452380D02*
X227166666Y-102404761D01*
X227119047Y-102309523D01*
X227119047Y-101452380D01*
X227500000Y-101785714D02*
X227880952Y-101785714D01*
X227642857Y-101452380D02*
X227642857Y-102309523D01*
X227690476Y-102404761D01*
X227785714Y-102452380D01*
X227880952Y-102452380D01*
X228214285Y-102452380D02*
X228214285Y-101785714D01*
X228214285Y-101976190D02*
X228261904Y-101880952D01*
X228309523Y-101833333D01*
X228404761Y-101785714D01*
X228500000Y-101785714D01*
X229261904Y-102452380D02*
X229261904Y-101928571D01*
X229214285Y-101833333D01*
X229119047Y-101785714D01*
X228928571Y-101785714D01*
X228833333Y-101833333D01*
X229261904Y-102404761D02*
X229166666Y-102452380D01*
X228928571Y-102452380D01*
X228833333Y-102404761D01*
X228785714Y-102309523D01*
X228785714Y-102214285D01*
X228833333Y-102119047D01*
X228928571Y-102071428D01*
X229166666Y-102071428D01*
X229261904Y-102023809D01*
X230452380Y-102404761D02*
X230595238Y-102452380D01*
X230833333Y-102452380D01*
X230928571Y-102404761D01*
X230976190Y-102357142D01*
X231023809Y-102261904D01*
X231023809Y-102166666D01*
X230976190Y-102071428D01*
X230928571Y-102023809D01*
X230833333Y-101976190D01*
X230642857Y-101928571D01*
X230547619Y-101880952D01*
X230500000Y-101833333D01*
X230452380Y-101738095D01*
X230452380Y-101642857D01*
X230500000Y-101547619D01*
X230547619Y-101500000D01*
X230642857Y-101452380D01*
X230880952Y-101452380D01*
X231023809Y-101500000D01*
X231595238Y-102452380D02*
X231500000Y-102404761D01*
X231452380Y-102357142D01*
X231404761Y-102261904D01*
X231404761Y-101976190D01*
X231452380Y-101880952D01*
X231500000Y-101833333D01*
X231595238Y-101785714D01*
X231738095Y-101785714D01*
X231833333Y-101833333D01*
X231880952Y-101880952D01*
X231928571Y-101976190D01*
X231928571Y-102261904D01*
X231880952Y-102357142D01*
X231833333Y-102404761D01*
X231738095Y-102452380D01*
X231595238Y-102452380D01*
X232357142Y-101785714D02*
X232357142Y-102452380D01*
X232357142Y-101880952D02*
X232404761Y-101833333D01*
X232500000Y-101785714D01*
X232642857Y-101785714D01*
X232738095Y-101833333D01*
X232785714Y-101928571D01*
X232785714Y-102452380D01*
X233261904Y-102452380D02*
X233261904Y-101785714D01*
X233261904Y-101452380D02*
X233214285Y-101500000D01*
X233261904Y-101547619D01*
X233309523Y-101500000D01*
X233261904Y-101452380D01*
X233261904Y-101547619D01*
X234166666Y-102404761D02*
X234071428Y-102452380D01*
X233880952Y-102452380D01*
X233785714Y-102404761D01*
X233738095Y-102357142D01*
X233690476Y-102261904D01*
X233690476Y-101976190D01*
X233738095Y-101880952D01*
X233785714Y-101833333D01*
X233880952Y-101785714D01*
X234071428Y-101785714D01*
X234166666Y-101833333D01*
X235309523Y-102404761D02*
X235452380Y-102452380D01*
X235690476Y-102452380D01*
X235785714Y-102404761D01*
X235833333Y-102357142D01*
X235880952Y-102261904D01*
X235880952Y-102166666D01*
X235833333Y-102071428D01*
X235785714Y-102023809D01*
X235690476Y-101976190D01*
X235500000Y-101928571D01*
X235404761Y-101880952D01*
X235357142Y-101833333D01*
X235309523Y-101738095D01*
X235309523Y-101642857D01*
X235357142Y-101547619D01*
X235404761Y-101500000D01*
X235500000Y-101452380D01*
X235738095Y-101452380D01*
X235880952Y-101500000D01*
X236690476Y-102404761D02*
X236595238Y-102452380D01*
X236404761Y-102452380D01*
X236309523Y-102404761D01*
X236261904Y-102309523D01*
X236261904Y-101928571D01*
X236309523Y-101833333D01*
X236404761Y-101785714D01*
X236595238Y-101785714D01*
X236690476Y-101833333D01*
X236738095Y-101928571D01*
X236738095Y-102023809D01*
X236261904Y-102119047D01*
X237166666Y-101785714D02*
X237166666Y-102452380D01*
X237166666Y-101880952D02*
X237214285Y-101833333D01*
X237309523Y-101785714D01*
X237452380Y-101785714D01*
X237547619Y-101833333D01*
X237595238Y-101928571D01*
X237595238Y-102452380D01*
X238023809Y-102404761D02*
X238119047Y-102452380D01*
X238309523Y-102452380D01*
X238404761Y-102404761D01*
X238452380Y-102309523D01*
X238452380Y-102261904D01*
X238404761Y-102166666D01*
X238309523Y-102119047D01*
X238166666Y-102119047D01*
X238071428Y-102071428D01*
X238023809Y-101976190D01*
X238023809Y-101928571D01*
X238071428Y-101833333D01*
X238166666Y-101785714D01*
X238309523Y-101785714D01*
X238404761Y-101833333D01*
X239023809Y-102452380D02*
X238928571Y-102404761D01*
X238880952Y-102357142D01*
X238833333Y-102261904D01*
X238833333Y-101976190D01*
X238880952Y-101880952D01*
X238928571Y-101833333D01*
X239023809Y-101785714D01*
X239166666Y-101785714D01*
X239261904Y-101833333D01*
X239309523Y-101880952D01*
X239357142Y-101976190D01*
X239357142Y-102261904D01*
X239309523Y-102357142D01*
X239261904Y-102404761D01*
X239166666Y-102452380D01*
X239023809Y-102452380D01*
X239785714Y-102452380D02*
X239785714Y-101785714D01*
X239785714Y-101976190D02*
X239833333Y-101880952D01*
X239880952Y-101833333D01*
X239976190Y-101785714D01*
X240071428Y-101785714D01*
X140222380Y-109809523D02*
X140936666Y-109809523D01*
X141079523Y-109857142D01*
X141174761Y-109952380D01*
X141222380Y-110095238D01*
X141222380Y-110190476D01*
X141222380Y-108809523D02*
X141222380Y-109380952D01*
X141222380Y-109095238D02*
X140222380Y-109095238D01*
X140365238Y-109190476D01*
X140460476Y-109285714D01*
X140508095Y-109380952D01*
X140222380Y-108190476D02*
X140222380Y-108095238D01*
X140270000Y-108000000D01*
X140317619Y-107952380D01*
X140412857Y-107904761D01*
X140603333Y-107857142D01*
X140841428Y-107857142D01*
X141031904Y-107904761D01*
X141127142Y-107952380D01*
X141174761Y-108000000D01*
X141222380Y-108095238D01*
X141222380Y-108190476D01*
X141174761Y-108285714D01*
X141127142Y-108333333D01*
X141031904Y-108380952D01*
X140841428Y-108428571D01*
X140603333Y-108428571D01*
X140412857Y-108380952D01*
X140317619Y-108333333D01*
X140270000Y-108285714D01*
X140222380Y-108190476D01*
X127062380Y-110595238D02*
X127871904Y-110595238D01*
X127967142Y-110547619D01*
X128014761Y-110500000D01*
X128062380Y-110404761D01*
X128062380Y-110214285D01*
X128014761Y-110119047D01*
X127967142Y-110071428D01*
X127871904Y-110023809D01*
X127062380Y-110023809D01*
X127776666Y-109595238D02*
X127776666Y-109119047D01*
X128062380Y-109690476D02*
X127062380Y-109357142D01*
X128062380Y-109023809D01*
X128062380Y-108119047D02*
X127586190Y-108452380D01*
X128062380Y-108690476D02*
X127062380Y-108690476D01*
X127062380Y-108309523D01*
X127110000Y-108214285D01*
X127157619Y-108166666D01*
X127252857Y-108119047D01*
X127395714Y-108119047D01*
X127490952Y-108166666D01*
X127538571Y-108214285D01*
X127586190Y-108309523D01*
X127586190Y-108690476D01*
X127062380Y-107833333D02*
X127062380Y-107261904D01*
X128062380Y-107547619D02*
X127062380Y-107547619D01*
X147261904Y-180252380D02*
X147261904Y-179252380D01*
X147261904Y-179728571D02*
X147833333Y-179728571D01*
X147833333Y-180252380D02*
X147833333Y-179252380D01*
X148833333Y-180252380D02*
X148261904Y-180252380D01*
X148547619Y-180252380D02*
X148547619Y-179252380D01*
X148452380Y-179395238D01*
X148357142Y-179490476D01*
X148261904Y-179538095D01*
X149690476Y-179252380D02*
X149500000Y-179252380D01*
X149404761Y-179300000D01*
X149357142Y-179347619D01*
X149261904Y-179490476D01*
X149214285Y-179680952D01*
X149214285Y-180061904D01*
X149261904Y-180157142D01*
X149309523Y-180204761D01*
X149404761Y-180252380D01*
X149595238Y-180252380D01*
X149690476Y-180204761D01*
X149738095Y-180157142D01*
X149785714Y-180061904D01*
X149785714Y-179823809D01*
X149738095Y-179728571D01*
X149690476Y-179680952D01*
X149595238Y-179633333D01*
X149404761Y-179633333D01*
X149309523Y-179680952D01*
X149261904Y-179728571D01*
X149214285Y-179823809D01*
X138666666Y-116682380D02*
X138666666Y-117396666D01*
X138619047Y-117539523D01*
X138523809Y-117634761D01*
X138380952Y-117682380D01*
X138285714Y-117682380D01*
X139571428Y-117015714D02*
X139571428Y-117682380D01*
X139333333Y-116634761D02*
X139095238Y-117349047D01*
X139714285Y-117349047D01*
X135357142Y-140954761D02*
X135500000Y-141002380D01*
X135738095Y-141002380D01*
X135833333Y-140954761D01*
X135880952Y-140907142D01*
X135928571Y-140811904D01*
X135928571Y-140716666D01*
X135880952Y-140621428D01*
X135833333Y-140573809D01*
X135738095Y-140526190D01*
X135547619Y-140478571D01*
X135452380Y-140430952D01*
X135404761Y-140383333D01*
X135357142Y-140288095D01*
X135357142Y-140192857D01*
X135404761Y-140097619D01*
X135452380Y-140050000D01*
X135547619Y-140002380D01*
X135785714Y-140002380D01*
X135928571Y-140050000D01*
X136357142Y-141002380D02*
X136357142Y-140002380D01*
X136595238Y-140002380D01*
X136738095Y-140050000D01*
X136833333Y-140145238D01*
X136880952Y-140240476D01*
X136928571Y-140430952D01*
X136928571Y-140573809D01*
X136880952Y-140764285D01*
X136833333Y-140859523D01*
X136738095Y-140954761D01*
X136595238Y-141002380D01*
X136357142Y-141002380D01*
X137357142Y-141002380D02*
X137357142Y-140002380D01*
X138023809Y-140002380D02*
X138214285Y-140002380D01*
X138309523Y-140050000D01*
X138404761Y-140145238D01*
X138452380Y-140335714D01*
X138452380Y-140669047D01*
X138404761Y-140859523D01*
X138309523Y-140954761D01*
X138214285Y-141002380D01*
X138023809Y-141002380D01*
X137928571Y-140954761D01*
X137833333Y-140859523D01*
X137785714Y-140669047D01*
X137785714Y-140335714D01*
X137833333Y-140145238D01*
X137928571Y-140050000D01*
X138023809Y-140002380D01*
X140214285Y-140907142D02*
X140166666Y-140954761D01*
X140023809Y-141002380D01*
X139928571Y-141002380D01*
X139785714Y-140954761D01*
X139690476Y-140859523D01*
X139642857Y-140764285D01*
X139595238Y-140573809D01*
X139595238Y-140430952D01*
X139642857Y-140240476D01*
X139690476Y-140145238D01*
X139785714Y-140050000D01*
X139928571Y-140002380D01*
X140023809Y-140002380D01*
X140166666Y-140050000D01*
X140214285Y-140097619D01*
X141071428Y-141002380D02*
X141071428Y-140478571D01*
X141023809Y-140383333D01*
X140928571Y-140335714D01*
X140738095Y-140335714D01*
X140642857Y-140383333D01*
X141071428Y-140954761D02*
X140976190Y-141002380D01*
X140738095Y-141002380D01*
X140642857Y-140954761D01*
X140595238Y-140859523D01*
X140595238Y-140764285D01*
X140642857Y-140669047D01*
X140738095Y-140621428D01*
X140976190Y-140621428D01*
X141071428Y-140573809D01*
X141547619Y-141002380D02*
X141547619Y-140335714D01*
X141547619Y-140526190D02*
X141595238Y-140430952D01*
X141642857Y-140383333D01*
X141738095Y-140335714D01*
X141833333Y-140335714D01*
X142595238Y-141002380D02*
X142595238Y-140002380D01*
X142595238Y-140954761D02*
X142500000Y-141002380D01*
X142309523Y-141002380D01*
X142214285Y-140954761D01*
X142166666Y-140907142D01*
X142119047Y-140811904D01*
X142119047Y-140526190D01*
X142166666Y-140430952D01*
X142214285Y-140383333D01*
X142309523Y-140335714D01*
X142500000Y-140335714D01*
X142595238Y-140383333D01*
X103471666Y-109592380D02*
X103471666Y-110306666D01*
X103424047Y-110449523D01*
X103328809Y-110544761D01*
X103185952Y-110592380D01*
X103090714Y-110592380D01*
X104090714Y-110020952D02*
X103995476Y-109973333D01*
X103947857Y-109925714D01*
X103900238Y-109830476D01*
X103900238Y-109782857D01*
X103947857Y-109687619D01*
X103995476Y-109640000D01*
X104090714Y-109592380D01*
X104281190Y-109592380D01*
X104376428Y-109640000D01*
X104424047Y-109687619D01*
X104471666Y-109782857D01*
X104471666Y-109830476D01*
X104424047Y-109925714D01*
X104376428Y-109973333D01*
X104281190Y-110020952D01*
X104090714Y-110020952D01*
X103995476Y-110068571D01*
X103947857Y-110116190D01*
X103900238Y-110211428D01*
X103900238Y-110401904D01*
X103947857Y-110497142D01*
X103995476Y-110544761D01*
X104090714Y-110592380D01*
X104281190Y-110592380D01*
X104376428Y-110544761D01*
X104424047Y-110497142D01*
X104471666Y-110401904D01*
X104471666Y-110211428D01*
X104424047Y-110116190D01*
X104376428Y-110068571D01*
X104281190Y-110020952D01*
X124682380Y-160809523D02*
X125396666Y-160809523D01*
X125539523Y-160857142D01*
X125634761Y-160952380D01*
X125682380Y-161095238D01*
X125682380Y-161190476D01*
X124777619Y-160380952D02*
X124730000Y-160333333D01*
X124682380Y-160238095D01*
X124682380Y-160000000D01*
X124730000Y-159904761D01*
X124777619Y-159857142D01*
X124872857Y-159809523D01*
X124968095Y-159809523D01*
X125110952Y-159857142D01*
X125682380Y-160428571D01*
X125682380Y-159809523D01*
X125682380Y-158857142D02*
X125682380Y-159428571D01*
X125682380Y-159142857D02*
X124682380Y-159142857D01*
X124825238Y-159238095D01*
X124920476Y-159333333D01*
X124968095Y-159428571D01*
X129920238Y-156953571D02*
X130063095Y-157001190D01*
X130110714Y-157048809D01*
X130158333Y-157144047D01*
X130158333Y-157286904D01*
X130110714Y-157382142D01*
X130063095Y-157429761D01*
X129967857Y-157477380D01*
X129586904Y-157477380D01*
X129586904Y-156477380D01*
X129920238Y-156477380D01*
X130015476Y-156525000D01*
X130063095Y-156572619D01*
X130110714Y-156667857D01*
X130110714Y-156763095D01*
X130063095Y-156858333D01*
X130015476Y-156905952D01*
X129920238Y-156953571D01*
X129586904Y-156953571D01*
X131015476Y-156810714D02*
X131015476Y-157477380D01*
X130586904Y-156810714D02*
X130586904Y-157334523D01*
X130634523Y-157429761D01*
X130729761Y-157477380D01*
X130872619Y-157477380D01*
X130967857Y-157429761D01*
X131015476Y-157382142D01*
X131348809Y-156810714D02*
X131729761Y-156810714D01*
X131491666Y-156477380D02*
X131491666Y-157334523D01*
X131539285Y-157429761D01*
X131634523Y-157477380D01*
X131729761Y-157477380D01*
X131920238Y-156810714D02*
X132301190Y-156810714D01*
X132063095Y-156477380D02*
X132063095Y-157334523D01*
X132110714Y-157429761D01*
X132205952Y-157477380D01*
X132301190Y-157477380D01*
X132777380Y-157477380D02*
X132682142Y-157429761D01*
X132634523Y-157382142D01*
X132586904Y-157286904D01*
X132586904Y-157001190D01*
X132634523Y-156905952D01*
X132682142Y-156858333D01*
X132777380Y-156810714D01*
X132920238Y-156810714D01*
X133015476Y-156858333D01*
X133063095Y-156905952D01*
X133110714Y-157001190D01*
X133110714Y-157286904D01*
X133063095Y-157382142D01*
X133015476Y-157429761D01*
X132920238Y-157477380D01*
X132777380Y-157477380D01*
X133539285Y-156810714D02*
X133539285Y-157477380D01*
X133539285Y-156905952D02*
X133586904Y-156858333D01*
X133682142Y-156810714D01*
X133825000Y-156810714D01*
X133920238Y-156858333D01*
X133967857Y-156953571D01*
X133967857Y-157477380D01*
X135539285Y-156953571D02*
X135682142Y-157001190D01*
X135729761Y-157048809D01*
X135777380Y-157144047D01*
X135777380Y-157286904D01*
X135729761Y-157382142D01*
X135682142Y-157429761D01*
X135586904Y-157477380D01*
X135205952Y-157477380D01*
X135205952Y-156477380D01*
X135539285Y-156477380D01*
X135634523Y-156525000D01*
X135682142Y-156572619D01*
X135729761Y-156667857D01*
X135729761Y-156763095D01*
X135682142Y-156858333D01*
X135634523Y-156905952D01*
X135539285Y-156953571D01*
X135205952Y-156953571D01*
X136348809Y-157477380D02*
X136253571Y-157429761D01*
X136205952Y-157382142D01*
X136158333Y-157286904D01*
X136158333Y-157001190D01*
X136205952Y-156905952D01*
X136253571Y-156858333D01*
X136348809Y-156810714D01*
X136491666Y-156810714D01*
X136586904Y-156858333D01*
X136634523Y-156905952D01*
X136682142Y-157001190D01*
X136682142Y-157286904D01*
X136634523Y-157382142D01*
X136586904Y-157429761D01*
X136491666Y-157477380D01*
X136348809Y-157477380D01*
X137539285Y-157477380D02*
X137539285Y-156953571D01*
X137491666Y-156858333D01*
X137396428Y-156810714D01*
X137205952Y-156810714D01*
X137110714Y-156858333D01*
X137539285Y-157429761D02*
X137444047Y-157477380D01*
X137205952Y-157477380D01*
X137110714Y-157429761D01*
X137063095Y-157334523D01*
X137063095Y-157239285D01*
X137110714Y-157144047D01*
X137205952Y-157096428D01*
X137444047Y-157096428D01*
X137539285Y-157048809D01*
X138015476Y-157477380D02*
X138015476Y-156810714D01*
X138015476Y-157001190D02*
X138063095Y-156905952D01*
X138110714Y-156858333D01*
X138205952Y-156810714D01*
X138301190Y-156810714D01*
X139063095Y-157477380D02*
X139063095Y-156477380D01*
X139063095Y-157429761D02*
X138967857Y-157477380D01*
X138777380Y-157477380D01*
X138682142Y-157429761D01*
X138634523Y-157382142D01*
X138586904Y-157286904D01*
X138586904Y-157001190D01*
X138634523Y-156905952D01*
X138682142Y-156858333D01*
X138777380Y-156810714D01*
X138967857Y-156810714D01*
X139063095Y-156858333D01*
X218666666Y-89682380D02*
X218666666Y-90396666D01*
X218619047Y-90539523D01*
X218523809Y-90634761D01*
X218380952Y-90682380D01*
X218285714Y-90682380D01*
X219619047Y-89682380D02*
X219142857Y-89682380D01*
X219095238Y-90158571D01*
X219142857Y-90110952D01*
X219238095Y-90063333D01*
X219476190Y-90063333D01*
X219571428Y-90110952D01*
X219619047Y-90158571D01*
X219666666Y-90253809D01*
X219666666Y-90491904D01*
X219619047Y-90587142D01*
X219571428Y-90634761D01*
X219476190Y-90682380D01*
X219238095Y-90682380D01*
X219142857Y-90634761D01*
X219095238Y-90587142D01*
X214833333Y-101452380D02*
X215404761Y-101452380D01*
X215119047Y-102452380D02*
X215119047Y-101452380D01*
X215738095Y-102452380D02*
X215738095Y-101452380D01*
X215976190Y-101452380D01*
X216119047Y-101500000D01*
X216214285Y-101595238D01*
X216261904Y-101690476D01*
X216309523Y-101880952D01*
X216309523Y-102023809D01*
X216261904Y-102214285D01*
X216214285Y-102309523D01*
X216119047Y-102404761D01*
X215976190Y-102452380D01*
X215738095Y-102452380D01*
X216690476Y-102404761D02*
X216833333Y-102452380D01*
X217071428Y-102452380D01*
X217166666Y-102404761D01*
X217214285Y-102357142D01*
X217261904Y-102261904D01*
X217261904Y-102166666D01*
X217214285Y-102071428D01*
X217166666Y-102023809D01*
X217071428Y-101976190D01*
X216880952Y-101928571D01*
X216785714Y-101880952D01*
X216738095Y-101833333D01*
X216690476Y-101738095D01*
X216690476Y-101642857D01*
X216738095Y-101547619D01*
X216785714Y-101500000D01*
X216880952Y-101452380D01*
X217119047Y-101452380D01*
X217261904Y-101500000D01*
X218404761Y-102404761D02*
X218547619Y-102452380D01*
X218785714Y-102452380D01*
X218880952Y-102404761D01*
X218928571Y-102357142D01*
X218976190Y-102261904D01*
X218976190Y-102166666D01*
X218928571Y-102071428D01*
X218880952Y-102023809D01*
X218785714Y-101976190D01*
X218595238Y-101928571D01*
X218500000Y-101880952D01*
X218452380Y-101833333D01*
X218404761Y-101738095D01*
X218404761Y-101642857D01*
X218452380Y-101547619D01*
X218500000Y-101500000D01*
X218595238Y-101452380D01*
X218833333Y-101452380D01*
X218976190Y-101500000D01*
X219785714Y-102404761D02*
X219690476Y-102452380D01*
X219500000Y-102452380D01*
X219404761Y-102404761D01*
X219357142Y-102309523D01*
X219357142Y-101928571D01*
X219404761Y-101833333D01*
X219500000Y-101785714D01*
X219690476Y-101785714D01*
X219785714Y-101833333D01*
X219833333Y-101928571D01*
X219833333Y-102023809D01*
X219357142Y-102119047D01*
X220261904Y-101785714D02*
X220261904Y-102452380D01*
X220261904Y-101880952D02*
X220309523Y-101833333D01*
X220404761Y-101785714D01*
X220547619Y-101785714D01*
X220642857Y-101833333D01*
X220690476Y-101928571D01*
X220690476Y-102452380D01*
X221119047Y-102404761D02*
X221214285Y-102452380D01*
X221404761Y-102452380D01*
X221500000Y-102404761D01*
X221547619Y-102309523D01*
X221547619Y-102261904D01*
X221500000Y-102166666D01*
X221404761Y-102119047D01*
X221261904Y-102119047D01*
X221166666Y-102071428D01*
X221119047Y-101976190D01*
X221119047Y-101928571D01*
X221166666Y-101833333D01*
X221261904Y-101785714D01*
X221404761Y-101785714D01*
X221500000Y-101833333D01*
X222119047Y-102452380D02*
X222023809Y-102404761D01*
X221976190Y-102357142D01*
X221928571Y-102261904D01*
X221928571Y-101976190D01*
X221976190Y-101880952D01*
X222023809Y-101833333D01*
X222119047Y-101785714D01*
X222261904Y-101785714D01*
X222357142Y-101833333D01*
X222404761Y-101880952D01*
X222452380Y-101976190D01*
X222452380Y-102261904D01*
X222404761Y-102357142D01*
X222357142Y-102404761D01*
X222261904Y-102452380D01*
X222119047Y-102452380D01*
X222880952Y-102452380D02*
X222880952Y-101785714D01*
X222880952Y-101976190D02*
X222928571Y-101880952D01*
X222976190Y-101833333D01*
X223071428Y-101785714D01*
X223166666Y-101785714D01*
X186761904Y-76252380D02*
X186761904Y-75252380D01*
X186761904Y-75728571D02*
X187333333Y-75728571D01*
X187333333Y-76252380D02*
X187333333Y-75252380D01*
X188333333Y-76252380D02*
X187761904Y-76252380D01*
X188047619Y-76252380D02*
X188047619Y-75252380D01*
X187952380Y-75395238D01*
X187857142Y-75490476D01*
X187761904Y-75538095D01*
X189285714Y-76252380D02*
X188714285Y-76252380D01*
X189000000Y-76252380D02*
X189000000Y-75252380D01*
X188904761Y-75395238D01*
X188809523Y-75490476D01*
X188714285Y-75538095D01*
X242666666Y-74452380D02*
X242666666Y-75166666D01*
X242619047Y-75309523D01*
X242523809Y-75404761D01*
X242380952Y-75452380D01*
X242285714Y-75452380D01*
X243047619Y-74452380D02*
X243666666Y-74452380D01*
X243333333Y-74833333D01*
X243476190Y-74833333D01*
X243571428Y-74880952D01*
X243619047Y-74928571D01*
X243666666Y-75023809D01*
X243666666Y-75261904D01*
X243619047Y-75357142D01*
X243571428Y-75404761D01*
X243476190Y-75452380D01*
X243190476Y-75452380D01*
X243095238Y-75404761D01*
X243047619Y-75357142D01*
X236452380Y-67880952D02*
X236452380Y-67309523D01*
X237452380Y-67595238D02*
X236452380Y-67595238D01*
X236928571Y-66642857D02*
X236928571Y-66976190D01*
X237452380Y-66976190D02*
X236452380Y-66976190D01*
X236452380Y-66500000D01*
X236452380Y-66261904D02*
X236452380Y-65690476D01*
X237452380Y-65976190D02*
X236452380Y-65976190D01*
X237547619Y-65595238D02*
X237547619Y-64833333D01*
X237452380Y-64119047D02*
X237452380Y-64595238D01*
X236452380Y-64595238D01*
X237357142Y-63214285D02*
X237404761Y-63261904D01*
X237452380Y-63404761D01*
X237452380Y-63500000D01*
X237404761Y-63642857D01*
X237309523Y-63738095D01*
X237214285Y-63785714D01*
X237023809Y-63833333D01*
X236880952Y-63833333D01*
X236690476Y-63785714D01*
X236595238Y-63738095D01*
X236500000Y-63642857D01*
X236452380Y-63500000D01*
X236452380Y-63404761D01*
X236500000Y-63261904D01*
X236547619Y-63214285D01*
X237452380Y-62785714D02*
X236452380Y-62785714D01*
X236452380Y-62547619D01*
X236500000Y-62404761D01*
X236595238Y-62309523D01*
X236690476Y-62261904D01*
X236880952Y-62214285D01*
X237023809Y-62214285D01*
X237214285Y-62261904D01*
X237309523Y-62309523D01*
X237404761Y-62404761D01*
X237452380Y-62547619D01*
X237452380Y-62785714D01*
X161238095Y-177252380D02*
X161238095Y-176252380D01*
X161238095Y-176728571D02*
X161809523Y-176728571D01*
X161809523Y-177252380D02*
X161809523Y-176252380D01*
X162190476Y-176252380D02*
X162809523Y-176252380D01*
X162476190Y-176633333D01*
X162619047Y-176633333D01*
X162714285Y-176680952D01*
X162761904Y-176728571D01*
X162809523Y-176823809D01*
X162809523Y-177061904D01*
X162761904Y-177157142D01*
X162714285Y-177204761D01*
X162619047Y-177252380D01*
X162333333Y-177252380D01*
X162238095Y-177204761D01*
X162190476Y-177157142D01*
X209238095Y-109252380D02*
X209238095Y-108252380D01*
X209238095Y-108728571D02*
X209809523Y-108728571D01*
X209809523Y-109252380D02*
X209809523Y-108252380D01*
X210238095Y-108347619D02*
X210285714Y-108300000D01*
X210380952Y-108252380D01*
X210619047Y-108252380D01*
X210714285Y-108300000D01*
X210761904Y-108347619D01*
X210809523Y-108442857D01*
X210809523Y-108538095D01*
X210761904Y-108680952D01*
X210190476Y-109252380D01*
X210809523Y-109252380D01*
X187238095Y-48252380D02*
X187238095Y-47252380D01*
X187238095Y-47728571D02*
X187809523Y-47728571D01*
X187809523Y-48252380D02*
X187809523Y-47252380D01*
X188333333Y-48252380D02*
X188523809Y-48252380D01*
X188619047Y-48204761D01*
X188666666Y-48157142D01*
X188761904Y-48014285D01*
X188809523Y-47823809D01*
X188809523Y-47442857D01*
X188761904Y-47347619D01*
X188714285Y-47300000D01*
X188619047Y-47252380D01*
X188428571Y-47252380D01*
X188333333Y-47300000D01*
X188285714Y-47347619D01*
X188238095Y-47442857D01*
X188238095Y-47680952D01*
X188285714Y-47776190D01*
X188333333Y-47823809D01*
X188428571Y-47871428D01*
X188619047Y-47871428D01*
X188714285Y-47823809D01*
X188761904Y-47776190D01*
X188809523Y-47680952D01*
X209238095Y-177252380D02*
X209238095Y-176252380D01*
X209238095Y-176728571D02*
X209809523Y-176728571D01*
X209809523Y-177252380D02*
X209809523Y-176252380D01*
X210714285Y-176585714D02*
X210714285Y-177252380D01*
X210476190Y-176204761D02*
X210238095Y-176919047D01*
X210857142Y-176919047D01*
X114761904Y-169752380D02*
X114761904Y-168752380D01*
X114761904Y-169228571D02*
X115333333Y-169228571D01*
X115333333Y-169752380D02*
X115333333Y-168752380D01*
X116333333Y-169752380D02*
X115761904Y-169752380D01*
X116047619Y-169752380D02*
X116047619Y-168752380D01*
X115952380Y-168895238D01*
X115857142Y-168990476D01*
X115761904Y-169038095D01*
X116666666Y-168752380D02*
X117285714Y-168752380D01*
X116952380Y-169133333D01*
X117095238Y-169133333D01*
X117190476Y-169180952D01*
X117238095Y-169228571D01*
X117285714Y-169323809D01*
X117285714Y-169561904D01*
X117238095Y-169657142D01*
X117190476Y-169704761D01*
X117095238Y-169752380D01*
X116809523Y-169752380D01*
X116714285Y-169704761D01*
X116666666Y-169657142D01*
X206641666Y-89927380D02*
X206641666Y-90641666D01*
X206594047Y-90784523D01*
X206498809Y-90879761D01*
X206355952Y-90927380D01*
X206260714Y-90927380D01*
X207022619Y-89927380D02*
X207689285Y-89927380D01*
X207260714Y-90927380D01*
X205071428Y-102403571D02*
X205214285Y-102451190D01*
X205261904Y-102498809D01*
X205309523Y-102594047D01*
X205309523Y-102736904D01*
X205261904Y-102832142D01*
X205214285Y-102879761D01*
X205119047Y-102927380D01*
X204738095Y-102927380D01*
X204738095Y-101927380D01*
X205071428Y-101927380D01*
X205166666Y-101975000D01*
X205214285Y-102022619D01*
X205261904Y-102117857D01*
X205261904Y-102213095D01*
X205214285Y-102308333D01*
X205166666Y-102355952D01*
X205071428Y-102403571D01*
X204738095Y-102403571D01*
X206166666Y-102260714D02*
X206166666Y-102927380D01*
X205738095Y-102260714D02*
X205738095Y-102784523D01*
X205785714Y-102879761D01*
X205880952Y-102927380D01*
X206023809Y-102927380D01*
X206119047Y-102879761D01*
X206166666Y-102832142D01*
X206547619Y-102260714D02*
X207071428Y-102260714D01*
X206547619Y-102927380D01*
X207071428Y-102927380D01*
X207357142Y-102260714D02*
X207880952Y-102260714D01*
X207357142Y-102927380D01*
X207880952Y-102927380D01*
X208642857Y-102879761D02*
X208547619Y-102927380D01*
X208357142Y-102927380D01*
X208261904Y-102879761D01*
X208214285Y-102784523D01*
X208214285Y-102403571D01*
X208261904Y-102308333D01*
X208357142Y-102260714D01*
X208547619Y-102260714D01*
X208642857Y-102308333D01*
X208690476Y-102403571D01*
X208690476Y-102498809D01*
X208214285Y-102594047D01*
X209119047Y-102927380D02*
X209119047Y-102260714D01*
X209119047Y-102451190D02*
X209166666Y-102355952D01*
X209214285Y-102308333D01*
X209309523Y-102260714D01*
X209404761Y-102260714D01*
X98238095Y-180252380D02*
X98238095Y-179252380D01*
X98238095Y-179728571D02*
X98809523Y-179728571D01*
X98809523Y-180252380D02*
X98809523Y-179252380D01*
X99190476Y-179252380D02*
X99857142Y-179252380D01*
X99428571Y-180252380D01*
X114761904Y-180252380D02*
X114761904Y-179252380D01*
X114761904Y-179728571D02*
X115333333Y-179728571D01*
X115333333Y-180252380D02*
X115333333Y-179252380D01*
X116333333Y-180252380D02*
X115761904Y-180252380D01*
X116047619Y-180252380D02*
X116047619Y-179252380D01*
X115952380Y-179395238D01*
X115857142Y-179490476D01*
X115761904Y-179538095D01*
X117238095Y-179252380D02*
X116761904Y-179252380D01*
X116714285Y-179728571D01*
X116761904Y-179680952D01*
X116857142Y-179633333D01*
X117095238Y-179633333D01*
X117190476Y-179680952D01*
X117238095Y-179728571D01*
X117285714Y-179823809D01*
X117285714Y-180061904D01*
X117238095Y-180157142D01*
X117190476Y-180204761D01*
X117095238Y-180252380D01*
X116857142Y-180252380D01*
X116761904Y-180204761D01*
X116714285Y-180157142D01*
X240238095Y-180252380D02*
X240238095Y-179252380D01*
X240238095Y-179728571D02*
X240809523Y-179728571D01*
X240809523Y-180252380D02*
X240809523Y-179252380D01*
X241428571Y-179680952D02*
X241333333Y-179633333D01*
X241285714Y-179585714D01*
X241238095Y-179490476D01*
X241238095Y-179442857D01*
X241285714Y-179347619D01*
X241333333Y-179300000D01*
X241428571Y-179252380D01*
X241619047Y-179252380D01*
X241714285Y-179300000D01*
X241761904Y-179347619D01*
X241809523Y-179442857D01*
X241809523Y-179490476D01*
X241761904Y-179585714D01*
X241714285Y-179633333D01*
X241619047Y-179680952D01*
X241428571Y-179680952D01*
X241333333Y-179728571D01*
X241285714Y-179776190D01*
X241238095Y-179871428D01*
X241238095Y-180061904D01*
X241285714Y-180157142D01*
X241333333Y-180204761D01*
X241428571Y-180252380D01*
X241619047Y-180252380D01*
X241714285Y-180204761D01*
X241761904Y-180157142D01*
X241809523Y-180061904D01*
X241809523Y-179871428D01*
X241761904Y-179776190D01*
X241714285Y-179728571D01*
X241619047Y-179680952D01*
X118691666Y-109582380D02*
X118691666Y-110296666D01*
X118644047Y-110439523D01*
X118548809Y-110534761D01*
X118405952Y-110582380D01*
X118310714Y-110582380D01*
X119215476Y-110582380D02*
X119405952Y-110582380D01*
X119501190Y-110534761D01*
X119548809Y-110487142D01*
X119644047Y-110344285D01*
X119691666Y-110153809D01*
X119691666Y-109772857D01*
X119644047Y-109677619D01*
X119596428Y-109630000D01*
X119501190Y-109582380D01*
X119310714Y-109582380D01*
X119215476Y-109630000D01*
X119167857Y-109677619D01*
X119120238Y-109772857D01*
X119120238Y-110010952D01*
X119167857Y-110106190D01*
X119215476Y-110153809D01*
X119310714Y-110201428D01*
X119501190Y-110201428D01*
X119596428Y-110153809D01*
X119644047Y-110106190D01*
X119691666Y-110010952D01*
X161238095Y-109252380D02*
X161238095Y-108252380D01*
X161238095Y-108728571D02*
X161809523Y-108728571D01*
X161809523Y-109252380D02*
X161809523Y-108252380D01*
X162809523Y-109252380D02*
X162238095Y-109252380D01*
X162523809Y-109252380D02*
X162523809Y-108252380D01*
X162428571Y-108395238D01*
X162333333Y-108490476D01*
X162238095Y-108538095D01*
X147261904Y-169752380D02*
X147261904Y-168752380D01*
X147261904Y-169228571D02*
X147833333Y-169228571D01*
X147833333Y-169752380D02*
X147833333Y-168752380D01*
X148833333Y-169752380D02*
X148261904Y-169752380D01*
X148547619Y-169752380D02*
X148547619Y-168752380D01*
X148452380Y-168895238D01*
X148357142Y-168990476D01*
X148261904Y-169038095D01*
X149690476Y-169085714D02*
X149690476Y-169752380D01*
X149452380Y-168704761D02*
X149214285Y-169419047D01*
X149833333Y-169419047D01*
D12*
X218739000Y-177100000D02*
X218739000Y-166980000D01*
X228900000Y-177340000D02*
X228900000Y-176840000D01*
X228660000Y-177100000D02*
X228660000Y-166980000D01*
X225023000Y-170767000D02*
X225069000Y-170814000D01*
X226600000Y-177100000D02*
X226600000Y-166980000D01*
X225239000Y-170574000D02*
X225274000Y-170609000D01*
X228160000Y-177340000D02*
X228900000Y-177340000D01*
X218739000Y-177100000D02*
X228660000Y-177100000D01*
X218739000Y-166980000D02*
X228660000Y-166980000D01*
X222931000Y-168265000D02*
X222977000Y-168312000D01*
X222725000Y-168470000D02*
X222761000Y-168505000D01*
X221699000Y-177100000D02*
X221699000Y-166980000D01*
X228100000Y-177100000D02*
X228100000Y-166980000D01*
X224684000Y-173004999D02*
G75*
G03*
X223316958Y-173004573I-684000J-1535001D01*
G01*
X225535000Y-175224000D02*
G75*
G03*
X225680253Y-174511195I-1535001J683999D01*
G01*
X225680000Y-174540000D02*
G75*
G03*
X225534756Y-173856682I-1680000J0D01*
G01*
X223316000Y-176075000D02*
G75*
G03*
X224683042Y-176075427I684001J1534993D01*
G01*
X222465000Y-173856000D02*
G75*
G03*
X222464573Y-175223042I1534993J-684001D01*
G01*
X225680000Y-169540000D02*
G75*
G03*
X225680000Y-169540000I-1680000J0D01*
G01*
X218739000Y-144100000D02*
X218739000Y-133980000D01*
X228900000Y-144340000D02*
X228900000Y-143840000D01*
X228660000Y-144100000D02*
X228660000Y-133980000D01*
X225023000Y-137767000D02*
X225069000Y-137814000D01*
X226600000Y-144100000D02*
X226600000Y-133980000D01*
X225239000Y-137574000D02*
X225274000Y-137609000D01*
X228160000Y-144340000D02*
X228900000Y-144340000D01*
X218739000Y-144100000D02*
X228660000Y-144100000D01*
X218739000Y-133980000D02*
X228660000Y-133980000D01*
X222931000Y-135265000D02*
X222977000Y-135312000D01*
X222725000Y-135470000D02*
X222761000Y-135505000D01*
X221699000Y-144100000D02*
X221699000Y-133980000D01*
X228100000Y-144100000D02*
X228100000Y-133980000D01*
X224684000Y-140004999D02*
G75*
G03*
X223316958Y-140004573I-684000J-1535001D01*
G01*
X225535000Y-142224000D02*
G75*
G03*
X225680253Y-141511195I-1535001J683999D01*
G01*
X225680000Y-141540000D02*
G75*
G03*
X225534756Y-140856682I-1680000J0D01*
G01*
X223316000Y-143075000D02*
G75*
G03*
X224683042Y-143075427I684001J1534993D01*
G01*
X222465000Y-140856000D02*
G75*
G03*
X222464573Y-142223042I1534993J-684001D01*
G01*
X225680000Y-136540000D02*
G75*
G03*
X225680000Y-136540000I-1680000J0D01*
G01*
X218739000Y-160100000D02*
X218739000Y-149980000D01*
X228900000Y-160340000D02*
X228900000Y-159840000D01*
X228660000Y-160100000D02*
X228660000Y-149980000D01*
X225023000Y-153767000D02*
X225069000Y-153814000D01*
X226600000Y-160100000D02*
X226600000Y-149980000D01*
X225239000Y-153574000D02*
X225274000Y-153609000D01*
X228160000Y-160340000D02*
X228900000Y-160340000D01*
X218739000Y-160100000D02*
X228660000Y-160100000D01*
X218739000Y-149980000D02*
X228660000Y-149980000D01*
X222931000Y-151265000D02*
X222977000Y-151312000D01*
X222725000Y-151470000D02*
X222761000Y-151505000D01*
X221699000Y-160100000D02*
X221699000Y-149980000D01*
X228100000Y-160100000D02*
X228100000Y-149980000D01*
X224684000Y-156004999D02*
G75*
G03*
X223316958Y-156004573I-684000J-1535001D01*
G01*
X225535000Y-158224000D02*
G75*
G03*
X225680253Y-157511195I-1535001J683999D01*
G01*
X225680000Y-157540000D02*
G75*
G03*
X225534756Y-156856682I-1680000J0D01*
G01*
X223316000Y-159075000D02*
G75*
G03*
X224683042Y-159075427I684001J1534993D01*
G01*
X222465000Y-156856000D02*
G75*
G03*
X222464573Y-158223042I1534993J-684001D01*
G01*
X225680000Y-152540000D02*
G75*
G03*
X225680000Y-152540000I-1680000J0D01*
G01*
X218739000Y-127100000D02*
X218739000Y-116980000D01*
X228900000Y-127340000D02*
X228900000Y-126840000D01*
X228660000Y-127100000D02*
X228660000Y-116980000D01*
X225023000Y-120767000D02*
X225069000Y-120814000D01*
X226600000Y-127100000D02*
X226600000Y-116980000D01*
X225239000Y-120574000D02*
X225274000Y-120609000D01*
X228160000Y-127340000D02*
X228900000Y-127340000D01*
X218739000Y-127100000D02*
X228660000Y-127100000D01*
X218739000Y-116980000D02*
X228660000Y-116980000D01*
X222931000Y-118265000D02*
X222977000Y-118312000D01*
X222725000Y-118470000D02*
X222761000Y-118505000D01*
X221699000Y-127100000D02*
X221699000Y-116980000D01*
X228100000Y-127100000D02*
X228100000Y-116980000D01*
X224684000Y-123004999D02*
G75*
G03*
X223316958Y-123004573I-684000J-1535001D01*
G01*
X225535000Y-125224000D02*
G75*
G03*
X225680253Y-124511195I-1535001J683999D01*
G01*
X225680000Y-124540000D02*
G75*
G03*
X225534756Y-123856682I-1680000J0D01*
G01*
X223316000Y-126075000D02*
G75*
G03*
X224683042Y-126075427I684001J1534993D01*
G01*
X222465000Y-123856000D02*
G75*
G03*
X222464573Y-125223042I1534993J-684001D01*
G01*
X225680000Y-119540000D02*
G75*
G03*
X225680000Y-119540000I-1680000J0D01*
G01*
X232739000Y-177100000D02*
X232739000Y-166980000D01*
X242900000Y-177340000D02*
X242900000Y-176840000D01*
X242660000Y-177100000D02*
X242660000Y-166980000D01*
X239023000Y-170767000D02*
X239069000Y-170814000D01*
X240600000Y-177100000D02*
X240600000Y-166980000D01*
X239239000Y-170574000D02*
X239274000Y-170609000D01*
X242160000Y-177340000D02*
X242900000Y-177340000D01*
X232739000Y-177100000D02*
X242660000Y-177100000D01*
X232739000Y-166980000D02*
X242660000Y-166980000D01*
X236931000Y-168265000D02*
X236977000Y-168312000D01*
X236725000Y-168470000D02*
X236761000Y-168505000D01*
X235699000Y-177100000D02*
X235699000Y-166980000D01*
X242100000Y-177100000D02*
X242100000Y-166980000D01*
X238684000Y-173004999D02*
G75*
G03*
X237316958Y-173004573I-684000J-1535001D01*
G01*
X239535000Y-175224000D02*
G75*
G03*
X239680253Y-174511195I-1535001J683999D01*
G01*
X239680000Y-174540000D02*
G75*
G03*
X239534756Y-173856682I-1680000J0D01*
G01*
X237316000Y-176075000D02*
G75*
G03*
X238683042Y-176075427I684001J1534993D01*
G01*
X236465000Y-173856000D02*
G75*
G03*
X236464573Y-175223042I1534993J-684001D01*
G01*
X239680000Y-169540000D02*
G75*
G03*
X239680000Y-169540000I-1680000J0D01*
G01*
X232739000Y-162640000D02*
X232739000Y-152520000D01*
X242900000Y-162880000D02*
X242900000Y-162380000D01*
X242660000Y-162640000D02*
X242660000Y-152520000D01*
X239023000Y-156307000D02*
X239069000Y-156354000D01*
X240600000Y-162640000D02*
X240600000Y-152520000D01*
X239239000Y-156114000D02*
X239274000Y-156149000D01*
X242160000Y-162880000D02*
X242900000Y-162880000D01*
X232739000Y-162640000D02*
X242660000Y-162640000D01*
X232739000Y-152520000D02*
X242660000Y-152520000D01*
X236931000Y-153805000D02*
X236977000Y-153852000D01*
X236725000Y-154010000D02*
X236761000Y-154045000D01*
X235699000Y-162640000D02*
X235699000Y-152520000D01*
X242100000Y-162640000D02*
X242100000Y-152520000D01*
X238684000Y-158544999D02*
G75*
G03*
X237316958Y-158544573I-684000J-1535001D01*
G01*
X239535000Y-160764000D02*
G75*
G03*
X239680253Y-160051195I-1535001J683999D01*
G01*
X239680000Y-160080000D02*
G75*
G03*
X239534756Y-159396682I-1680000J0D01*
G01*
X237316000Y-161615000D02*
G75*
G03*
X238683042Y-161615427I684001J1534993D01*
G01*
X236465000Y-159396000D02*
G75*
G03*
X236464573Y-160763042I1534993J-684001D01*
G01*
X239680000Y-155080000D02*
G75*
G03*
X239680000Y-155080000I-1680000J0D01*
G01*
X232739000Y-148640000D02*
X232739000Y-138520000D01*
X242900000Y-148880000D02*
X242900000Y-148380000D01*
X242660000Y-148640000D02*
X242660000Y-138520000D01*
X239023000Y-142307000D02*
X239069000Y-142354000D01*
X240600000Y-148640000D02*
X240600000Y-138520000D01*
X239239000Y-142114000D02*
X239274000Y-142149000D01*
X242160000Y-148880000D02*
X242900000Y-148880000D01*
X232739000Y-148640000D02*
X242660000Y-148640000D01*
X232739000Y-138520000D02*
X242660000Y-138520000D01*
X236931000Y-139805000D02*
X236977000Y-139852000D01*
X236725000Y-140010000D02*
X236761000Y-140045000D01*
X235699000Y-148640000D02*
X235699000Y-138520000D01*
X242100000Y-148640000D02*
X242100000Y-138520000D01*
X238684000Y-144544999D02*
G75*
G03*
X237316958Y-144544573I-684000J-1535001D01*
G01*
X239535000Y-146764000D02*
G75*
G03*
X239680253Y-146051195I-1535001J683999D01*
G01*
X239680000Y-146080000D02*
G75*
G03*
X239534756Y-145396682I-1680000J0D01*
G01*
X237316000Y-147615000D02*
G75*
G03*
X238683042Y-147615427I684001J1534993D01*
G01*
X236465000Y-145396000D02*
G75*
G03*
X236464573Y-146763042I1534993J-684001D01*
G01*
X239680000Y-141080000D02*
G75*
G03*
X239680000Y-141080000I-1680000J0D01*
G01*
X232739000Y-133640000D02*
X232739000Y-123520000D01*
X242900000Y-133880000D02*
X242900000Y-133380000D01*
X242660000Y-133640000D02*
X242660000Y-123520000D01*
X239023000Y-127307000D02*
X239069000Y-127354000D01*
X240600000Y-133640000D02*
X240600000Y-123520000D01*
X239239000Y-127114000D02*
X239274000Y-127149000D01*
X242160000Y-133880000D02*
X242900000Y-133880000D01*
X232739000Y-133640000D02*
X242660000Y-133640000D01*
X232739000Y-123520000D02*
X242660000Y-123520000D01*
X236931000Y-124805000D02*
X236977000Y-124852000D01*
X236725000Y-125010000D02*
X236761000Y-125045000D01*
X235699000Y-133640000D02*
X235699000Y-123520000D01*
X242100000Y-133640000D02*
X242100000Y-123520000D01*
X238684000Y-129544999D02*
G75*
G03*
X237316958Y-129544573I-684000J-1535001D01*
G01*
X239535000Y-131764000D02*
G75*
G03*
X239680253Y-131051195I-1535001J683999D01*
G01*
X239680000Y-131080000D02*
G75*
G03*
X239534756Y-130396682I-1680000J0D01*
G01*
X237316000Y-132615000D02*
G75*
G03*
X238683042Y-132615427I684001J1534993D01*
G01*
X236465000Y-130396000D02*
G75*
G03*
X236464573Y-131763042I1534993J-684001D01*
G01*
X239680000Y-126080000D02*
G75*
G03*
X239680000Y-126080000I-1680000J0D01*
G01*
X232739000Y-119640000D02*
X232739000Y-109520000D01*
X242900000Y-119880000D02*
X242900000Y-119380000D01*
X242660000Y-119640000D02*
X242660000Y-109520000D01*
X239023000Y-113307000D02*
X239069000Y-113354000D01*
X240600000Y-119640000D02*
X240600000Y-109520000D01*
X239239000Y-113114000D02*
X239274000Y-113149000D01*
X242160000Y-119880000D02*
X242900000Y-119880000D01*
X232739000Y-119640000D02*
X242660000Y-119640000D01*
X232739000Y-109520000D02*
X242660000Y-109520000D01*
X236931000Y-110805000D02*
X236977000Y-110852000D01*
X236725000Y-111010000D02*
X236761000Y-111045000D01*
X235699000Y-119640000D02*
X235699000Y-109520000D01*
X242100000Y-119640000D02*
X242100000Y-109520000D01*
X238684000Y-115544999D02*
G75*
G03*
X237316958Y-115544573I-684000J-1535001D01*
G01*
X239535000Y-117764000D02*
G75*
G03*
X239680253Y-117051195I-1535001J683999D01*
G01*
X239680000Y-117080000D02*
G75*
G03*
X239534756Y-116396682I-1680000J0D01*
G01*
X237316000Y-118615000D02*
G75*
G03*
X238683042Y-118615427I684001J1534993D01*
G01*
X236465000Y-116396000D02*
G75*
G03*
X236464573Y-117763042I1534993J-684001D01*
G01*
X239680000Y-112080000D02*
G75*
G03*
X239680000Y-112080000I-1680000J0D01*
G01*
X172860000Y-95400000D02*
X124540000Y-95400000D01*
X172860000Y-98000000D02*
X172860000Y-95400000D01*
X175460000Y-100600000D02*
X124540000Y-100600000D01*
X124540000Y-100600000D02*
X124540000Y-95400000D01*
X175460000Y-96730000D02*
X175460000Y-95400000D01*
X175460000Y-100600000D02*
X175460000Y-98000000D01*
X175460000Y-95400000D02*
X174130000Y-95400000D01*
X175460000Y-98000000D02*
X172860000Y-98000000D01*
X191670000Y-99410000D02*
X194330000Y-99410000D01*
X191670000Y-94270000D02*
X191670000Y-99410000D01*
X191670000Y-94270000D02*
X194330000Y-94270000D01*
X194330000Y-91670000D02*
X194330000Y-93000000D01*
X194330000Y-94270000D02*
X194330000Y-99410000D01*
X193000000Y-91670000D02*
X194330000Y-91670000D01*
X147670000Y-148270000D02*
X147670000Y-161030000D01*
X150330000Y-145670000D02*
X150330000Y-147000000D01*
X150330000Y-148270000D02*
X150330000Y-161030000D01*
X149000000Y-145670000D02*
X150330000Y-145670000D01*
X147670000Y-148270000D02*
X150330000Y-148270000D01*
X147670000Y-161030000D02*
X150330000Y-161030000D01*
X227595000Y-96765000D02*
X227595000Y-91625000D01*
X228925000Y-99365000D02*
X227595000Y-99365000D01*
X227595000Y-99365000D02*
X227595000Y-98035000D01*
X230255000Y-91625000D02*
X227595000Y-91625000D01*
X230255000Y-96765000D02*
X230255000Y-91625000D01*
X230255000Y-96765000D02*
X227595000Y-96765000D01*
X139330000Y-109000000D02*
X139330000Y-110330000D01*
X136730000Y-110330000D02*
X129050000Y-110330000D01*
X139330000Y-110330000D02*
X138000000Y-110330000D01*
X136730000Y-107670000D02*
X129050000Y-107670000D01*
X136730000Y-107670000D02*
X136730000Y-110330000D01*
X129050000Y-107670000D02*
X129050000Y-110330000D01*
X139000000Y-118670000D02*
X140330000Y-118670000D01*
X137670000Y-139110000D02*
X140330000Y-139110000D01*
X140330000Y-118670000D02*
X140330000Y-120000000D01*
X140330000Y-121270000D02*
X140330000Y-139110000D01*
X137670000Y-121270000D02*
X137670000Y-139110000D01*
X137670000Y-121270000D02*
X140330000Y-121270000D01*
X102475000Y-114180000D02*
X102475000Y-162500000D01*
X102475000Y-162500000D02*
X105135000Y-162500000D01*
X103805000Y-111580000D02*
X105135000Y-111580000D01*
X105135000Y-114180000D02*
X105135000Y-162500000D01*
X102475000Y-114180000D02*
X105135000Y-114180000D01*
X105135000Y-111580000D02*
X105135000Y-112910000D01*
X129270000Y-158670000D02*
X142030000Y-158670000D01*
X126670000Y-158670000D02*
X128000000Y-158670000D01*
X129270000Y-161330000D02*
X142030000Y-161330000D01*
X129270000Y-161330000D02*
X129270000Y-158670000D01*
X142030000Y-161330000D02*
X142030000Y-158670000D01*
X126670000Y-160000000D02*
X126670000Y-158670000D01*
X220330000Y-94270000D02*
X220330000Y-99410000D01*
X217670000Y-94270000D02*
X217670000Y-99410000D01*
X217670000Y-94270000D02*
X220330000Y-94270000D01*
X217670000Y-99410000D02*
X220330000Y-99410000D01*
X220330000Y-91670000D02*
X220330000Y-93000000D01*
X219000000Y-91670000D02*
X220330000Y-91670000D01*
X240475000Y-76205000D02*
X239145000Y-76205000D01*
X239145000Y-76205000D02*
X239145000Y-74875000D01*
X241805000Y-73605000D02*
X239145000Y-73605000D01*
X239145000Y-73605000D02*
X239145000Y-55765000D01*
X241805000Y-55765000D02*
X239145000Y-55765000D01*
X241805000Y-73605000D02*
X241805000Y-55765000D01*
X205645000Y-99330000D02*
X205645000Y-98000000D01*
X206975000Y-99330000D02*
X205645000Y-99330000D01*
X208305000Y-96730000D02*
X208305000Y-91590000D01*
X208305000Y-91590000D02*
X205645000Y-91590000D01*
X205645000Y-96730000D02*
X205645000Y-91590000D01*
X208305000Y-96730000D02*
X205645000Y-96730000D01*
X119025000Y-111570000D02*
X120355000Y-111570000D01*
X120355000Y-111570000D02*
X120355000Y-112900000D01*
X117695000Y-162490000D02*
X120355000Y-162490000D01*
X120355000Y-114170000D02*
X120355000Y-162490000D01*
X117695000Y-114170000D02*
X120355000Y-114170000D01*
X117695000Y-114170000D02*
X117695000Y-162490000D01*
%LPC*%
D13*
X224000000Y-174540000D03*
D14*
X224000000Y-169540000D03*
D13*
X224000000Y-141540000D03*
D14*
X224000000Y-136540000D03*
D13*
X224000000Y-157540000D03*
D14*
X224000000Y-152540000D03*
D13*
X224000000Y-124540000D03*
D14*
X224000000Y-119540000D03*
D13*
X238000000Y-174540000D03*
D14*
X238000000Y-169540000D03*
D13*
X238000000Y-160080000D03*
D14*
X238000000Y-155080000D03*
D13*
X238000000Y-146080000D03*
D14*
X238000000Y-141080000D03*
D13*
X238000000Y-131080000D03*
D14*
X238000000Y-126080000D03*
D13*
X238000000Y-117080000D03*
D14*
X238000000Y-112080000D03*
D15*
X174130000Y-96730000D03*
D16*
X174130000Y-99270000D03*
X171590000Y-96730000D03*
X171590000Y-99270000D03*
X169050000Y-96730000D03*
X169050000Y-99270000D03*
X166510000Y-96730000D03*
X166510000Y-99270000D03*
X163970000Y-96730000D03*
X163970000Y-99270000D03*
X161430000Y-96730000D03*
X161430000Y-99270000D03*
X158890000Y-96730000D03*
X158890000Y-99270000D03*
X156350000Y-96730000D03*
X156350000Y-99270000D03*
X153810000Y-96730000D03*
X153810000Y-99270000D03*
X151270000Y-96730000D03*
X151270000Y-99270000D03*
X148730000Y-96730000D03*
X148730000Y-99270000D03*
X146190000Y-96730000D03*
X146190000Y-99270000D03*
X143650000Y-96730000D03*
X143650000Y-99270000D03*
X141110000Y-96730000D03*
X141110000Y-99270000D03*
X138570000Y-96730000D03*
X138570000Y-99270000D03*
X136030000Y-96730000D03*
X136030000Y-99270000D03*
X133490000Y-96730000D03*
X133490000Y-99270000D03*
X130950000Y-96730000D03*
X130950000Y-99270000D03*
X128410000Y-96730000D03*
X128410000Y-99270000D03*
X125870000Y-96730000D03*
X125870000Y-99270000D03*
D17*
X99000000Y-42000000D03*
D15*
X193000000Y-93000000D03*
D16*
X193000000Y-95540000D03*
X193000000Y-98080000D03*
D18*
X121000000Y-98000000D03*
D17*
X240000000Y-80000000D03*
X240000000Y-52000000D03*
X241000000Y-42000000D03*
D15*
X149000000Y-147000000D03*
D16*
X149000000Y-149540000D03*
X149000000Y-152080000D03*
X149000000Y-154620000D03*
X149000000Y-157160000D03*
X149000000Y-159700000D03*
D15*
X228925000Y-98035000D03*
D16*
X228925000Y-95495000D03*
X228925000Y-92955000D03*
D15*
X138000000Y-109000000D03*
D16*
X135460000Y-109000000D03*
X132920000Y-109000000D03*
X130380000Y-109000000D03*
D17*
X148500000Y-184000000D03*
D15*
X139000000Y-120000000D03*
D16*
X139000000Y-122540000D03*
X139000000Y-125080000D03*
X139000000Y-127620000D03*
X139000000Y-130160000D03*
X139000000Y-132700000D03*
X139000000Y-135240000D03*
X139000000Y-137780000D03*
D15*
X103805000Y-112910000D03*
D16*
X103805000Y-115450000D03*
X103805000Y-117990000D03*
X103805000Y-120530000D03*
X103805000Y-123070000D03*
X103805000Y-125610000D03*
X103805000Y-128150000D03*
X103805000Y-130690000D03*
X103805000Y-133230000D03*
X103805000Y-135770000D03*
X103805000Y-138310000D03*
X103805000Y-140850000D03*
X103805000Y-143390000D03*
X103805000Y-145930000D03*
X103805000Y-148470000D03*
X103805000Y-151010000D03*
X103805000Y-153550000D03*
X103805000Y-156090000D03*
X103805000Y-158630000D03*
X103805000Y-161170000D03*
D15*
X128000000Y-160000000D03*
D16*
X130540000Y-160000000D03*
X133080000Y-160000000D03*
X135620000Y-160000000D03*
X138160000Y-160000000D03*
X140700000Y-160000000D03*
D15*
X219000000Y-93000000D03*
D16*
X219000000Y-95540000D03*
X219000000Y-98080000D03*
D17*
X188000000Y-80000000D03*
D15*
X240475000Y-74875000D03*
D16*
X240475000Y-72335000D03*
X240475000Y-69795000D03*
X240475000Y-67255000D03*
X240475000Y-64715000D03*
X240475000Y-62175000D03*
X240475000Y-59635000D03*
X240475000Y-57095000D03*
D17*
X162000000Y-181000000D03*
D18*
X179000000Y-49000000D03*
D17*
X210000000Y-113000000D03*
X188000000Y-52000000D03*
D18*
X179000000Y-98000000D03*
D17*
X210000000Y-181000000D03*
X116000000Y-173500000D03*
D15*
X206975000Y-98000000D03*
D16*
X206975000Y-95460000D03*
X206975000Y-92920000D03*
D18*
X121000000Y-49000000D03*
D17*
X99000000Y-184000000D03*
X116000000Y-184000000D03*
X241000000Y-184000000D03*
D15*
X119025000Y-112900000D03*
D16*
X119025000Y-115440000D03*
X119025000Y-117980000D03*
X119025000Y-120520000D03*
X119025000Y-123060000D03*
X119025000Y-125600000D03*
X119025000Y-128140000D03*
X119025000Y-130680000D03*
X119025000Y-133220000D03*
X119025000Y-135760000D03*
X119025000Y-138300000D03*
X119025000Y-140840000D03*
X119025000Y-143380000D03*
X119025000Y-145920000D03*
X119025000Y-148460000D03*
X119025000Y-151000000D03*
X119025000Y-153540000D03*
X119025000Y-156080000D03*
X119025000Y-158620000D03*
X119025000Y-161160000D03*
D17*
X162000000Y-113000000D03*
X148500000Y-173500000D03*
M02*
