%TF.GenerationSoftware,KiCad,Pcbnew,(6.0.8)*%
%TF.CreationDate,2022-11-08T16:17:17+09:00*%
%TF.ProjectId,Aquarium,41717561-7269-4756-9d2e-6b696361645f,1.0*%
%TF.SameCoordinates,Original*%
%TF.FileFunction,Drillmap*%
%TF.FilePolarity,Positive*%
%FSLAX45Y45*%
G04 Gerber Fmt 4.5, Leading zero omitted, Abs format (unit mm)*
G04 Created by KiCad (PCBNEW (6.0.8)) date 2022-11-08 16:17:17*
%MOMM*%
%LPD*%
G01*
G04 APERTURE LIST*
%ADD10C,0.050000*%
%ADD11C,0.200000*%
%ADD12C,0.270000*%
%ADD13C,0.320000*%
G04 APERTURE END LIST*
D10*
X9500000Y-4200000D02*
X9500000Y-18400000D01*
X24100000Y-18800000D02*
G75*
G03*
X24500000Y-18400000I0J400000D01*
G01*
X24100000Y-3800000D02*
X9900000Y-3800000D01*
X9900000Y-18800000D02*
X24100000Y-18800000D01*
X24500000Y-18400000D02*
X24500000Y-4200000D01*
X9900000Y-3800000D02*
G75*
G03*
X9500000Y-4200000I0J-400000D01*
G01*
X9500000Y-18400000D02*
G75*
G03*
X9900000Y-18800000I400000J0D01*
G01*
X24500000Y-4200000D02*
G75*
G03*
X24100000Y-3800000I-400000J0D01*
G01*
D11*
D12*
X11965000Y-4765000D02*
X12235000Y-5035000D01*
X12235000Y-4765000D02*
X11965000Y-5035000D01*
X11965000Y-9665000D02*
X12235000Y-9935000D01*
X12235000Y-9665000D02*
X11965000Y-9935000D01*
X17765000Y-4765000D02*
X18035000Y-5035000D01*
X18035000Y-4765000D02*
X17765000Y-5035000D01*
X17765000Y-9665000D02*
X18035000Y-9935000D01*
X18035000Y-9665000D02*
X17765000Y-9935000D01*
D13*
X10060000Y-4200000D02*
G75*
G03*
X10060000Y-4200000I-160000J0D01*
G01*
X10060000Y-18400000D02*
G75*
G03*
X10060000Y-18400000I-160000J0D01*
G01*
X11760000Y-17350000D02*
G75*
G03*
X11760000Y-17350000I-160000J0D01*
G01*
X11760000Y-18400000D02*
G75*
G03*
X11760000Y-18400000I-160000J0D01*
G01*
X15010000Y-17350000D02*
G75*
G03*
X15010000Y-17350000I-160000J0D01*
G01*
X15010000Y-18400000D02*
G75*
G03*
X15010000Y-18400000I-160000J0D01*
G01*
X16360000Y-11300000D02*
G75*
G03*
X16360000Y-11300000I-160000J0D01*
G01*
X16360000Y-18100000D02*
G75*
G03*
X16360000Y-18100000I-160000J0D01*
G01*
X18960000Y-5200000D02*
G75*
G03*
X18960000Y-5200000I-160000J0D01*
G01*
X18960000Y-8000000D02*
G75*
G03*
X18960000Y-8000000I-160000J0D01*
G01*
X21160000Y-11300000D02*
G75*
G03*
X21160000Y-11300000I-160000J0D01*
G01*
X21160000Y-18100000D02*
G75*
G03*
X21160000Y-18100000I-160000J0D01*
G01*
X24160000Y-5200000D02*
G75*
G03*
X24160000Y-5200000I-160000J0D01*
G01*
X24160000Y-8000000D02*
G75*
G03*
X24160000Y-8000000I-160000J0D01*
G01*
X24260000Y-4200000D02*
G75*
G03*
X24260000Y-4200000I-160000J0D01*
G01*
X24260000Y-18400000D02*
G75*
G03*
X24260000Y-18400000I-160000J0D01*
G01*
D11*
X9755119Y-19112976D02*
X9755119Y-18912976D01*
X9802738Y-18912976D01*
X9831310Y-18922500D01*
X9850357Y-18941548D01*
X9859881Y-18960595D01*
X9869405Y-18998690D01*
X9869405Y-19027262D01*
X9859881Y-19065357D01*
X9850357Y-19084405D01*
X9831310Y-19103452D01*
X9802738Y-19112976D01*
X9755119Y-19112976D01*
X9955119Y-19112976D02*
X9955119Y-18979643D01*
X9955119Y-19017738D02*
X9964643Y-18998690D01*
X9974167Y-18989167D01*
X9993214Y-18979643D01*
X10012262Y-18979643D01*
X10078929Y-19112976D02*
X10078929Y-18979643D01*
X10078929Y-18912976D02*
X10069405Y-18922500D01*
X10078929Y-18932024D01*
X10088452Y-18922500D01*
X10078929Y-18912976D01*
X10078929Y-18932024D01*
X10202738Y-19112976D02*
X10183690Y-19103452D01*
X10174167Y-19084405D01*
X10174167Y-18912976D01*
X10307500Y-19112976D02*
X10288452Y-19103452D01*
X10278929Y-19084405D01*
X10278929Y-18912976D01*
X10536071Y-19112976D02*
X10536071Y-18912976D01*
X10602738Y-19055833D01*
X10669405Y-18912976D01*
X10669405Y-19112976D01*
X10850357Y-19112976D02*
X10850357Y-19008214D01*
X10840833Y-18989167D01*
X10821786Y-18979643D01*
X10783690Y-18979643D01*
X10764643Y-18989167D01*
X10850357Y-19103452D02*
X10831310Y-19112976D01*
X10783690Y-19112976D01*
X10764643Y-19103452D01*
X10755119Y-19084405D01*
X10755119Y-19065357D01*
X10764643Y-19046310D01*
X10783690Y-19036786D01*
X10831310Y-19036786D01*
X10850357Y-19027262D01*
X10945595Y-18979643D02*
X10945595Y-19179643D01*
X10945595Y-18989167D02*
X10964643Y-18979643D01*
X11002738Y-18979643D01*
X11021786Y-18989167D01*
X11031310Y-18998690D01*
X11040833Y-19017738D01*
X11040833Y-19074881D01*
X11031310Y-19093929D01*
X11021786Y-19103452D01*
X11002738Y-19112976D01*
X10964643Y-19112976D01*
X10945595Y-19103452D01*
X11126548Y-19093929D02*
X11136071Y-19103452D01*
X11126548Y-19112976D01*
X11117024Y-19103452D01*
X11126548Y-19093929D01*
X11126548Y-19112976D01*
X11126548Y-18989167D02*
X11136071Y-18998690D01*
X11126548Y-19008214D01*
X11117024Y-18998690D01*
X11126548Y-18989167D01*
X11126548Y-19008214D01*
X9297500Y-19342500D02*
X9497500Y-19542500D01*
X9497500Y-19342500D02*
X9297500Y-19542500D01*
X9745595Y-19352024D02*
X9755119Y-19342500D01*
X9774167Y-19332976D01*
X9821786Y-19332976D01*
X9840833Y-19342500D01*
X9850357Y-19352024D01*
X9859881Y-19371071D01*
X9859881Y-19390119D01*
X9850357Y-19418690D01*
X9736071Y-19532976D01*
X9859881Y-19532976D01*
X9945595Y-19513929D02*
X9955119Y-19523452D01*
X9945595Y-19532976D01*
X9936071Y-19523452D01*
X9945595Y-19513929D01*
X9945595Y-19532976D01*
X10021786Y-19332976D02*
X10155119Y-19332976D01*
X10069405Y-19532976D01*
X10269405Y-19332976D02*
X10288452Y-19332976D01*
X10307500Y-19342500D01*
X10317024Y-19352024D01*
X10326548Y-19371071D01*
X10336071Y-19409167D01*
X10336071Y-19456786D01*
X10326548Y-19494881D01*
X10317024Y-19513929D01*
X10307500Y-19523452D01*
X10288452Y-19532976D01*
X10269405Y-19532976D01*
X10250357Y-19523452D01*
X10240833Y-19513929D01*
X10231310Y-19494881D01*
X10221786Y-19456786D01*
X10221786Y-19409167D01*
X10231310Y-19371071D01*
X10240833Y-19352024D01*
X10250357Y-19342500D01*
X10269405Y-19332976D01*
X10459881Y-19332976D02*
X10478929Y-19332976D01*
X10497976Y-19342500D01*
X10507500Y-19352024D01*
X10517024Y-19371071D01*
X10526548Y-19409167D01*
X10526548Y-19456786D01*
X10517024Y-19494881D01*
X10507500Y-19513929D01*
X10497976Y-19523452D01*
X10478929Y-19532976D01*
X10459881Y-19532976D01*
X10440833Y-19523452D01*
X10431310Y-19513929D01*
X10421786Y-19494881D01*
X10412262Y-19456786D01*
X10412262Y-19409167D01*
X10421786Y-19371071D01*
X10431310Y-19352024D01*
X10440833Y-19342500D01*
X10459881Y-19332976D01*
X10612262Y-19532976D02*
X10612262Y-19399643D01*
X10612262Y-19418690D02*
X10621786Y-19409167D01*
X10640833Y-19399643D01*
X10669405Y-19399643D01*
X10688452Y-19409167D01*
X10697976Y-19428214D01*
X10697976Y-19532976D01*
X10697976Y-19428214D02*
X10707500Y-19409167D01*
X10726548Y-19399643D01*
X10755119Y-19399643D01*
X10774167Y-19409167D01*
X10783690Y-19428214D01*
X10783690Y-19532976D01*
X10878929Y-19532976D02*
X10878929Y-19399643D01*
X10878929Y-19418690D02*
X10888452Y-19409167D01*
X10907500Y-19399643D01*
X10936071Y-19399643D01*
X10955119Y-19409167D01*
X10964643Y-19428214D01*
X10964643Y-19532976D01*
X10964643Y-19428214D02*
X10974167Y-19409167D01*
X10993214Y-19399643D01*
X11021786Y-19399643D01*
X11040833Y-19409167D01*
X11050357Y-19428214D01*
X11050357Y-19532976D01*
X11440833Y-19323452D02*
X11269405Y-19580595D01*
X11697976Y-19332976D02*
X11717024Y-19332976D01*
X11736071Y-19342500D01*
X11745595Y-19352024D01*
X11755119Y-19371071D01*
X11764643Y-19409167D01*
X11764643Y-19456786D01*
X11755119Y-19494881D01*
X11745595Y-19513929D01*
X11736071Y-19523452D01*
X11717024Y-19532976D01*
X11697976Y-19532976D01*
X11678928Y-19523452D01*
X11669405Y-19513929D01*
X11659881Y-19494881D01*
X11650357Y-19456786D01*
X11650357Y-19409167D01*
X11659881Y-19371071D01*
X11669405Y-19352024D01*
X11678928Y-19342500D01*
X11697976Y-19332976D01*
X11850357Y-19513929D02*
X11859881Y-19523452D01*
X11850357Y-19532976D01*
X11840833Y-19523452D01*
X11850357Y-19513929D01*
X11850357Y-19532976D01*
X12050357Y-19532976D02*
X11936071Y-19532976D01*
X11993214Y-19532976D02*
X11993214Y-19332976D01*
X11974167Y-19361548D01*
X11955119Y-19380595D01*
X11936071Y-19390119D01*
X12174167Y-19332976D02*
X12193214Y-19332976D01*
X12212262Y-19342500D01*
X12221786Y-19352024D01*
X12231309Y-19371071D01*
X12240833Y-19409167D01*
X12240833Y-19456786D01*
X12231309Y-19494881D01*
X12221786Y-19513929D01*
X12212262Y-19523452D01*
X12193214Y-19532976D01*
X12174167Y-19532976D01*
X12155119Y-19523452D01*
X12145595Y-19513929D01*
X12136071Y-19494881D01*
X12126548Y-19456786D01*
X12126548Y-19409167D01*
X12136071Y-19371071D01*
X12145595Y-19352024D01*
X12155119Y-19342500D01*
X12174167Y-19332976D01*
X12412262Y-19332976D02*
X12374167Y-19332976D01*
X12355119Y-19342500D01*
X12345595Y-19352024D01*
X12326548Y-19380595D01*
X12317024Y-19418690D01*
X12317024Y-19494881D01*
X12326548Y-19513929D01*
X12336071Y-19523452D01*
X12355119Y-19532976D01*
X12393214Y-19532976D01*
X12412262Y-19523452D01*
X12421786Y-19513929D01*
X12431309Y-19494881D01*
X12431309Y-19447262D01*
X12421786Y-19428214D01*
X12412262Y-19418690D01*
X12393214Y-19409167D01*
X12355119Y-19409167D01*
X12336071Y-19418690D01*
X12326548Y-19428214D01*
X12317024Y-19447262D01*
X12497976Y-19332976D02*
X12621786Y-19332976D01*
X12555119Y-19409167D01*
X12583690Y-19409167D01*
X12602738Y-19418690D01*
X12612262Y-19428214D01*
X12621786Y-19447262D01*
X12621786Y-19494881D01*
X12612262Y-19513929D01*
X12602738Y-19523452D01*
X12583690Y-19532976D01*
X12526548Y-19532976D01*
X12507500Y-19523452D01*
X12497976Y-19513929D01*
X12697976Y-19332976D02*
X12697976Y-19371071D01*
X12774167Y-19332976D02*
X12774167Y-19371071D01*
X13069405Y-19609167D02*
X13059881Y-19599643D01*
X13040833Y-19571071D01*
X13031309Y-19552024D01*
X13021786Y-19523452D01*
X13012262Y-19475833D01*
X13012262Y-19437738D01*
X13021786Y-19390119D01*
X13031309Y-19361548D01*
X13040833Y-19342500D01*
X13059881Y-19313929D01*
X13069405Y-19304405D01*
X13231309Y-19399643D02*
X13231309Y-19532976D01*
X13183690Y-19323452D02*
X13136071Y-19466310D01*
X13259881Y-19466310D01*
X13488452Y-19532976D02*
X13488452Y-19332976D01*
X13574167Y-19532976D02*
X13574167Y-19428214D01*
X13564643Y-19409167D01*
X13545595Y-19399643D01*
X13517024Y-19399643D01*
X13497976Y-19409167D01*
X13488452Y-19418690D01*
X13697976Y-19532976D02*
X13678928Y-19523452D01*
X13669405Y-19513929D01*
X13659881Y-19494881D01*
X13659881Y-19437738D01*
X13669405Y-19418690D01*
X13678928Y-19409167D01*
X13697976Y-19399643D01*
X13726548Y-19399643D01*
X13745595Y-19409167D01*
X13755119Y-19418690D01*
X13764643Y-19437738D01*
X13764643Y-19494881D01*
X13755119Y-19513929D01*
X13745595Y-19523452D01*
X13726548Y-19532976D01*
X13697976Y-19532976D01*
X13878928Y-19532976D02*
X13859881Y-19523452D01*
X13850357Y-19504405D01*
X13850357Y-19332976D01*
X14031309Y-19523452D02*
X14012262Y-19532976D01*
X13974167Y-19532976D01*
X13955119Y-19523452D01*
X13945595Y-19504405D01*
X13945595Y-19428214D01*
X13955119Y-19409167D01*
X13974167Y-19399643D01*
X14012262Y-19399643D01*
X14031309Y-19409167D01*
X14040833Y-19428214D01*
X14040833Y-19447262D01*
X13945595Y-19466310D01*
X14117024Y-19523452D02*
X14136071Y-19532976D01*
X14174167Y-19532976D01*
X14193214Y-19523452D01*
X14202738Y-19504405D01*
X14202738Y-19494881D01*
X14193214Y-19475833D01*
X14174167Y-19466310D01*
X14145595Y-19466310D01*
X14126548Y-19456786D01*
X14117024Y-19437738D01*
X14117024Y-19428214D01*
X14126548Y-19409167D01*
X14145595Y-19399643D01*
X14174167Y-19399643D01*
X14193214Y-19409167D01*
X14269405Y-19609167D02*
X14278928Y-19599643D01*
X14297976Y-19571071D01*
X14307500Y-19552024D01*
X14317024Y-19523452D01*
X14326548Y-19475833D01*
X14326548Y-19437738D01*
X14317024Y-19390119D01*
X14307500Y-19361548D01*
X14297976Y-19342500D01*
X14278928Y-19313929D01*
X14269405Y-19304405D01*
X14631309Y-19609167D02*
X14621786Y-19599643D01*
X14602738Y-19571071D01*
X14593214Y-19552024D01*
X14583690Y-19523452D01*
X14574167Y-19475833D01*
X14574167Y-19437738D01*
X14583690Y-19390119D01*
X14593214Y-19361548D01*
X14602738Y-19342500D01*
X14621786Y-19313929D01*
X14631309Y-19304405D01*
X14707500Y-19399643D02*
X14707500Y-19532976D01*
X14707500Y-19418690D02*
X14717024Y-19409167D01*
X14736071Y-19399643D01*
X14764643Y-19399643D01*
X14783690Y-19409167D01*
X14793214Y-19428214D01*
X14793214Y-19532976D01*
X14917024Y-19532976D02*
X14897976Y-19523452D01*
X14888452Y-19513929D01*
X14878928Y-19494881D01*
X14878928Y-19437738D01*
X14888452Y-19418690D01*
X14897976Y-19409167D01*
X14917024Y-19399643D01*
X14945595Y-19399643D01*
X14964643Y-19409167D01*
X14974167Y-19418690D01*
X14983690Y-19437738D01*
X14983690Y-19494881D01*
X14974167Y-19513929D01*
X14964643Y-19523452D01*
X14945595Y-19532976D01*
X14917024Y-19532976D01*
X15040833Y-19399643D02*
X15117024Y-19399643D01*
X15069405Y-19332976D02*
X15069405Y-19504405D01*
X15078928Y-19523452D01*
X15097976Y-19532976D01*
X15117024Y-19532976D01*
X15336071Y-19399643D02*
X15336071Y-19599643D01*
X15336071Y-19409167D02*
X15355119Y-19399643D01*
X15393214Y-19399643D01*
X15412262Y-19409167D01*
X15421786Y-19418690D01*
X15431309Y-19437738D01*
X15431309Y-19494881D01*
X15421786Y-19513929D01*
X15412262Y-19523452D01*
X15393214Y-19532976D01*
X15355119Y-19532976D01*
X15336071Y-19523452D01*
X15545595Y-19532976D02*
X15526548Y-19523452D01*
X15517024Y-19504405D01*
X15517024Y-19332976D01*
X15707500Y-19532976D02*
X15707500Y-19428214D01*
X15697976Y-19409167D01*
X15678928Y-19399643D01*
X15640833Y-19399643D01*
X15621786Y-19409167D01*
X15707500Y-19523452D02*
X15688452Y-19532976D01*
X15640833Y-19532976D01*
X15621786Y-19523452D01*
X15612262Y-19504405D01*
X15612262Y-19485357D01*
X15621786Y-19466310D01*
X15640833Y-19456786D01*
X15688452Y-19456786D01*
X15707500Y-19447262D01*
X15774167Y-19399643D02*
X15850357Y-19399643D01*
X15802738Y-19332976D02*
X15802738Y-19504405D01*
X15812262Y-19523452D01*
X15831309Y-19532976D01*
X15850357Y-19532976D01*
X15993214Y-19523452D02*
X15974167Y-19532976D01*
X15936071Y-19532976D01*
X15917024Y-19523452D01*
X15907500Y-19504405D01*
X15907500Y-19428214D01*
X15917024Y-19409167D01*
X15936071Y-19399643D01*
X15974167Y-19399643D01*
X15993214Y-19409167D01*
X16002738Y-19428214D01*
X16002738Y-19447262D01*
X15907500Y-19466310D01*
X16174167Y-19532976D02*
X16174167Y-19332976D01*
X16174167Y-19523452D02*
X16155119Y-19532976D01*
X16117024Y-19532976D01*
X16097976Y-19523452D01*
X16088452Y-19513929D01*
X16078928Y-19494881D01*
X16078928Y-19437738D01*
X16088452Y-19418690D01*
X16097976Y-19409167D01*
X16117024Y-19399643D01*
X16155119Y-19399643D01*
X16174167Y-19409167D01*
X16250357Y-19609167D02*
X16259881Y-19599643D01*
X16278928Y-19571071D01*
X16288452Y-19552024D01*
X16297976Y-19523452D01*
X16307500Y-19475833D01*
X16307500Y-19437738D01*
X16297976Y-19390119D01*
X16288452Y-19361548D01*
X16278928Y-19342500D01*
X16259881Y-19313929D01*
X16250357Y-19304405D01*
X9497500Y-19762500D02*
G75*
G03*
X9497500Y-19762500I-100000J0D01*
G01*
X9736071Y-19652976D02*
X9859881Y-19652976D01*
X9793214Y-19729167D01*
X9821786Y-19729167D01*
X9840833Y-19738690D01*
X9850357Y-19748214D01*
X9859881Y-19767262D01*
X9859881Y-19814881D01*
X9850357Y-19833929D01*
X9840833Y-19843452D01*
X9821786Y-19852976D01*
X9764643Y-19852976D01*
X9745595Y-19843452D01*
X9736071Y-19833929D01*
X9945595Y-19833929D02*
X9955119Y-19843452D01*
X9945595Y-19852976D01*
X9936071Y-19843452D01*
X9945595Y-19833929D01*
X9945595Y-19852976D01*
X10031310Y-19672024D02*
X10040833Y-19662500D01*
X10059881Y-19652976D01*
X10107500Y-19652976D01*
X10126548Y-19662500D01*
X10136071Y-19672024D01*
X10145595Y-19691071D01*
X10145595Y-19710119D01*
X10136071Y-19738690D01*
X10021786Y-19852976D01*
X10145595Y-19852976D01*
X10269405Y-19652976D02*
X10288452Y-19652976D01*
X10307500Y-19662500D01*
X10317024Y-19672024D01*
X10326548Y-19691071D01*
X10336071Y-19729167D01*
X10336071Y-19776786D01*
X10326548Y-19814881D01*
X10317024Y-19833929D01*
X10307500Y-19843452D01*
X10288452Y-19852976D01*
X10269405Y-19852976D01*
X10250357Y-19843452D01*
X10240833Y-19833929D01*
X10231310Y-19814881D01*
X10221786Y-19776786D01*
X10221786Y-19729167D01*
X10231310Y-19691071D01*
X10240833Y-19672024D01*
X10250357Y-19662500D01*
X10269405Y-19652976D01*
X10459881Y-19652976D02*
X10478929Y-19652976D01*
X10497976Y-19662500D01*
X10507500Y-19672024D01*
X10517024Y-19691071D01*
X10526548Y-19729167D01*
X10526548Y-19776786D01*
X10517024Y-19814881D01*
X10507500Y-19833929D01*
X10497976Y-19843452D01*
X10478929Y-19852976D01*
X10459881Y-19852976D01*
X10440833Y-19843452D01*
X10431310Y-19833929D01*
X10421786Y-19814881D01*
X10412262Y-19776786D01*
X10412262Y-19729167D01*
X10421786Y-19691071D01*
X10431310Y-19672024D01*
X10440833Y-19662500D01*
X10459881Y-19652976D01*
X10612262Y-19852976D02*
X10612262Y-19719643D01*
X10612262Y-19738690D02*
X10621786Y-19729167D01*
X10640833Y-19719643D01*
X10669405Y-19719643D01*
X10688452Y-19729167D01*
X10697976Y-19748214D01*
X10697976Y-19852976D01*
X10697976Y-19748214D02*
X10707500Y-19729167D01*
X10726548Y-19719643D01*
X10755119Y-19719643D01*
X10774167Y-19729167D01*
X10783690Y-19748214D01*
X10783690Y-19852976D01*
X10878929Y-19852976D02*
X10878929Y-19719643D01*
X10878929Y-19738690D02*
X10888452Y-19729167D01*
X10907500Y-19719643D01*
X10936071Y-19719643D01*
X10955119Y-19729167D01*
X10964643Y-19748214D01*
X10964643Y-19852976D01*
X10964643Y-19748214D02*
X10974167Y-19729167D01*
X10993214Y-19719643D01*
X11021786Y-19719643D01*
X11040833Y-19729167D01*
X11050357Y-19748214D01*
X11050357Y-19852976D01*
X11440833Y-19643452D02*
X11269405Y-19900595D01*
X11697976Y-19652976D02*
X11717024Y-19652976D01*
X11736071Y-19662500D01*
X11745595Y-19672024D01*
X11755119Y-19691071D01*
X11764643Y-19729167D01*
X11764643Y-19776786D01*
X11755119Y-19814881D01*
X11745595Y-19833929D01*
X11736071Y-19843452D01*
X11717024Y-19852976D01*
X11697976Y-19852976D01*
X11678928Y-19843452D01*
X11669405Y-19833929D01*
X11659881Y-19814881D01*
X11650357Y-19776786D01*
X11650357Y-19729167D01*
X11659881Y-19691071D01*
X11669405Y-19672024D01*
X11678928Y-19662500D01*
X11697976Y-19652976D01*
X11850357Y-19833929D02*
X11859881Y-19843452D01*
X11850357Y-19852976D01*
X11840833Y-19843452D01*
X11850357Y-19833929D01*
X11850357Y-19852976D01*
X12050357Y-19852976D02*
X11936071Y-19852976D01*
X11993214Y-19852976D02*
X11993214Y-19652976D01*
X11974167Y-19681548D01*
X11955119Y-19700595D01*
X11936071Y-19710119D01*
X12126548Y-19672024D02*
X12136071Y-19662500D01*
X12155119Y-19652976D01*
X12202738Y-19652976D01*
X12221786Y-19662500D01*
X12231309Y-19672024D01*
X12240833Y-19691071D01*
X12240833Y-19710119D01*
X12231309Y-19738690D01*
X12117024Y-19852976D01*
X12240833Y-19852976D01*
X12412262Y-19652976D02*
X12374167Y-19652976D01*
X12355119Y-19662500D01*
X12345595Y-19672024D01*
X12326548Y-19700595D01*
X12317024Y-19738690D01*
X12317024Y-19814881D01*
X12326548Y-19833929D01*
X12336071Y-19843452D01*
X12355119Y-19852976D01*
X12393214Y-19852976D01*
X12412262Y-19843452D01*
X12421786Y-19833929D01*
X12431309Y-19814881D01*
X12431309Y-19767262D01*
X12421786Y-19748214D01*
X12412262Y-19738690D01*
X12393214Y-19729167D01*
X12355119Y-19729167D01*
X12336071Y-19738690D01*
X12326548Y-19748214D01*
X12317024Y-19767262D01*
X12555119Y-19652976D02*
X12574167Y-19652976D01*
X12593214Y-19662500D01*
X12602738Y-19672024D01*
X12612262Y-19691071D01*
X12621786Y-19729167D01*
X12621786Y-19776786D01*
X12612262Y-19814881D01*
X12602738Y-19833929D01*
X12593214Y-19843452D01*
X12574167Y-19852976D01*
X12555119Y-19852976D01*
X12536071Y-19843452D01*
X12526548Y-19833929D01*
X12517024Y-19814881D01*
X12507500Y-19776786D01*
X12507500Y-19729167D01*
X12517024Y-19691071D01*
X12526548Y-19672024D01*
X12536071Y-19662500D01*
X12555119Y-19652976D01*
X12697976Y-19652976D02*
X12697976Y-19691071D01*
X12774167Y-19652976D02*
X12774167Y-19691071D01*
X13069405Y-19929167D02*
X13059881Y-19919643D01*
X13040833Y-19891071D01*
X13031309Y-19872024D01*
X13021786Y-19843452D01*
X13012262Y-19795833D01*
X13012262Y-19757738D01*
X13021786Y-19710119D01*
X13031309Y-19681548D01*
X13040833Y-19662500D01*
X13059881Y-19633929D01*
X13069405Y-19624405D01*
X13250357Y-19852976D02*
X13136071Y-19852976D01*
X13193214Y-19852976D02*
X13193214Y-19652976D01*
X13174167Y-19681548D01*
X13155119Y-19700595D01*
X13136071Y-19710119D01*
X13421786Y-19652976D02*
X13383690Y-19652976D01*
X13364643Y-19662500D01*
X13355119Y-19672024D01*
X13336071Y-19700595D01*
X13326548Y-19738690D01*
X13326548Y-19814881D01*
X13336071Y-19833929D01*
X13345595Y-19843452D01*
X13364643Y-19852976D01*
X13402738Y-19852976D01*
X13421786Y-19843452D01*
X13431309Y-19833929D01*
X13440833Y-19814881D01*
X13440833Y-19767262D01*
X13431309Y-19748214D01*
X13421786Y-19738690D01*
X13402738Y-19729167D01*
X13364643Y-19729167D01*
X13345595Y-19738690D01*
X13336071Y-19748214D01*
X13326548Y-19767262D01*
X13678928Y-19852976D02*
X13678928Y-19652976D01*
X13764643Y-19852976D02*
X13764643Y-19748214D01*
X13755119Y-19729167D01*
X13736071Y-19719643D01*
X13707500Y-19719643D01*
X13688452Y-19729167D01*
X13678928Y-19738690D01*
X13888452Y-19852976D02*
X13869405Y-19843452D01*
X13859881Y-19833929D01*
X13850357Y-19814881D01*
X13850357Y-19757738D01*
X13859881Y-19738690D01*
X13869405Y-19729167D01*
X13888452Y-19719643D01*
X13917024Y-19719643D01*
X13936071Y-19729167D01*
X13945595Y-19738690D01*
X13955119Y-19757738D01*
X13955119Y-19814881D01*
X13945595Y-19833929D01*
X13936071Y-19843452D01*
X13917024Y-19852976D01*
X13888452Y-19852976D01*
X14069405Y-19852976D02*
X14050357Y-19843452D01*
X14040833Y-19824405D01*
X14040833Y-19652976D01*
X14221786Y-19843452D02*
X14202738Y-19852976D01*
X14164643Y-19852976D01*
X14145595Y-19843452D01*
X14136071Y-19824405D01*
X14136071Y-19748214D01*
X14145595Y-19729167D01*
X14164643Y-19719643D01*
X14202738Y-19719643D01*
X14221786Y-19729167D01*
X14231309Y-19748214D01*
X14231309Y-19767262D01*
X14136071Y-19786310D01*
X14307500Y-19843452D02*
X14326548Y-19852976D01*
X14364643Y-19852976D01*
X14383690Y-19843452D01*
X14393214Y-19824405D01*
X14393214Y-19814881D01*
X14383690Y-19795833D01*
X14364643Y-19786310D01*
X14336071Y-19786310D01*
X14317024Y-19776786D01*
X14307500Y-19757738D01*
X14307500Y-19748214D01*
X14317024Y-19729167D01*
X14336071Y-19719643D01*
X14364643Y-19719643D01*
X14383690Y-19729167D01*
X14459881Y-19929167D02*
X14469405Y-19919643D01*
X14488452Y-19891071D01*
X14497976Y-19872024D01*
X14507500Y-19843452D01*
X14517024Y-19795833D01*
X14517024Y-19757738D01*
X14507500Y-19710119D01*
X14497976Y-19681548D01*
X14488452Y-19662500D01*
X14469405Y-19633929D01*
X14459881Y-19624405D01*
X14821786Y-19929167D02*
X14812262Y-19919643D01*
X14793214Y-19891071D01*
X14783690Y-19872024D01*
X14774167Y-19843452D01*
X14764643Y-19795833D01*
X14764643Y-19757738D01*
X14774167Y-19710119D01*
X14783690Y-19681548D01*
X14793214Y-19662500D01*
X14812262Y-19633929D01*
X14821786Y-19624405D01*
X14897976Y-19719643D02*
X14897976Y-19852976D01*
X14897976Y-19738690D02*
X14907500Y-19729167D01*
X14926548Y-19719643D01*
X14955119Y-19719643D01*
X14974167Y-19729167D01*
X14983690Y-19748214D01*
X14983690Y-19852976D01*
X15107500Y-19852976D02*
X15088452Y-19843452D01*
X15078928Y-19833929D01*
X15069405Y-19814881D01*
X15069405Y-19757738D01*
X15078928Y-19738690D01*
X15088452Y-19729167D01*
X15107500Y-19719643D01*
X15136071Y-19719643D01*
X15155119Y-19729167D01*
X15164643Y-19738690D01*
X15174167Y-19757738D01*
X15174167Y-19814881D01*
X15164643Y-19833929D01*
X15155119Y-19843452D01*
X15136071Y-19852976D01*
X15107500Y-19852976D01*
X15231309Y-19719643D02*
X15307500Y-19719643D01*
X15259881Y-19652976D02*
X15259881Y-19824405D01*
X15269405Y-19843452D01*
X15288452Y-19852976D01*
X15307500Y-19852976D01*
X15526548Y-19719643D02*
X15526548Y-19919643D01*
X15526548Y-19729167D02*
X15545595Y-19719643D01*
X15583690Y-19719643D01*
X15602738Y-19729167D01*
X15612262Y-19738690D01*
X15621786Y-19757738D01*
X15621786Y-19814881D01*
X15612262Y-19833929D01*
X15602738Y-19843452D01*
X15583690Y-19852976D01*
X15545595Y-19852976D01*
X15526548Y-19843452D01*
X15736071Y-19852976D02*
X15717024Y-19843452D01*
X15707500Y-19824405D01*
X15707500Y-19652976D01*
X15897976Y-19852976D02*
X15897976Y-19748214D01*
X15888452Y-19729167D01*
X15869405Y-19719643D01*
X15831309Y-19719643D01*
X15812262Y-19729167D01*
X15897976Y-19843452D02*
X15878928Y-19852976D01*
X15831309Y-19852976D01*
X15812262Y-19843452D01*
X15802738Y-19824405D01*
X15802738Y-19805357D01*
X15812262Y-19786310D01*
X15831309Y-19776786D01*
X15878928Y-19776786D01*
X15897976Y-19767262D01*
X15964643Y-19719643D02*
X16040833Y-19719643D01*
X15993214Y-19652976D02*
X15993214Y-19824405D01*
X16002738Y-19843452D01*
X16021786Y-19852976D01*
X16040833Y-19852976D01*
X16183690Y-19843452D02*
X16164643Y-19852976D01*
X16126548Y-19852976D01*
X16107500Y-19843452D01*
X16097976Y-19824405D01*
X16097976Y-19748214D01*
X16107500Y-19729167D01*
X16126548Y-19719643D01*
X16164643Y-19719643D01*
X16183690Y-19729167D01*
X16193214Y-19748214D01*
X16193214Y-19767262D01*
X16097976Y-19786310D01*
X16364643Y-19852976D02*
X16364643Y-19652976D01*
X16364643Y-19843452D02*
X16345595Y-19852976D01*
X16307500Y-19852976D01*
X16288452Y-19843452D01*
X16278928Y-19833929D01*
X16269405Y-19814881D01*
X16269405Y-19757738D01*
X16278928Y-19738690D01*
X16288452Y-19729167D01*
X16307500Y-19719643D01*
X16345595Y-19719643D01*
X16364643Y-19729167D01*
X16440833Y-19929167D02*
X16450357Y-19919643D01*
X16469405Y-19891071D01*
X16478928Y-19872024D01*
X16488452Y-19843452D01*
X16497976Y-19795833D01*
X16497976Y-19757738D01*
X16488452Y-19710119D01*
X16478928Y-19681548D01*
X16469405Y-19662500D01*
X16450357Y-19633929D01*
X16440833Y-19624405D01*
M02*
