%TF.GenerationSoftware,KiCad,Pcbnew,(6.0.8)*%
%TF.CreationDate,2022-11-08T16:17:17+09:00*%
%TF.ProjectId,Aquarium,41717561-7269-4756-9d2e-6b696361645f,1.0*%
%TF.SameCoordinates,Original*%
%TF.FileFunction,Drillmap*%
%TF.FilePolarity,Positive*%
%FSLAX45Y45*%
G04 Gerber Fmt 4.5, Leading zero omitted, Abs format (unit mm)*
G04 Created by KiCad (PCBNEW (6.0.8)) date 2022-11-08 16:17:17*
%MOMM*%
%LPD*%
G01*
G04 APERTURE LIST*
%ADD10C,0.050000*%
%ADD11C,0.200000*%
%ADD12C,0.060000*%
%ADD13C,0.070000*%
%ADD14C,0.100000*%
%ADD15C,0.130000*%
G04 APERTURE END LIST*
D10*
X9500000Y-4200000D02*
X9500000Y-18400000D01*
X24100000Y-18800000D02*
G75*
G03*
X24500000Y-18400000I0J400000D01*
G01*
X24100000Y-3800000D02*
X9900000Y-3800000D01*
X9900000Y-18800000D02*
X24100000Y-18800000D01*
X24500000Y-18400000D02*
X24500000Y-4200000D01*
X9900000Y-3800000D02*
G75*
G03*
X9500000Y-4200000I0J-400000D01*
G01*
X9500000Y-18400000D02*
G75*
G03*
X9900000Y-18800000I400000J0D01*
G01*
X24500000Y-4200000D02*
G75*
G03*
X24100000Y-3800000I-400000J0D01*
G01*
D11*
D12*
X9870000Y-14570000D02*
X9930000Y-14630000D01*
X9930000Y-14570000D02*
X9870000Y-14630000D01*
X9970000Y-13270000D02*
X10030000Y-13330000D01*
X10030000Y-13270000D02*
X9970000Y-13330000D01*
X10070000Y-17170000D02*
X10130000Y-17230000D01*
X10130000Y-17170000D02*
X10070000Y-17230000D01*
X11270000Y-12970000D02*
X11330000Y-13030000D01*
X11330000Y-12970000D02*
X11270000Y-13030000D01*
X11470000Y-12970000D02*
X11530000Y-13030000D01*
X11530000Y-12970000D02*
X11470000Y-13030000D01*
X12370000Y-11570000D02*
X12430000Y-11630000D01*
X12430000Y-11570000D02*
X12370000Y-11630000D01*
X12870000Y-11570000D02*
X12930000Y-11630000D01*
X12930000Y-11570000D02*
X12870000Y-11630000D01*
X16967002Y-12267002D02*
X17027002Y-12327002D01*
X17027002Y-12267002D02*
X16967002Y-12327002D01*
X16970000Y-13070000D02*
X17030000Y-13130000D01*
X17030000Y-13070000D02*
X16970000Y-13130000D01*
X17870000Y-12070000D02*
X17930000Y-12130000D01*
X17930000Y-12070000D02*
X17870000Y-12130000D01*
X19270000Y-12270000D02*
X19330000Y-12330000D01*
X19330000Y-12270000D02*
X19270000Y-12330000D01*
X21070000Y-9070000D02*
X21130000Y-9130000D01*
X21130000Y-9070000D02*
X21070000Y-9130000D01*
X21470000Y-8670000D02*
X21530000Y-8730000D01*
X21530000Y-8670000D02*
X21470000Y-8730000D01*
D13*
X10535000Y-17200000D02*
G75*
G03*
X10535000Y-17200000I-35000J0D01*
G01*
X11035000Y-17200000D02*
G75*
G03*
X11035000Y-17200000I-35000J0D01*
G01*
X12235000Y-11900000D02*
G75*
G03*
X12235000Y-11900000I-35000J0D01*
G01*
X12335000Y-11300000D02*
G75*
G03*
X12335000Y-11300000I-35000J0D01*
G01*
X12541533Y-11893467D02*
G75*
G03*
X12541533Y-11893467I-35000J0D01*
G01*
X13635000Y-16800000D02*
G75*
G03*
X13635000Y-16800000I-35000J0D01*
G01*
X14135000Y-14000000D02*
G75*
G03*
X14135000Y-14000000I-35000J0D01*
G01*
X14235000Y-13000000D02*
G75*
G03*
X14235000Y-13000000I-35000J0D01*
G01*
X14235000Y-13600000D02*
G75*
G03*
X14235000Y-13600000I-35000J0D01*
G01*
X14735000Y-11400000D02*
G75*
G03*
X14735000Y-11400000I-35000J0D01*
G01*
X16235000Y-14600000D02*
G75*
G03*
X16235000Y-14600000I-35000J0D01*
G01*
X19935000Y-10100000D02*
G75*
G03*
X19935000Y-10100000I-35000J0D01*
G01*
X21535000Y-9300000D02*
G75*
G03*
X21535000Y-9300000I-35000J0D01*
G01*
D14*
X10380500Y-11241000D02*
X10380500Y-11341000D01*
X10330500Y-11291000D02*
X10430500Y-11291000D01*
X10380500Y-11495000D02*
X10380500Y-11595000D01*
X10330500Y-11545000D02*
X10430500Y-11545000D01*
X10380500Y-11749000D02*
X10380500Y-11849000D01*
X10330500Y-11799000D02*
X10430500Y-11799000D01*
X10380500Y-12003000D02*
X10380500Y-12103000D01*
X10330500Y-12053000D02*
X10430500Y-12053000D01*
X10380500Y-12257000D02*
X10380500Y-12357000D01*
X10330500Y-12307000D02*
X10430500Y-12307000D01*
X10380500Y-12511000D02*
X10380500Y-12611000D01*
X10330500Y-12561000D02*
X10430500Y-12561000D01*
X10380500Y-12765000D02*
X10380500Y-12865000D01*
X10330500Y-12815000D02*
X10430500Y-12815000D01*
X10380500Y-13019000D02*
X10380500Y-13119000D01*
X10330500Y-13069000D02*
X10430500Y-13069000D01*
X10380500Y-13273000D02*
X10380500Y-13373000D01*
X10330500Y-13323000D02*
X10430500Y-13323000D01*
X10380500Y-13527000D02*
X10380500Y-13627000D01*
X10330500Y-13577000D02*
X10430500Y-13577000D01*
X10380500Y-13781000D02*
X10380500Y-13881000D01*
X10330500Y-13831000D02*
X10430500Y-13831000D01*
X10380500Y-14035000D02*
X10380500Y-14135000D01*
X10330500Y-14085000D02*
X10430500Y-14085000D01*
X10380500Y-14289000D02*
X10380500Y-14389000D01*
X10330500Y-14339000D02*
X10430500Y-14339000D01*
X10380500Y-14543000D02*
X10380500Y-14643000D01*
X10330500Y-14593000D02*
X10430500Y-14593000D01*
X10380500Y-14797000D02*
X10380500Y-14897000D01*
X10330500Y-14847000D02*
X10430500Y-14847000D01*
X10380500Y-15051000D02*
X10380500Y-15151000D01*
X10330500Y-15101000D02*
X10430500Y-15101000D01*
X10380500Y-15305000D02*
X10380500Y-15405000D01*
X10330500Y-15355000D02*
X10430500Y-15355000D01*
X10380500Y-15559000D02*
X10380500Y-15659000D01*
X10330500Y-15609000D02*
X10430500Y-15609000D01*
X10380500Y-15813000D02*
X10380500Y-15913000D01*
X10330500Y-15863000D02*
X10430500Y-15863000D01*
X10380500Y-16067000D02*
X10380500Y-16167000D01*
X10330500Y-16117000D02*
X10430500Y-16117000D01*
X11902500Y-11240000D02*
X11902500Y-11340000D01*
X11852500Y-11290000D02*
X11952500Y-11290000D01*
X11902500Y-11494000D02*
X11902500Y-11594000D01*
X11852500Y-11544000D02*
X11952500Y-11544000D01*
X11902500Y-11748000D02*
X11902500Y-11848000D01*
X11852500Y-11798000D02*
X11952500Y-11798000D01*
X11902500Y-12002000D02*
X11902500Y-12102000D01*
X11852500Y-12052000D02*
X11952500Y-12052000D01*
X11902500Y-12256000D02*
X11902500Y-12356000D01*
X11852500Y-12306000D02*
X11952500Y-12306000D01*
X11902500Y-12510000D02*
X11902500Y-12610000D01*
X11852500Y-12560000D02*
X11952500Y-12560000D01*
X11902500Y-12764000D02*
X11902500Y-12864000D01*
X11852500Y-12814000D02*
X11952500Y-12814000D01*
X11902500Y-13018000D02*
X11902500Y-13118000D01*
X11852500Y-13068000D02*
X11952500Y-13068000D01*
X11902500Y-13272000D02*
X11902500Y-13372000D01*
X11852500Y-13322000D02*
X11952500Y-13322000D01*
X11902500Y-13526000D02*
X11902500Y-13626000D01*
X11852500Y-13576000D02*
X11952500Y-13576000D01*
X11902500Y-13780000D02*
X11902500Y-13880000D01*
X11852500Y-13830000D02*
X11952500Y-13830000D01*
X11902500Y-14034000D02*
X11902500Y-14134000D01*
X11852500Y-14084000D02*
X11952500Y-14084000D01*
X11902500Y-14288000D02*
X11902500Y-14388000D01*
X11852500Y-14338000D02*
X11952500Y-14338000D01*
X11902500Y-14542000D02*
X11902500Y-14642000D01*
X11852500Y-14592000D02*
X11952500Y-14592000D01*
X11902500Y-14796000D02*
X11902500Y-14896000D01*
X11852500Y-14846000D02*
X11952500Y-14846000D01*
X11902500Y-15050000D02*
X11902500Y-15150000D01*
X11852500Y-15100000D02*
X11952500Y-15100000D01*
X11902500Y-15304000D02*
X11902500Y-15404000D01*
X11852500Y-15354000D02*
X11952500Y-15354000D01*
X11902500Y-15558000D02*
X11902500Y-15658000D01*
X11852500Y-15608000D02*
X11952500Y-15608000D01*
X11902500Y-15812000D02*
X11902500Y-15912000D01*
X11852500Y-15862000D02*
X11952500Y-15862000D01*
X11902500Y-16066000D02*
X11902500Y-16166000D01*
X11852500Y-16116000D02*
X11952500Y-16116000D01*
X12587000Y-9623000D02*
X12587000Y-9723000D01*
X12537000Y-9673000D02*
X12637000Y-9673000D01*
X12587000Y-9877000D02*
X12587000Y-9977000D01*
X12537000Y-9927000D02*
X12637000Y-9927000D01*
X12800000Y-15950000D02*
X12800000Y-16050000D01*
X12750000Y-16000000D02*
X12850000Y-16000000D01*
X12841000Y-9623000D02*
X12841000Y-9723000D01*
X12791000Y-9673000D02*
X12891000Y-9673000D01*
X12841000Y-9877000D02*
X12841000Y-9977000D01*
X12791000Y-9927000D02*
X12891000Y-9927000D01*
X13038000Y-10850000D02*
X13038000Y-10950000D01*
X12988000Y-10900000D02*
X13088000Y-10900000D01*
X13054000Y-15950000D02*
X13054000Y-16050000D01*
X13004000Y-16000000D02*
X13104000Y-16000000D01*
X13095000Y-9623000D02*
X13095000Y-9723000D01*
X13045000Y-9673000D02*
X13145000Y-9673000D01*
X13095000Y-9877000D02*
X13095000Y-9977000D01*
X13045000Y-9927000D02*
X13145000Y-9927000D01*
X13292000Y-10850000D02*
X13292000Y-10950000D01*
X13242000Y-10900000D02*
X13342000Y-10900000D01*
X13308000Y-15950000D02*
X13308000Y-16050000D01*
X13258000Y-16000000D02*
X13358000Y-16000000D01*
X13349000Y-9623000D02*
X13349000Y-9723000D01*
X13299000Y-9673000D02*
X13399000Y-9673000D01*
X13349000Y-9877000D02*
X13349000Y-9977000D01*
X13299000Y-9927000D02*
X13399000Y-9927000D01*
X13546000Y-10850000D02*
X13546000Y-10950000D01*
X13496000Y-10900000D02*
X13596000Y-10900000D01*
X13562000Y-15950000D02*
X13562000Y-16050000D01*
X13512000Y-16000000D02*
X13612000Y-16000000D01*
X13603000Y-9623000D02*
X13603000Y-9723000D01*
X13553000Y-9673000D02*
X13653000Y-9673000D01*
X13603000Y-9877000D02*
X13603000Y-9977000D01*
X13553000Y-9927000D02*
X13653000Y-9927000D01*
X13800000Y-10850000D02*
X13800000Y-10950000D01*
X13750000Y-10900000D02*
X13850000Y-10900000D01*
X13816000Y-15950000D02*
X13816000Y-16050000D01*
X13766000Y-16000000D02*
X13866000Y-16000000D01*
X13857000Y-9623000D02*
X13857000Y-9723000D01*
X13807000Y-9673000D02*
X13907000Y-9673000D01*
X13857000Y-9877000D02*
X13857000Y-9977000D01*
X13807000Y-9927000D02*
X13907000Y-9927000D01*
X13900000Y-11950000D02*
X13900000Y-12050000D01*
X13850000Y-12000000D02*
X13950000Y-12000000D01*
X13900000Y-12204000D02*
X13900000Y-12304000D01*
X13850000Y-12254000D02*
X13950000Y-12254000D01*
X13900000Y-12458000D02*
X13900000Y-12558000D01*
X13850000Y-12508000D02*
X13950000Y-12508000D01*
X13900000Y-12712000D02*
X13900000Y-12812000D01*
X13850000Y-12762000D02*
X13950000Y-12762000D01*
X13900000Y-12966000D02*
X13900000Y-13066000D01*
X13850000Y-13016000D02*
X13950000Y-13016000D01*
X13900000Y-13220000D02*
X13900000Y-13320000D01*
X13850000Y-13270000D02*
X13950000Y-13270000D01*
X13900000Y-13474000D02*
X13900000Y-13574000D01*
X13850000Y-13524000D02*
X13950000Y-13524000D01*
X13900000Y-13728000D02*
X13900000Y-13828000D01*
X13850000Y-13778000D02*
X13950000Y-13778000D01*
X14070000Y-15950000D02*
X14070000Y-16050000D01*
X14020000Y-16000000D02*
X14120000Y-16000000D01*
X14111000Y-9623000D02*
X14111000Y-9723000D01*
X14061000Y-9673000D02*
X14161000Y-9673000D01*
X14111000Y-9877000D02*
X14111000Y-9977000D01*
X14061000Y-9927000D02*
X14161000Y-9927000D01*
X14365000Y-9623000D02*
X14365000Y-9723000D01*
X14315000Y-9673000D02*
X14415000Y-9673000D01*
X14365000Y-9877000D02*
X14365000Y-9977000D01*
X14315000Y-9927000D02*
X14415000Y-9927000D01*
X14619000Y-9623000D02*
X14619000Y-9723000D01*
X14569000Y-9673000D02*
X14669000Y-9673000D01*
X14619000Y-9877000D02*
X14619000Y-9977000D01*
X14569000Y-9927000D02*
X14669000Y-9927000D01*
X14873000Y-9623000D02*
X14873000Y-9723000D01*
X14823000Y-9673000D02*
X14923000Y-9673000D01*
X14873000Y-9877000D02*
X14873000Y-9977000D01*
X14823000Y-9927000D02*
X14923000Y-9927000D01*
X14900000Y-14650000D02*
X14900000Y-14750000D01*
X14850000Y-14700000D02*
X14950000Y-14700000D01*
X14900000Y-14904000D02*
X14900000Y-15004000D01*
X14850000Y-14954000D02*
X14950000Y-14954000D01*
X14900000Y-15158000D02*
X14900000Y-15258000D01*
X14850000Y-15208000D02*
X14950000Y-15208000D01*
X14900000Y-15412000D02*
X14900000Y-15512000D01*
X14850000Y-15462000D02*
X14950000Y-15462000D01*
X14900000Y-15666000D02*
X14900000Y-15766000D01*
X14850000Y-15716000D02*
X14950000Y-15716000D01*
X14900000Y-15920000D02*
X14900000Y-16020000D01*
X14850000Y-15970000D02*
X14950000Y-15970000D01*
X15127000Y-9623000D02*
X15127000Y-9723000D01*
X15077000Y-9673000D02*
X15177000Y-9673000D01*
X15127000Y-9877000D02*
X15127000Y-9977000D01*
X15077000Y-9927000D02*
X15177000Y-9927000D01*
X15381000Y-9623000D02*
X15381000Y-9723000D01*
X15331000Y-9673000D02*
X15431000Y-9673000D01*
X15381000Y-9877000D02*
X15381000Y-9977000D01*
X15331000Y-9927000D02*
X15431000Y-9927000D01*
X15635000Y-9623000D02*
X15635000Y-9723000D01*
X15585000Y-9673000D02*
X15685000Y-9673000D01*
X15635000Y-9877000D02*
X15635000Y-9977000D01*
X15585000Y-9927000D02*
X15685000Y-9927000D01*
X15889000Y-9623000D02*
X15889000Y-9723000D01*
X15839000Y-9673000D02*
X15939000Y-9673000D01*
X15889000Y-9877000D02*
X15889000Y-9977000D01*
X15839000Y-9927000D02*
X15939000Y-9927000D01*
X16143000Y-9623000D02*
X16143000Y-9723000D01*
X16093000Y-9673000D02*
X16193000Y-9673000D01*
X16143000Y-9877000D02*
X16143000Y-9977000D01*
X16093000Y-9927000D02*
X16193000Y-9927000D01*
X16397000Y-9623000D02*
X16397000Y-9723000D01*
X16347000Y-9673000D02*
X16447000Y-9673000D01*
X16397000Y-9877000D02*
X16397000Y-9977000D01*
X16347000Y-9927000D02*
X16447000Y-9927000D01*
X16651000Y-9623000D02*
X16651000Y-9723000D01*
X16601000Y-9673000D02*
X16701000Y-9673000D01*
X16651000Y-9877000D02*
X16651000Y-9977000D01*
X16601000Y-9927000D02*
X16701000Y-9927000D01*
X16905000Y-9623000D02*
X16905000Y-9723000D01*
X16855000Y-9673000D02*
X16955000Y-9673000D01*
X16905000Y-9877000D02*
X16905000Y-9977000D01*
X16855000Y-9927000D02*
X16955000Y-9927000D01*
X17159000Y-9623000D02*
X17159000Y-9723000D01*
X17109000Y-9673000D02*
X17209000Y-9673000D01*
X17159000Y-9877000D02*
X17159000Y-9977000D01*
X17109000Y-9927000D02*
X17209000Y-9927000D01*
X17413000Y-9623000D02*
X17413000Y-9723000D01*
X17363000Y-9673000D02*
X17463000Y-9673000D01*
X17413000Y-9877000D02*
X17413000Y-9977000D01*
X17363000Y-9927000D02*
X17463000Y-9927000D01*
X19300000Y-9250000D02*
X19300000Y-9350000D01*
X19250000Y-9300000D02*
X19350000Y-9300000D01*
X19300000Y-9504000D02*
X19300000Y-9604000D01*
X19250000Y-9554000D02*
X19350000Y-9554000D01*
X19300000Y-9758000D02*
X19300000Y-9858000D01*
X19250000Y-9808000D02*
X19350000Y-9808000D01*
X20697500Y-9242000D02*
X20697500Y-9342000D01*
X20647500Y-9292000D02*
X20747500Y-9292000D01*
X20697500Y-9496000D02*
X20697500Y-9596000D01*
X20647500Y-9546000D02*
X20747500Y-9546000D01*
X20697500Y-9750000D02*
X20697500Y-9850000D01*
X20647500Y-9800000D02*
X20747500Y-9800000D01*
X21900000Y-9250000D02*
X21900000Y-9350000D01*
X21850000Y-9300000D02*
X21950000Y-9300000D01*
X21900000Y-9504000D02*
X21900000Y-9604000D01*
X21850000Y-9554000D02*
X21950000Y-9554000D01*
X21900000Y-9758000D02*
X21900000Y-9858000D01*
X21850000Y-9808000D02*
X21950000Y-9808000D01*
X22892500Y-9245500D02*
X22892500Y-9345500D01*
X22842500Y-9295500D02*
X22942500Y-9295500D01*
X22892500Y-9499500D02*
X22892500Y-9599500D01*
X22842500Y-9549500D02*
X22942500Y-9549500D01*
X22892500Y-9753500D02*
X22892500Y-9853500D01*
X22842500Y-9803500D02*
X22942500Y-9803500D01*
X24047500Y-5659500D02*
X24047500Y-5759500D01*
X23997500Y-5709500D02*
X24097500Y-5709500D01*
X24047500Y-5913500D02*
X24047500Y-6013500D01*
X23997500Y-5963500D02*
X24097500Y-5963500D01*
X24047500Y-6167500D02*
X24047500Y-6267500D01*
X23997500Y-6217500D02*
X24097500Y-6217500D01*
X24047500Y-6421500D02*
X24047500Y-6521500D01*
X23997500Y-6471500D02*
X24097500Y-6471500D01*
X24047500Y-6675500D02*
X24047500Y-6775500D01*
X23997500Y-6725500D02*
X24097500Y-6725500D01*
X24047500Y-6929500D02*
X24047500Y-7029500D01*
X23997500Y-6979500D02*
X24097500Y-6979500D01*
X24047500Y-7183500D02*
X24047500Y-7283500D01*
X23997500Y-7233500D02*
X24097500Y-7233500D01*
X24047500Y-7437500D02*
X24047500Y-7537500D01*
X23997500Y-7487500D02*
X24097500Y-7487500D01*
D15*
X22445962Y-11999962D02*
X22445962Y-11908038D01*
X22354038Y-11908038D01*
X22354038Y-11999962D01*
X22445962Y-11999962D01*
X22445962Y-12499962D02*
X22445962Y-12408038D01*
X22354038Y-12408038D01*
X22354038Y-12499962D01*
X22445962Y-12499962D01*
X22445962Y-13699962D02*
X22445962Y-13608038D01*
X22354038Y-13608038D01*
X22354038Y-13699962D01*
X22445962Y-13699962D01*
X22445962Y-14199962D02*
X22445962Y-14108038D01*
X22354038Y-14108038D01*
X22354038Y-14199962D01*
X22445962Y-14199962D01*
X22445962Y-15299962D02*
X22445962Y-15208038D01*
X22354038Y-15208038D01*
X22354038Y-15299962D01*
X22445962Y-15299962D01*
X22445962Y-15799962D02*
X22445962Y-15708038D01*
X22354038Y-15708038D01*
X22354038Y-15799962D01*
X22445962Y-15799962D01*
X22445962Y-16999962D02*
X22445962Y-16908038D01*
X22354038Y-16908038D01*
X22354038Y-16999962D01*
X22445962Y-16999962D01*
X22445962Y-17499962D02*
X22445962Y-17408038D01*
X22354038Y-17408038D01*
X22354038Y-17499962D01*
X22445962Y-17499962D01*
X23845962Y-11253962D02*
X23845962Y-11162038D01*
X23754038Y-11162038D01*
X23754038Y-11253962D01*
X23845962Y-11253962D01*
X23845962Y-11753962D02*
X23845962Y-11662038D01*
X23754038Y-11662038D01*
X23754038Y-11753962D01*
X23845962Y-11753962D01*
X23845962Y-12653962D02*
X23845962Y-12562038D01*
X23754038Y-12562038D01*
X23754038Y-12653962D01*
X23845962Y-12653962D01*
X23845962Y-13153962D02*
X23845962Y-13062038D01*
X23754038Y-13062038D01*
X23754038Y-13153962D01*
X23845962Y-13153962D01*
X23845962Y-14153962D02*
X23845962Y-14062038D01*
X23754038Y-14062038D01*
X23754038Y-14153962D01*
X23845962Y-14153962D01*
X23845962Y-14653962D02*
X23845962Y-14562038D01*
X23754038Y-14562038D01*
X23754038Y-14653962D01*
X23845962Y-14653962D01*
X23845962Y-15553962D02*
X23845962Y-15462038D01*
X23754038Y-15462038D01*
X23754038Y-15553962D01*
X23845962Y-15553962D01*
X23845962Y-16053962D02*
X23845962Y-15962038D01*
X23754038Y-15962038D01*
X23754038Y-16053962D01*
X23845962Y-16053962D01*
X23845962Y-16999962D02*
X23845962Y-16908038D01*
X23754038Y-16908038D01*
X23754038Y-16999962D01*
X23845962Y-16999962D01*
X23845962Y-17499962D02*
X23845962Y-17408038D01*
X23754038Y-17408038D01*
X23754038Y-17499962D01*
X23845962Y-17499962D01*
D11*
X9755119Y-19112976D02*
X9755119Y-18912976D01*
X9802738Y-18912976D01*
X9831310Y-18922500D01*
X9850357Y-18941548D01*
X9859881Y-18960595D01*
X9869405Y-18998690D01*
X9869405Y-19027262D01*
X9859881Y-19065357D01*
X9850357Y-19084405D01*
X9831310Y-19103452D01*
X9802738Y-19112976D01*
X9755119Y-19112976D01*
X9955119Y-19112976D02*
X9955119Y-18979643D01*
X9955119Y-19017738D02*
X9964643Y-18998690D01*
X9974167Y-18989167D01*
X9993214Y-18979643D01*
X10012262Y-18979643D01*
X10078929Y-19112976D02*
X10078929Y-18979643D01*
X10078929Y-18912976D02*
X10069405Y-18922500D01*
X10078929Y-18932024D01*
X10088452Y-18922500D01*
X10078929Y-18912976D01*
X10078929Y-18932024D01*
X10202738Y-19112976D02*
X10183690Y-19103452D01*
X10174167Y-19084405D01*
X10174167Y-18912976D01*
X10307500Y-19112976D02*
X10288452Y-19103452D01*
X10278929Y-19084405D01*
X10278929Y-18912976D01*
X10536071Y-19112976D02*
X10536071Y-18912976D01*
X10602738Y-19055833D01*
X10669405Y-18912976D01*
X10669405Y-19112976D01*
X10850357Y-19112976D02*
X10850357Y-19008214D01*
X10840833Y-18989167D01*
X10821786Y-18979643D01*
X10783690Y-18979643D01*
X10764643Y-18989167D01*
X10850357Y-19103452D02*
X10831310Y-19112976D01*
X10783690Y-19112976D01*
X10764643Y-19103452D01*
X10755119Y-19084405D01*
X10755119Y-19065357D01*
X10764643Y-19046310D01*
X10783690Y-19036786D01*
X10831310Y-19036786D01*
X10850357Y-19027262D01*
X10945595Y-18979643D02*
X10945595Y-19179643D01*
X10945595Y-18989167D02*
X10964643Y-18979643D01*
X11002738Y-18979643D01*
X11021786Y-18989167D01*
X11031310Y-18998690D01*
X11040833Y-19017738D01*
X11040833Y-19074881D01*
X11031310Y-19093929D01*
X11021786Y-19103452D01*
X11002738Y-19112976D01*
X10964643Y-19112976D01*
X10945595Y-19103452D01*
X11126548Y-19093929D02*
X11136071Y-19103452D01*
X11126548Y-19112976D01*
X11117024Y-19103452D01*
X11126548Y-19093929D01*
X11126548Y-19112976D01*
X11126548Y-18989167D02*
X11136071Y-18998690D01*
X11126548Y-19008214D01*
X11117024Y-18998690D01*
X11126548Y-18989167D01*
X11126548Y-19008214D01*
D12*
X9437500Y-19412500D02*
X9497500Y-19472500D01*
X9497500Y-19412500D02*
X9437500Y-19472500D01*
D11*
X9793214Y-19332976D02*
X9812262Y-19332976D01*
X9831310Y-19342500D01*
X9840833Y-19352024D01*
X9850357Y-19371071D01*
X9859881Y-19409167D01*
X9859881Y-19456786D01*
X9850357Y-19494881D01*
X9840833Y-19513929D01*
X9831310Y-19523452D01*
X9812262Y-19532976D01*
X9793214Y-19532976D01*
X9774167Y-19523452D01*
X9764643Y-19513929D01*
X9755119Y-19494881D01*
X9745595Y-19456786D01*
X9745595Y-19409167D01*
X9755119Y-19371071D01*
X9764643Y-19352024D01*
X9774167Y-19342500D01*
X9793214Y-19332976D01*
X9945595Y-19513929D02*
X9955119Y-19523452D01*
X9945595Y-19532976D01*
X9936071Y-19523452D01*
X9945595Y-19513929D01*
X9945595Y-19532976D01*
X10126548Y-19332976D02*
X10088452Y-19332976D01*
X10069405Y-19342500D01*
X10059881Y-19352024D01*
X10040833Y-19380595D01*
X10031310Y-19418690D01*
X10031310Y-19494881D01*
X10040833Y-19513929D01*
X10050357Y-19523452D01*
X10069405Y-19532976D01*
X10107500Y-19532976D01*
X10126548Y-19523452D01*
X10136071Y-19513929D01*
X10145595Y-19494881D01*
X10145595Y-19447262D01*
X10136071Y-19428214D01*
X10126548Y-19418690D01*
X10107500Y-19409167D01*
X10069405Y-19409167D01*
X10050357Y-19418690D01*
X10040833Y-19428214D01*
X10031310Y-19447262D01*
X10269405Y-19332976D02*
X10288452Y-19332976D01*
X10307500Y-19342500D01*
X10317024Y-19352024D01*
X10326548Y-19371071D01*
X10336071Y-19409167D01*
X10336071Y-19456786D01*
X10326548Y-19494881D01*
X10317024Y-19513929D01*
X10307500Y-19523452D01*
X10288452Y-19532976D01*
X10269405Y-19532976D01*
X10250357Y-19523452D01*
X10240833Y-19513929D01*
X10231310Y-19494881D01*
X10221786Y-19456786D01*
X10221786Y-19409167D01*
X10231310Y-19371071D01*
X10240833Y-19352024D01*
X10250357Y-19342500D01*
X10269405Y-19332976D01*
X10459881Y-19332976D02*
X10478929Y-19332976D01*
X10497976Y-19342500D01*
X10507500Y-19352024D01*
X10517024Y-19371071D01*
X10526548Y-19409167D01*
X10526548Y-19456786D01*
X10517024Y-19494881D01*
X10507500Y-19513929D01*
X10497976Y-19523452D01*
X10478929Y-19532976D01*
X10459881Y-19532976D01*
X10440833Y-19523452D01*
X10431310Y-19513929D01*
X10421786Y-19494881D01*
X10412262Y-19456786D01*
X10412262Y-19409167D01*
X10421786Y-19371071D01*
X10431310Y-19352024D01*
X10440833Y-19342500D01*
X10459881Y-19332976D01*
X10612262Y-19532976D02*
X10612262Y-19399643D01*
X10612262Y-19418690D02*
X10621786Y-19409167D01*
X10640833Y-19399643D01*
X10669405Y-19399643D01*
X10688452Y-19409167D01*
X10697976Y-19428214D01*
X10697976Y-19532976D01*
X10697976Y-19428214D02*
X10707500Y-19409167D01*
X10726548Y-19399643D01*
X10755119Y-19399643D01*
X10774167Y-19409167D01*
X10783690Y-19428214D01*
X10783690Y-19532976D01*
X10878929Y-19532976D02*
X10878929Y-19399643D01*
X10878929Y-19418690D02*
X10888452Y-19409167D01*
X10907500Y-19399643D01*
X10936071Y-19399643D01*
X10955119Y-19409167D01*
X10964643Y-19428214D01*
X10964643Y-19532976D01*
X10964643Y-19428214D02*
X10974167Y-19409167D01*
X10993214Y-19399643D01*
X11021786Y-19399643D01*
X11040833Y-19409167D01*
X11050357Y-19428214D01*
X11050357Y-19532976D01*
X11440833Y-19323452D02*
X11269405Y-19580595D01*
X11697976Y-19332976D02*
X11717024Y-19332976D01*
X11736071Y-19342500D01*
X11745595Y-19352024D01*
X11755119Y-19371071D01*
X11764643Y-19409167D01*
X11764643Y-19456786D01*
X11755119Y-19494881D01*
X11745595Y-19513929D01*
X11736071Y-19523452D01*
X11717024Y-19532976D01*
X11697976Y-19532976D01*
X11678928Y-19523452D01*
X11669405Y-19513929D01*
X11659881Y-19494881D01*
X11650357Y-19456786D01*
X11650357Y-19409167D01*
X11659881Y-19371071D01*
X11669405Y-19352024D01*
X11678928Y-19342500D01*
X11697976Y-19332976D01*
X11850357Y-19513929D02*
X11859881Y-19523452D01*
X11850357Y-19532976D01*
X11840833Y-19523452D01*
X11850357Y-19513929D01*
X11850357Y-19532976D01*
X11983690Y-19332976D02*
X12002738Y-19332976D01*
X12021786Y-19342500D01*
X12031309Y-19352024D01*
X12040833Y-19371071D01*
X12050357Y-19409167D01*
X12050357Y-19456786D01*
X12040833Y-19494881D01*
X12031309Y-19513929D01*
X12021786Y-19523452D01*
X12002738Y-19532976D01*
X11983690Y-19532976D01*
X11964643Y-19523452D01*
X11955119Y-19513929D01*
X11945595Y-19494881D01*
X11936071Y-19456786D01*
X11936071Y-19409167D01*
X11945595Y-19371071D01*
X11955119Y-19352024D01*
X11964643Y-19342500D01*
X11983690Y-19332976D01*
X12126548Y-19352024D02*
X12136071Y-19342500D01*
X12155119Y-19332976D01*
X12202738Y-19332976D01*
X12221786Y-19342500D01*
X12231309Y-19352024D01*
X12240833Y-19371071D01*
X12240833Y-19390119D01*
X12231309Y-19418690D01*
X12117024Y-19532976D01*
X12240833Y-19532976D01*
X12307500Y-19332976D02*
X12431309Y-19332976D01*
X12364643Y-19409167D01*
X12393214Y-19409167D01*
X12412262Y-19418690D01*
X12421786Y-19428214D01*
X12431309Y-19447262D01*
X12431309Y-19494881D01*
X12421786Y-19513929D01*
X12412262Y-19523452D01*
X12393214Y-19532976D01*
X12336071Y-19532976D01*
X12317024Y-19523452D01*
X12307500Y-19513929D01*
X12602738Y-19332976D02*
X12564643Y-19332976D01*
X12545595Y-19342500D01*
X12536071Y-19352024D01*
X12517024Y-19380595D01*
X12507500Y-19418690D01*
X12507500Y-19494881D01*
X12517024Y-19513929D01*
X12526548Y-19523452D01*
X12545595Y-19532976D01*
X12583690Y-19532976D01*
X12602738Y-19523452D01*
X12612262Y-19513929D01*
X12621786Y-19494881D01*
X12621786Y-19447262D01*
X12612262Y-19428214D01*
X12602738Y-19418690D01*
X12583690Y-19409167D01*
X12545595Y-19409167D01*
X12526548Y-19418690D01*
X12517024Y-19428214D01*
X12507500Y-19447262D01*
X12697976Y-19332976D02*
X12697976Y-19371071D01*
X12774167Y-19332976D02*
X12774167Y-19371071D01*
X13069405Y-19609167D02*
X13059881Y-19599643D01*
X13040833Y-19571071D01*
X13031309Y-19552024D01*
X13021786Y-19523452D01*
X13012262Y-19475833D01*
X13012262Y-19437738D01*
X13021786Y-19390119D01*
X13031309Y-19361548D01*
X13040833Y-19342500D01*
X13059881Y-19313929D01*
X13069405Y-19304405D01*
X13250357Y-19532976D02*
X13136071Y-19532976D01*
X13193214Y-19532976D02*
X13193214Y-19332976D01*
X13174167Y-19361548D01*
X13155119Y-19380595D01*
X13136071Y-19390119D01*
X13317024Y-19332976D02*
X13440833Y-19332976D01*
X13374167Y-19409167D01*
X13402738Y-19409167D01*
X13421786Y-19418690D01*
X13431309Y-19428214D01*
X13440833Y-19447262D01*
X13440833Y-19494881D01*
X13431309Y-19513929D01*
X13421786Y-19523452D01*
X13402738Y-19532976D01*
X13345595Y-19532976D01*
X13326548Y-19523452D01*
X13317024Y-19513929D01*
X13678928Y-19532976D02*
X13678928Y-19332976D01*
X13764643Y-19532976D02*
X13764643Y-19428214D01*
X13755119Y-19409167D01*
X13736071Y-19399643D01*
X13707500Y-19399643D01*
X13688452Y-19409167D01*
X13678928Y-19418690D01*
X13888452Y-19532976D02*
X13869405Y-19523452D01*
X13859881Y-19513929D01*
X13850357Y-19494881D01*
X13850357Y-19437738D01*
X13859881Y-19418690D01*
X13869405Y-19409167D01*
X13888452Y-19399643D01*
X13917024Y-19399643D01*
X13936071Y-19409167D01*
X13945595Y-19418690D01*
X13955119Y-19437738D01*
X13955119Y-19494881D01*
X13945595Y-19513929D01*
X13936071Y-19523452D01*
X13917024Y-19532976D01*
X13888452Y-19532976D01*
X14069405Y-19532976D02*
X14050357Y-19523452D01*
X14040833Y-19504405D01*
X14040833Y-19332976D01*
X14221786Y-19523452D02*
X14202738Y-19532976D01*
X14164643Y-19532976D01*
X14145595Y-19523452D01*
X14136071Y-19504405D01*
X14136071Y-19428214D01*
X14145595Y-19409167D01*
X14164643Y-19399643D01*
X14202738Y-19399643D01*
X14221786Y-19409167D01*
X14231309Y-19428214D01*
X14231309Y-19447262D01*
X14136071Y-19466310D01*
X14307500Y-19523452D02*
X14326548Y-19532976D01*
X14364643Y-19532976D01*
X14383690Y-19523452D01*
X14393214Y-19504405D01*
X14393214Y-19494881D01*
X14383690Y-19475833D01*
X14364643Y-19466310D01*
X14336071Y-19466310D01*
X14317024Y-19456786D01*
X14307500Y-19437738D01*
X14307500Y-19428214D01*
X14317024Y-19409167D01*
X14336071Y-19399643D01*
X14364643Y-19399643D01*
X14383690Y-19409167D01*
X14459881Y-19609167D02*
X14469405Y-19599643D01*
X14488452Y-19571071D01*
X14497976Y-19552024D01*
X14507500Y-19523452D01*
X14517024Y-19475833D01*
X14517024Y-19437738D01*
X14507500Y-19390119D01*
X14497976Y-19361548D01*
X14488452Y-19342500D01*
X14469405Y-19313929D01*
X14459881Y-19304405D01*
D13*
X9497500Y-19706500D02*
G75*
G03*
X9497500Y-19706500I-35000J0D01*
G01*
D11*
X9793214Y-19596976D02*
X9812262Y-19596976D01*
X9831310Y-19606500D01*
X9840833Y-19616024D01*
X9850357Y-19635071D01*
X9859881Y-19673167D01*
X9859881Y-19720786D01*
X9850357Y-19758881D01*
X9840833Y-19777929D01*
X9831310Y-19787452D01*
X9812262Y-19796976D01*
X9793214Y-19796976D01*
X9774167Y-19787452D01*
X9764643Y-19777929D01*
X9755119Y-19758881D01*
X9745595Y-19720786D01*
X9745595Y-19673167D01*
X9755119Y-19635071D01*
X9764643Y-19616024D01*
X9774167Y-19606500D01*
X9793214Y-19596976D01*
X9945595Y-19777929D02*
X9955119Y-19787452D01*
X9945595Y-19796976D01*
X9936071Y-19787452D01*
X9945595Y-19777929D01*
X9945595Y-19796976D01*
X10021786Y-19596976D02*
X10155119Y-19596976D01*
X10069405Y-19796976D01*
X10269405Y-19596976D02*
X10288452Y-19596976D01*
X10307500Y-19606500D01*
X10317024Y-19616024D01*
X10326548Y-19635071D01*
X10336071Y-19673167D01*
X10336071Y-19720786D01*
X10326548Y-19758881D01*
X10317024Y-19777929D01*
X10307500Y-19787452D01*
X10288452Y-19796976D01*
X10269405Y-19796976D01*
X10250357Y-19787452D01*
X10240833Y-19777929D01*
X10231310Y-19758881D01*
X10221786Y-19720786D01*
X10221786Y-19673167D01*
X10231310Y-19635071D01*
X10240833Y-19616024D01*
X10250357Y-19606500D01*
X10269405Y-19596976D01*
X10459881Y-19596976D02*
X10478929Y-19596976D01*
X10497976Y-19606500D01*
X10507500Y-19616024D01*
X10517024Y-19635071D01*
X10526548Y-19673167D01*
X10526548Y-19720786D01*
X10517024Y-19758881D01*
X10507500Y-19777929D01*
X10497976Y-19787452D01*
X10478929Y-19796976D01*
X10459881Y-19796976D01*
X10440833Y-19787452D01*
X10431310Y-19777929D01*
X10421786Y-19758881D01*
X10412262Y-19720786D01*
X10412262Y-19673167D01*
X10421786Y-19635071D01*
X10431310Y-19616024D01*
X10440833Y-19606500D01*
X10459881Y-19596976D01*
X10612262Y-19796976D02*
X10612262Y-19663643D01*
X10612262Y-19682690D02*
X10621786Y-19673167D01*
X10640833Y-19663643D01*
X10669405Y-19663643D01*
X10688452Y-19673167D01*
X10697976Y-19692214D01*
X10697976Y-19796976D01*
X10697976Y-19692214D02*
X10707500Y-19673167D01*
X10726548Y-19663643D01*
X10755119Y-19663643D01*
X10774167Y-19673167D01*
X10783690Y-19692214D01*
X10783690Y-19796976D01*
X10878929Y-19796976D02*
X10878929Y-19663643D01*
X10878929Y-19682690D02*
X10888452Y-19673167D01*
X10907500Y-19663643D01*
X10936071Y-19663643D01*
X10955119Y-19673167D01*
X10964643Y-19692214D01*
X10964643Y-19796976D01*
X10964643Y-19692214D02*
X10974167Y-19673167D01*
X10993214Y-19663643D01*
X11021786Y-19663643D01*
X11040833Y-19673167D01*
X11050357Y-19692214D01*
X11050357Y-19796976D01*
X11440833Y-19587452D02*
X11269405Y-19844595D01*
X11697976Y-19596976D02*
X11717024Y-19596976D01*
X11736071Y-19606500D01*
X11745595Y-19616024D01*
X11755119Y-19635071D01*
X11764643Y-19673167D01*
X11764643Y-19720786D01*
X11755119Y-19758881D01*
X11745595Y-19777929D01*
X11736071Y-19787452D01*
X11717024Y-19796976D01*
X11697976Y-19796976D01*
X11678928Y-19787452D01*
X11669405Y-19777929D01*
X11659881Y-19758881D01*
X11650357Y-19720786D01*
X11650357Y-19673167D01*
X11659881Y-19635071D01*
X11669405Y-19616024D01*
X11678928Y-19606500D01*
X11697976Y-19596976D01*
X11850357Y-19777929D02*
X11859881Y-19787452D01*
X11850357Y-19796976D01*
X11840833Y-19787452D01*
X11850357Y-19777929D01*
X11850357Y-19796976D01*
X11983690Y-19596976D02*
X12002738Y-19596976D01*
X12021786Y-19606500D01*
X12031309Y-19616024D01*
X12040833Y-19635071D01*
X12050357Y-19673167D01*
X12050357Y-19720786D01*
X12040833Y-19758881D01*
X12031309Y-19777929D01*
X12021786Y-19787452D01*
X12002738Y-19796976D01*
X11983690Y-19796976D01*
X11964643Y-19787452D01*
X11955119Y-19777929D01*
X11945595Y-19758881D01*
X11936071Y-19720786D01*
X11936071Y-19673167D01*
X11945595Y-19635071D01*
X11955119Y-19616024D01*
X11964643Y-19606500D01*
X11983690Y-19596976D01*
X12126548Y-19616024D02*
X12136071Y-19606500D01*
X12155119Y-19596976D01*
X12202738Y-19596976D01*
X12221786Y-19606500D01*
X12231309Y-19616024D01*
X12240833Y-19635071D01*
X12240833Y-19654119D01*
X12231309Y-19682690D01*
X12117024Y-19796976D01*
X12240833Y-19796976D01*
X12307500Y-19596976D02*
X12440833Y-19596976D01*
X12355119Y-19796976D01*
X12602738Y-19596976D02*
X12564643Y-19596976D01*
X12545595Y-19606500D01*
X12536071Y-19616024D01*
X12517024Y-19644595D01*
X12507500Y-19682690D01*
X12507500Y-19758881D01*
X12517024Y-19777929D01*
X12526548Y-19787452D01*
X12545595Y-19796976D01*
X12583690Y-19796976D01*
X12602738Y-19787452D01*
X12612262Y-19777929D01*
X12621786Y-19758881D01*
X12621786Y-19711262D01*
X12612262Y-19692214D01*
X12602738Y-19682690D01*
X12583690Y-19673167D01*
X12545595Y-19673167D01*
X12526548Y-19682690D01*
X12517024Y-19692214D01*
X12507500Y-19711262D01*
X12697976Y-19596976D02*
X12697976Y-19635071D01*
X12774167Y-19596976D02*
X12774167Y-19635071D01*
X13069405Y-19873167D02*
X13059881Y-19863643D01*
X13040833Y-19835071D01*
X13031309Y-19816024D01*
X13021786Y-19787452D01*
X13012262Y-19739833D01*
X13012262Y-19701738D01*
X13021786Y-19654119D01*
X13031309Y-19625548D01*
X13040833Y-19606500D01*
X13059881Y-19577929D01*
X13069405Y-19568405D01*
X13250357Y-19796976D02*
X13136071Y-19796976D01*
X13193214Y-19796976D02*
X13193214Y-19596976D01*
X13174167Y-19625548D01*
X13155119Y-19644595D01*
X13136071Y-19654119D01*
X13317024Y-19596976D02*
X13440833Y-19596976D01*
X13374167Y-19673167D01*
X13402738Y-19673167D01*
X13421786Y-19682690D01*
X13431309Y-19692214D01*
X13440833Y-19711262D01*
X13440833Y-19758881D01*
X13431309Y-19777929D01*
X13421786Y-19787452D01*
X13402738Y-19796976D01*
X13345595Y-19796976D01*
X13326548Y-19787452D01*
X13317024Y-19777929D01*
X13678928Y-19796976D02*
X13678928Y-19596976D01*
X13764643Y-19796976D02*
X13764643Y-19692214D01*
X13755119Y-19673167D01*
X13736071Y-19663643D01*
X13707500Y-19663643D01*
X13688452Y-19673167D01*
X13678928Y-19682690D01*
X13888452Y-19796976D02*
X13869405Y-19787452D01*
X13859881Y-19777929D01*
X13850357Y-19758881D01*
X13850357Y-19701738D01*
X13859881Y-19682690D01*
X13869405Y-19673167D01*
X13888452Y-19663643D01*
X13917024Y-19663643D01*
X13936071Y-19673167D01*
X13945595Y-19682690D01*
X13955119Y-19701738D01*
X13955119Y-19758881D01*
X13945595Y-19777929D01*
X13936071Y-19787452D01*
X13917024Y-19796976D01*
X13888452Y-19796976D01*
X14069405Y-19796976D02*
X14050357Y-19787452D01*
X14040833Y-19768405D01*
X14040833Y-19596976D01*
X14221786Y-19787452D02*
X14202738Y-19796976D01*
X14164643Y-19796976D01*
X14145595Y-19787452D01*
X14136071Y-19768405D01*
X14136071Y-19692214D01*
X14145595Y-19673167D01*
X14164643Y-19663643D01*
X14202738Y-19663643D01*
X14221786Y-19673167D01*
X14231309Y-19692214D01*
X14231309Y-19711262D01*
X14136071Y-19730310D01*
X14307500Y-19787452D02*
X14326548Y-19796976D01*
X14364643Y-19796976D01*
X14383690Y-19787452D01*
X14393214Y-19768405D01*
X14393214Y-19758881D01*
X14383690Y-19739833D01*
X14364643Y-19730310D01*
X14336071Y-19730310D01*
X14317024Y-19720786D01*
X14307500Y-19701738D01*
X14307500Y-19692214D01*
X14317024Y-19673167D01*
X14336071Y-19663643D01*
X14364643Y-19663643D01*
X14383690Y-19673167D01*
X14459881Y-19873167D02*
X14469405Y-19863643D01*
X14488452Y-19835071D01*
X14497976Y-19816024D01*
X14507500Y-19787452D01*
X14517024Y-19739833D01*
X14517024Y-19701738D01*
X14507500Y-19654119D01*
X14497976Y-19625548D01*
X14488452Y-19606500D01*
X14469405Y-19577929D01*
X14459881Y-19568405D01*
D14*
X9447500Y-19920500D02*
X9447500Y-20020500D01*
X9397500Y-19970500D02*
X9497500Y-19970500D01*
D11*
X9859881Y-20060976D02*
X9745595Y-20060976D01*
X9802738Y-20060976D02*
X9802738Y-19860976D01*
X9783690Y-19889548D01*
X9764643Y-19908595D01*
X9745595Y-19918119D01*
X9945595Y-20041929D02*
X9955119Y-20051452D01*
X9945595Y-20060976D01*
X9936071Y-20051452D01*
X9945595Y-20041929D01*
X9945595Y-20060976D01*
X10078929Y-19860976D02*
X10097976Y-19860976D01*
X10117024Y-19870500D01*
X10126548Y-19880024D01*
X10136071Y-19899071D01*
X10145595Y-19937167D01*
X10145595Y-19984786D01*
X10136071Y-20022881D01*
X10126548Y-20041929D01*
X10117024Y-20051452D01*
X10097976Y-20060976D01*
X10078929Y-20060976D01*
X10059881Y-20051452D01*
X10050357Y-20041929D01*
X10040833Y-20022881D01*
X10031310Y-19984786D01*
X10031310Y-19937167D01*
X10040833Y-19899071D01*
X10050357Y-19880024D01*
X10059881Y-19870500D01*
X10078929Y-19860976D01*
X10269405Y-19860976D02*
X10288452Y-19860976D01*
X10307500Y-19870500D01*
X10317024Y-19880024D01*
X10326548Y-19899071D01*
X10336071Y-19937167D01*
X10336071Y-19984786D01*
X10326548Y-20022881D01*
X10317024Y-20041929D01*
X10307500Y-20051452D01*
X10288452Y-20060976D01*
X10269405Y-20060976D01*
X10250357Y-20051452D01*
X10240833Y-20041929D01*
X10231310Y-20022881D01*
X10221786Y-19984786D01*
X10221786Y-19937167D01*
X10231310Y-19899071D01*
X10240833Y-19880024D01*
X10250357Y-19870500D01*
X10269405Y-19860976D01*
X10459881Y-19860976D02*
X10478929Y-19860976D01*
X10497976Y-19870500D01*
X10507500Y-19880024D01*
X10517024Y-19899071D01*
X10526548Y-19937167D01*
X10526548Y-19984786D01*
X10517024Y-20022881D01*
X10507500Y-20041929D01*
X10497976Y-20051452D01*
X10478929Y-20060976D01*
X10459881Y-20060976D01*
X10440833Y-20051452D01*
X10431310Y-20041929D01*
X10421786Y-20022881D01*
X10412262Y-19984786D01*
X10412262Y-19937167D01*
X10421786Y-19899071D01*
X10431310Y-19880024D01*
X10440833Y-19870500D01*
X10459881Y-19860976D01*
X10612262Y-20060976D02*
X10612262Y-19927643D01*
X10612262Y-19946690D02*
X10621786Y-19937167D01*
X10640833Y-19927643D01*
X10669405Y-19927643D01*
X10688452Y-19937167D01*
X10697976Y-19956214D01*
X10697976Y-20060976D01*
X10697976Y-19956214D02*
X10707500Y-19937167D01*
X10726548Y-19927643D01*
X10755119Y-19927643D01*
X10774167Y-19937167D01*
X10783690Y-19956214D01*
X10783690Y-20060976D01*
X10878929Y-20060976D02*
X10878929Y-19927643D01*
X10878929Y-19946690D02*
X10888452Y-19937167D01*
X10907500Y-19927643D01*
X10936071Y-19927643D01*
X10955119Y-19937167D01*
X10964643Y-19956214D01*
X10964643Y-20060976D01*
X10964643Y-19956214D02*
X10974167Y-19937167D01*
X10993214Y-19927643D01*
X11021786Y-19927643D01*
X11040833Y-19937167D01*
X11050357Y-19956214D01*
X11050357Y-20060976D01*
X11440833Y-19851452D02*
X11269405Y-20108595D01*
X11697976Y-19860976D02*
X11717024Y-19860976D01*
X11736071Y-19870500D01*
X11745595Y-19880024D01*
X11755119Y-19899071D01*
X11764643Y-19937167D01*
X11764643Y-19984786D01*
X11755119Y-20022881D01*
X11745595Y-20041929D01*
X11736071Y-20051452D01*
X11717024Y-20060976D01*
X11697976Y-20060976D01*
X11678928Y-20051452D01*
X11669405Y-20041929D01*
X11659881Y-20022881D01*
X11650357Y-19984786D01*
X11650357Y-19937167D01*
X11659881Y-19899071D01*
X11669405Y-19880024D01*
X11678928Y-19870500D01*
X11697976Y-19860976D01*
X11850357Y-20041929D02*
X11859881Y-20051452D01*
X11850357Y-20060976D01*
X11840833Y-20051452D01*
X11850357Y-20041929D01*
X11850357Y-20060976D01*
X11983690Y-19860976D02*
X12002738Y-19860976D01*
X12021786Y-19870500D01*
X12031309Y-19880024D01*
X12040833Y-19899071D01*
X12050357Y-19937167D01*
X12050357Y-19984786D01*
X12040833Y-20022881D01*
X12031309Y-20041929D01*
X12021786Y-20051452D01*
X12002738Y-20060976D01*
X11983690Y-20060976D01*
X11964643Y-20051452D01*
X11955119Y-20041929D01*
X11945595Y-20022881D01*
X11936071Y-19984786D01*
X11936071Y-19937167D01*
X11945595Y-19899071D01*
X11955119Y-19880024D01*
X11964643Y-19870500D01*
X11983690Y-19860976D01*
X12117024Y-19860976D02*
X12240833Y-19860976D01*
X12174167Y-19937167D01*
X12202738Y-19937167D01*
X12221786Y-19946690D01*
X12231309Y-19956214D01*
X12240833Y-19975262D01*
X12240833Y-20022881D01*
X12231309Y-20041929D01*
X12221786Y-20051452D01*
X12202738Y-20060976D01*
X12145595Y-20060976D01*
X12126548Y-20051452D01*
X12117024Y-20041929D01*
X12336071Y-20060976D02*
X12374167Y-20060976D01*
X12393214Y-20051452D01*
X12402738Y-20041929D01*
X12421786Y-20013357D01*
X12431309Y-19975262D01*
X12431309Y-19899071D01*
X12421786Y-19880024D01*
X12412262Y-19870500D01*
X12393214Y-19860976D01*
X12355119Y-19860976D01*
X12336071Y-19870500D01*
X12326548Y-19880024D01*
X12317024Y-19899071D01*
X12317024Y-19946690D01*
X12326548Y-19965738D01*
X12336071Y-19975262D01*
X12355119Y-19984786D01*
X12393214Y-19984786D01*
X12412262Y-19975262D01*
X12421786Y-19965738D01*
X12431309Y-19946690D01*
X12602738Y-19927643D02*
X12602738Y-20060976D01*
X12555119Y-19851452D02*
X12507500Y-19994310D01*
X12631309Y-19994310D01*
X12697976Y-19860976D02*
X12697976Y-19899071D01*
X12774167Y-19860976D02*
X12774167Y-19899071D01*
X13069405Y-20137167D02*
X13059881Y-20127643D01*
X13040833Y-20099071D01*
X13031309Y-20080024D01*
X13021786Y-20051452D01*
X13012262Y-20003833D01*
X13012262Y-19965738D01*
X13021786Y-19918119D01*
X13031309Y-19889548D01*
X13040833Y-19870500D01*
X13059881Y-19841929D01*
X13069405Y-19832405D01*
X13250357Y-20060976D02*
X13136071Y-20060976D01*
X13193214Y-20060976D02*
X13193214Y-19860976D01*
X13174167Y-19889548D01*
X13155119Y-19908595D01*
X13136071Y-19918119D01*
X13326548Y-19880024D02*
X13336071Y-19870500D01*
X13355119Y-19860976D01*
X13402738Y-19860976D01*
X13421786Y-19870500D01*
X13431309Y-19880024D01*
X13440833Y-19899071D01*
X13440833Y-19918119D01*
X13431309Y-19946690D01*
X13317024Y-20060976D01*
X13440833Y-20060976D01*
X13612262Y-19927643D02*
X13612262Y-20060976D01*
X13564643Y-19851452D02*
X13517024Y-19994310D01*
X13640833Y-19994310D01*
X13869405Y-20060976D02*
X13869405Y-19860976D01*
X13955119Y-20060976D02*
X13955119Y-19956214D01*
X13945595Y-19937167D01*
X13926548Y-19927643D01*
X13897976Y-19927643D01*
X13878928Y-19937167D01*
X13869405Y-19946690D01*
X14078928Y-20060976D02*
X14059881Y-20051452D01*
X14050357Y-20041929D01*
X14040833Y-20022881D01*
X14040833Y-19965738D01*
X14050357Y-19946690D01*
X14059881Y-19937167D01*
X14078928Y-19927643D01*
X14107500Y-19927643D01*
X14126548Y-19937167D01*
X14136071Y-19946690D01*
X14145595Y-19965738D01*
X14145595Y-20022881D01*
X14136071Y-20041929D01*
X14126548Y-20051452D01*
X14107500Y-20060976D01*
X14078928Y-20060976D01*
X14259881Y-20060976D02*
X14240833Y-20051452D01*
X14231309Y-20032405D01*
X14231309Y-19860976D01*
X14412262Y-20051452D02*
X14393214Y-20060976D01*
X14355119Y-20060976D01*
X14336071Y-20051452D01*
X14326548Y-20032405D01*
X14326548Y-19956214D01*
X14336071Y-19937167D01*
X14355119Y-19927643D01*
X14393214Y-19927643D01*
X14412262Y-19937167D01*
X14421786Y-19956214D01*
X14421786Y-19975262D01*
X14326548Y-19994310D01*
X14497976Y-20051452D02*
X14517024Y-20060976D01*
X14555119Y-20060976D01*
X14574167Y-20051452D01*
X14583690Y-20032405D01*
X14583690Y-20022881D01*
X14574167Y-20003833D01*
X14555119Y-19994310D01*
X14526548Y-19994310D01*
X14507500Y-19984786D01*
X14497976Y-19965738D01*
X14497976Y-19956214D01*
X14507500Y-19937167D01*
X14526548Y-19927643D01*
X14555119Y-19927643D01*
X14574167Y-19937167D01*
X14650357Y-20137167D02*
X14659881Y-20127643D01*
X14678928Y-20099071D01*
X14688452Y-20080024D01*
X14697976Y-20051452D01*
X14707500Y-20003833D01*
X14707500Y-19965738D01*
X14697976Y-19918119D01*
X14688452Y-19889548D01*
X14678928Y-19870500D01*
X14659881Y-19841929D01*
X14650357Y-19832405D01*
D15*
X9478462Y-20280462D02*
X9478462Y-20188538D01*
X9386538Y-20188538D01*
X9386538Y-20280462D01*
X9478462Y-20280462D01*
D11*
X9859881Y-20324976D02*
X9745595Y-20324976D01*
X9802738Y-20324976D02*
X9802738Y-20124976D01*
X9783690Y-20153548D01*
X9764643Y-20172595D01*
X9745595Y-20182119D01*
X9945595Y-20305929D02*
X9955119Y-20315452D01*
X9945595Y-20324976D01*
X9936071Y-20315452D01*
X9945595Y-20305929D01*
X9945595Y-20324976D01*
X10021786Y-20124976D02*
X10145595Y-20124976D01*
X10078929Y-20201167D01*
X10107500Y-20201167D01*
X10126548Y-20210690D01*
X10136071Y-20220214D01*
X10145595Y-20239262D01*
X10145595Y-20286881D01*
X10136071Y-20305929D01*
X10126548Y-20315452D01*
X10107500Y-20324976D01*
X10050357Y-20324976D01*
X10031310Y-20315452D01*
X10021786Y-20305929D01*
X10269405Y-20124976D02*
X10288452Y-20124976D01*
X10307500Y-20134500D01*
X10317024Y-20144024D01*
X10326548Y-20163071D01*
X10336071Y-20201167D01*
X10336071Y-20248786D01*
X10326548Y-20286881D01*
X10317024Y-20305929D01*
X10307500Y-20315452D01*
X10288452Y-20324976D01*
X10269405Y-20324976D01*
X10250357Y-20315452D01*
X10240833Y-20305929D01*
X10231310Y-20286881D01*
X10221786Y-20248786D01*
X10221786Y-20201167D01*
X10231310Y-20163071D01*
X10240833Y-20144024D01*
X10250357Y-20134500D01*
X10269405Y-20124976D01*
X10459881Y-20124976D02*
X10478929Y-20124976D01*
X10497976Y-20134500D01*
X10507500Y-20144024D01*
X10517024Y-20163071D01*
X10526548Y-20201167D01*
X10526548Y-20248786D01*
X10517024Y-20286881D01*
X10507500Y-20305929D01*
X10497976Y-20315452D01*
X10478929Y-20324976D01*
X10459881Y-20324976D01*
X10440833Y-20315452D01*
X10431310Y-20305929D01*
X10421786Y-20286881D01*
X10412262Y-20248786D01*
X10412262Y-20201167D01*
X10421786Y-20163071D01*
X10431310Y-20144024D01*
X10440833Y-20134500D01*
X10459881Y-20124976D01*
X10612262Y-20324976D02*
X10612262Y-20191643D01*
X10612262Y-20210690D02*
X10621786Y-20201167D01*
X10640833Y-20191643D01*
X10669405Y-20191643D01*
X10688452Y-20201167D01*
X10697976Y-20220214D01*
X10697976Y-20324976D01*
X10697976Y-20220214D02*
X10707500Y-20201167D01*
X10726548Y-20191643D01*
X10755119Y-20191643D01*
X10774167Y-20201167D01*
X10783690Y-20220214D01*
X10783690Y-20324976D01*
X10878929Y-20324976D02*
X10878929Y-20191643D01*
X10878929Y-20210690D02*
X10888452Y-20201167D01*
X10907500Y-20191643D01*
X10936071Y-20191643D01*
X10955119Y-20201167D01*
X10964643Y-20220214D01*
X10964643Y-20324976D01*
X10964643Y-20220214D02*
X10974167Y-20201167D01*
X10993214Y-20191643D01*
X11021786Y-20191643D01*
X11040833Y-20201167D01*
X11050357Y-20220214D01*
X11050357Y-20324976D01*
X11440833Y-20115452D02*
X11269405Y-20372595D01*
X11697976Y-20124976D02*
X11717024Y-20124976D01*
X11736071Y-20134500D01*
X11745595Y-20144024D01*
X11755119Y-20163071D01*
X11764643Y-20201167D01*
X11764643Y-20248786D01*
X11755119Y-20286881D01*
X11745595Y-20305929D01*
X11736071Y-20315452D01*
X11717024Y-20324976D01*
X11697976Y-20324976D01*
X11678928Y-20315452D01*
X11669405Y-20305929D01*
X11659881Y-20286881D01*
X11650357Y-20248786D01*
X11650357Y-20201167D01*
X11659881Y-20163071D01*
X11669405Y-20144024D01*
X11678928Y-20134500D01*
X11697976Y-20124976D01*
X11850357Y-20305929D02*
X11859881Y-20315452D01*
X11850357Y-20324976D01*
X11840833Y-20315452D01*
X11850357Y-20305929D01*
X11850357Y-20324976D01*
X11983690Y-20124976D02*
X12002738Y-20124976D01*
X12021786Y-20134500D01*
X12031309Y-20144024D01*
X12040833Y-20163071D01*
X12050357Y-20201167D01*
X12050357Y-20248786D01*
X12040833Y-20286881D01*
X12031309Y-20305929D01*
X12021786Y-20315452D01*
X12002738Y-20324976D01*
X11983690Y-20324976D01*
X11964643Y-20315452D01*
X11955119Y-20305929D01*
X11945595Y-20286881D01*
X11936071Y-20248786D01*
X11936071Y-20201167D01*
X11945595Y-20163071D01*
X11955119Y-20144024D01*
X11964643Y-20134500D01*
X11983690Y-20124976D01*
X12231309Y-20124976D02*
X12136071Y-20124976D01*
X12126548Y-20220214D01*
X12136071Y-20210690D01*
X12155119Y-20201167D01*
X12202738Y-20201167D01*
X12221786Y-20210690D01*
X12231309Y-20220214D01*
X12240833Y-20239262D01*
X12240833Y-20286881D01*
X12231309Y-20305929D01*
X12221786Y-20315452D01*
X12202738Y-20324976D01*
X12155119Y-20324976D01*
X12136071Y-20315452D01*
X12126548Y-20305929D01*
X12431309Y-20324976D02*
X12317024Y-20324976D01*
X12374167Y-20324976D02*
X12374167Y-20124976D01*
X12355119Y-20153548D01*
X12336071Y-20172595D01*
X12317024Y-20182119D01*
X12507500Y-20144024D02*
X12517024Y-20134500D01*
X12536071Y-20124976D01*
X12583690Y-20124976D01*
X12602738Y-20134500D01*
X12612262Y-20144024D01*
X12621786Y-20163071D01*
X12621786Y-20182119D01*
X12612262Y-20210690D01*
X12497976Y-20324976D01*
X12621786Y-20324976D01*
X12697976Y-20124976D02*
X12697976Y-20163071D01*
X12774167Y-20124976D02*
X12774167Y-20163071D01*
X13069405Y-20401167D02*
X13059881Y-20391643D01*
X13040833Y-20363071D01*
X13031309Y-20344024D01*
X13021786Y-20315452D01*
X13012262Y-20267833D01*
X13012262Y-20229738D01*
X13021786Y-20182119D01*
X13031309Y-20153548D01*
X13040833Y-20134500D01*
X13059881Y-20105929D01*
X13069405Y-20096405D01*
X13250357Y-20324976D02*
X13136071Y-20324976D01*
X13193214Y-20324976D02*
X13193214Y-20124976D01*
X13174167Y-20153548D01*
X13155119Y-20172595D01*
X13136071Y-20182119D01*
X13364643Y-20210690D02*
X13345595Y-20201167D01*
X13336071Y-20191643D01*
X13326548Y-20172595D01*
X13326548Y-20163071D01*
X13336071Y-20144024D01*
X13345595Y-20134500D01*
X13364643Y-20124976D01*
X13402738Y-20124976D01*
X13421786Y-20134500D01*
X13431309Y-20144024D01*
X13440833Y-20163071D01*
X13440833Y-20172595D01*
X13431309Y-20191643D01*
X13421786Y-20201167D01*
X13402738Y-20210690D01*
X13364643Y-20210690D01*
X13345595Y-20220214D01*
X13336071Y-20229738D01*
X13326548Y-20248786D01*
X13326548Y-20286881D01*
X13336071Y-20305929D01*
X13345595Y-20315452D01*
X13364643Y-20324976D01*
X13402738Y-20324976D01*
X13421786Y-20315452D01*
X13431309Y-20305929D01*
X13440833Y-20286881D01*
X13440833Y-20248786D01*
X13431309Y-20229738D01*
X13421786Y-20220214D01*
X13402738Y-20210690D01*
X13678928Y-20324976D02*
X13678928Y-20124976D01*
X13764643Y-20324976D02*
X13764643Y-20220214D01*
X13755119Y-20201167D01*
X13736071Y-20191643D01*
X13707500Y-20191643D01*
X13688452Y-20201167D01*
X13678928Y-20210690D01*
X13888452Y-20324976D02*
X13869405Y-20315452D01*
X13859881Y-20305929D01*
X13850357Y-20286881D01*
X13850357Y-20229738D01*
X13859881Y-20210690D01*
X13869405Y-20201167D01*
X13888452Y-20191643D01*
X13917024Y-20191643D01*
X13936071Y-20201167D01*
X13945595Y-20210690D01*
X13955119Y-20229738D01*
X13955119Y-20286881D01*
X13945595Y-20305929D01*
X13936071Y-20315452D01*
X13917024Y-20324976D01*
X13888452Y-20324976D01*
X14069405Y-20324976D02*
X14050357Y-20315452D01*
X14040833Y-20296405D01*
X14040833Y-20124976D01*
X14221786Y-20315452D02*
X14202738Y-20324976D01*
X14164643Y-20324976D01*
X14145595Y-20315452D01*
X14136071Y-20296405D01*
X14136071Y-20220214D01*
X14145595Y-20201167D01*
X14164643Y-20191643D01*
X14202738Y-20191643D01*
X14221786Y-20201167D01*
X14231309Y-20220214D01*
X14231309Y-20239262D01*
X14136071Y-20258310D01*
X14307500Y-20315452D02*
X14326548Y-20324976D01*
X14364643Y-20324976D01*
X14383690Y-20315452D01*
X14393214Y-20296405D01*
X14393214Y-20286881D01*
X14383690Y-20267833D01*
X14364643Y-20258310D01*
X14336071Y-20258310D01*
X14317024Y-20248786D01*
X14307500Y-20229738D01*
X14307500Y-20220214D01*
X14317024Y-20201167D01*
X14336071Y-20191643D01*
X14364643Y-20191643D01*
X14383690Y-20201167D01*
X14459881Y-20401167D02*
X14469405Y-20391643D01*
X14488452Y-20363071D01*
X14497976Y-20344024D01*
X14507500Y-20315452D01*
X14517024Y-20267833D01*
X14517024Y-20229738D01*
X14507500Y-20182119D01*
X14497976Y-20153548D01*
X14488452Y-20134500D01*
X14469405Y-20105929D01*
X14459881Y-20096405D01*
M02*
