M48
; DRILL file {KiCad (6.0.8)} date Tue Nov  8 16:17:16 2022
; FORMAT={-:-/ absolute / metric / decimal}
; #@! TF.CreationDate,2022-11-08T16:17:16+09:00
; #@! TF.GenerationSoftware,Kicad,Pcbnew,(6.0.8)
; #@! TF.FileFunction,NonPlated,1,2,NPTH
FMAT,2
METRIC
; #@! TA.AperFunction,NonPlated,NPTH,ComponentDrill
T1C2.700
; #@! TA.AperFunction,NonPlated,NPTH,ComponentDrill
T2C3.200
%
G90
G05
T1
X121.0Y-49.0
X121.0Y-98.0
X179.0Y-49.0
X179.0Y-98.0
T2
X99.0Y-42.0
X99.0Y-184.0
X116.0Y-173.5
X116.0Y-184.0
X148.5Y-173.5
X148.5Y-184.0
X162.0Y-113.0
X162.0Y-181.0
X188.0Y-52.0
X188.0Y-80.0
X210.0Y-113.0
X210.0Y-181.0
X240.0Y-52.0
X240.0Y-80.0
X241.0Y-42.0
X241.0Y-184.0
T0
M30
